<?xml version="1.0" encoding="utf-8"?>
<svg xmlns="http://www.w3.org/2000/svg" xmlns:xlink="http://www.w3.org/1999/xlink" width="600" height="400" viewBox="0 0 2400 1600">
<defs>
  <clipPath id="clip080">
    <rect x="0" y="0" width="2400" height="1600"/>
  </clipPath>
</defs>
<path clip-path="url(#clip080)" d="M0 1600 L2400 1600 L2400 0 L0 0  Z" fill="#ffffff" fill-rule="evenodd" fill-opacity="1"/>
<defs>
  <clipPath id="clip081">
    <rect x="480" y="0" width="1681" height="1600"/>
  </clipPath>
</defs>
<path clip-path="url(#clip080)" d="M265.445 1423.18 L2352.76 1423.18 L2352.76 47.2441 L265.445 47.2441  Z" fill="#ffffff" fill-rule="evenodd" fill-opacity="1"/>
<defs>
  <clipPath id="clip082">
    <rect x="265" y="47" width="2088" height="1377"/>
  </clipPath>
</defs>
<polyline clip-path="url(#clip082)" style="stroke:#000000; stroke-linecap:round; stroke-linejoin:round; stroke-width:2; stroke-opacity:0.1; fill:none" points="535.251,1423.18 535.251,47.2441 "/>
<polyline clip-path="url(#clip082)" style="stroke:#000000; stroke-linecap:round; stroke-linejoin:round; stroke-width:2; stroke-opacity:0.1; fill:none" points="1002.64,1423.18 1002.64,47.2441 "/>
<polyline clip-path="url(#clip082)" style="stroke:#000000; stroke-linecap:round; stroke-linejoin:round; stroke-width:2; stroke-opacity:0.1; fill:none" points="1470.03,1423.18 1470.03,47.2441 "/>
<polyline clip-path="url(#clip082)" style="stroke:#000000; stroke-linecap:round; stroke-linejoin:round; stroke-width:2; stroke-opacity:0.1; fill:none" points="1937.42,1423.18 1937.42,47.2441 "/>
<polyline clip-path="url(#clip080)" style="stroke:#000000; stroke-linecap:round; stroke-linejoin:round; stroke-width:4; stroke-opacity:1; fill:none" points="265.445,1423.18 2352.76,1423.18 "/>
<polyline clip-path="url(#clip080)" style="stroke:#000000; stroke-linecap:round; stroke-linejoin:round; stroke-width:4; stroke-opacity:1; fill:none" points="535.251,1423.18 535.251,1404.28 "/>
<polyline clip-path="url(#clip080)" style="stroke:#000000; stroke-linecap:round; stroke-linejoin:round; stroke-width:4; stroke-opacity:1; fill:none" points="1002.64,1423.18 1002.64,1404.28 "/>
<polyline clip-path="url(#clip080)" style="stroke:#000000; stroke-linecap:round; stroke-linejoin:round; stroke-width:4; stroke-opacity:1; fill:none" points="1470.03,1423.18 1470.03,1404.28 "/>
<polyline clip-path="url(#clip080)" style="stroke:#000000; stroke-linecap:round; stroke-linejoin:round; stroke-width:4; stroke-opacity:1; fill:none" points="1937.42,1423.18 1937.42,1404.28 "/>
<path clip-path="url(#clip080)" d="M502.416 1451.02 L520.772 1451.02 L520.772 1454.96 L506.698 1454.96 L506.698 1463.43 Q507.717 1463.08 508.735 1462.92 Q509.754 1462.73 510.772 1462.73 Q516.559 1462.73 519.939 1465.9 Q523.318 1469.08 523.318 1474.49 Q523.318 1480.07 519.846 1483.17 Q516.374 1486.25 510.055 1486.25 Q507.879 1486.25 505.61 1485.88 Q503.365 1485.51 500.957 1484.77 L500.957 1480.07 Q503.041 1481.2 505.263 1481.76 Q507.485 1482.32 509.962 1482.32 Q513.967 1482.32 516.305 1480.21 Q518.643 1478.1 518.643 1474.49 Q518.643 1470.88 516.305 1468.77 Q513.967 1466.67 509.962 1466.67 Q508.087 1466.67 506.212 1467.08 Q504.36 1467.5 502.416 1468.38 L502.416 1451.02 Z" fill="#000000" fill-rule="nonzero" fill-opacity="1" /><path clip-path="url(#clip080)" d="M532.531 1479.7 L537.416 1479.7 L537.416 1485.58 L532.531 1485.58 L532.531 1479.7 Z" fill="#000000" fill-rule="nonzero" fill-opacity="1" /><path clip-path="url(#clip080)" d="M557.601 1454.1 Q553.99 1454.1 552.161 1457.66 Q550.355 1461.2 550.355 1468.33 Q550.355 1475.44 552.161 1479.01 Q553.99 1482.55 557.601 1482.55 Q561.235 1482.55 563.04 1479.01 Q564.869 1475.44 564.869 1468.33 Q564.869 1461.2 563.04 1457.66 Q561.235 1454.1 557.601 1454.1 M557.601 1450.39 Q563.411 1450.39 566.466 1455 Q569.545 1459.58 569.545 1468.33 Q569.545 1477.06 566.466 1481.67 Q563.411 1486.25 557.601 1486.25 Q551.791 1486.25 548.712 1481.67 Q545.656 1477.06 545.656 1468.33 Q545.656 1459.58 548.712 1455 Q551.791 1450.39 557.601 1450.39 Z" fill="#000000" fill-rule="nonzero" fill-opacity="1" /><path clip-path="url(#clip080)" d="M968.96 1451.02 L991.182 1451.02 L991.182 1453.01 L978.636 1485.58 L973.752 1485.58 L985.557 1454.96 L968.96 1454.96 L968.96 1451.02 Z" fill="#000000" fill-rule="nonzero" fill-opacity="1" /><path clip-path="url(#clip080)" d="M1000.3 1479.7 L1005.19 1479.7 L1005.19 1485.58 L1000.3 1485.58 L1000.3 1479.7 Z" fill="#000000" fill-rule="nonzero" fill-opacity="1" /><path clip-path="url(#clip080)" d="M1015.42 1451.02 L1033.77 1451.02 L1033.77 1454.96 L1019.7 1454.96 L1019.7 1463.43 Q1020.72 1463.08 1021.74 1462.92 Q1022.76 1462.73 1023.77 1462.73 Q1029.56 1462.73 1032.94 1465.9 Q1036.32 1469.08 1036.32 1474.49 Q1036.32 1480.07 1032.85 1483.17 Q1029.38 1486.25 1023.06 1486.25 Q1020.88 1486.25 1018.61 1485.88 Q1016.37 1485.51 1013.96 1484.77 L1013.96 1480.07 Q1016.04 1481.2 1018.27 1481.76 Q1020.49 1482.32 1022.96 1482.32 Q1026.97 1482.32 1029.31 1480.21 Q1031.64 1478.1 1031.64 1474.49 Q1031.64 1470.88 1029.31 1468.77 Q1026.97 1466.67 1022.96 1466.67 Q1021.09 1466.67 1019.21 1467.08 Q1017.36 1467.5 1015.42 1468.38 L1015.42 1451.02 Z" fill="#000000" fill-rule="nonzero" fill-opacity="1" /><path clip-path="url(#clip080)" d="M1422.1 1481.64 L1429.74 1481.64 L1429.74 1455.28 L1421.43 1456.95 L1421.43 1452.69 L1429.69 1451.02 L1434.37 1451.02 L1434.37 1481.64 L1442.01 1481.64 L1442.01 1485.58 L1422.1 1485.58 L1422.1 1481.64 Z" fill="#000000" fill-rule="nonzero" fill-opacity="1" /><path clip-path="url(#clip080)" d="M1461.45 1454.1 Q1457.84 1454.1 1456.01 1457.66 Q1454.21 1461.2 1454.21 1468.33 Q1454.21 1475.44 1456.01 1479.01 Q1457.84 1482.55 1461.45 1482.55 Q1465.09 1482.55 1466.89 1479.01 Q1468.72 1475.44 1468.72 1468.33 Q1468.72 1461.2 1466.89 1457.66 Q1465.09 1454.1 1461.45 1454.1 M1461.45 1450.39 Q1467.26 1450.39 1470.32 1455 Q1473.4 1459.58 1473.4 1468.33 Q1473.4 1477.06 1470.32 1481.67 Q1467.26 1486.25 1461.45 1486.25 Q1455.64 1486.25 1452.56 1481.67 Q1449.51 1477.06 1449.51 1468.33 Q1449.51 1459.58 1452.56 1455 Q1455.64 1450.39 1461.45 1450.39 Z" fill="#000000" fill-rule="nonzero" fill-opacity="1" /><path clip-path="url(#clip080)" d="M1481.61 1479.7 L1486.5 1479.7 L1486.5 1485.58 L1481.61 1485.58 L1481.61 1479.7 Z" fill="#000000" fill-rule="nonzero" fill-opacity="1" /><path clip-path="url(#clip080)" d="M1506.68 1454.1 Q1503.07 1454.1 1501.24 1457.66 Q1499.44 1461.2 1499.44 1468.33 Q1499.44 1475.44 1501.24 1479.01 Q1503.07 1482.55 1506.68 1482.55 Q1510.32 1482.55 1512.12 1479.01 Q1513.95 1475.44 1513.95 1468.33 Q1513.95 1461.2 1512.12 1457.66 Q1510.32 1454.1 1506.68 1454.1 M1506.68 1450.39 Q1512.49 1450.39 1515.55 1455 Q1518.63 1459.58 1518.63 1468.33 Q1518.63 1477.06 1515.55 1481.67 Q1512.49 1486.25 1506.68 1486.25 Q1500.87 1486.25 1497.8 1481.67 Q1494.74 1477.06 1494.74 1468.33 Q1494.74 1459.58 1497.8 1455 Q1500.87 1450.39 1506.68 1450.39 Z" fill="#000000" fill-rule="nonzero" fill-opacity="1" /><path clip-path="url(#clip080)" d="M1889.99 1481.64 L1897.63 1481.64 L1897.63 1455.28 L1889.32 1456.95 L1889.32 1452.69 L1897.58 1451.02 L1902.26 1451.02 L1902.26 1481.64 L1909.9 1481.64 L1909.9 1485.58 L1889.99 1485.58 L1889.99 1481.64 Z" fill="#000000" fill-rule="nonzero" fill-opacity="1" /><path clip-path="url(#clip080)" d="M1923.37 1481.64 L1939.69 1481.64 L1939.69 1485.58 L1917.74 1485.58 L1917.74 1481.64 Q1920.4 1478.89 1924.99 1474.26 Q1929.59 1469.61 1930.77 1468.27 Q1933.02 1465.74 1933.9 1464.01 Q1934.8 1462.25 1934.8 1460.56 Q1934.8 1457.8 1932.86 1456.07 Q1930.94 1454.33 1927.84 1454.33 Q1925.64 1454.33 1923.18 1455.09 Q1920.75 1455.86 1917.97 1457.41 L1917.97 1452.69 Q1920.8 1451.55 1923.25 1450.97 Q1925.71 1450.39 1927.74 1450.39 Q1933.11 1450.39 1936.31 1453.08 Q1939.5 1455.77 1939.5 1460.26 Q1939.5 1462.39 1938.69 1464.31 Q1937.9 1466.2 1935.8 1468.8 Q1935.22 1469.47 1932.12 1472.69 Q1929.02 1475.88 1923.37 1481.64 Z" fill="#000000" fill-rule="nonzero" fill-opacity="1" /><path clip-path="url(#clip080)" d="M1949.5 1479.7 L1954.39 1479.7 L1954.39 1485.58 L1949.5 1485.58 L1949.5 1479.7 Z" fill="#000000" fill-rule="nonzero" fill-opacity="1" /><path clip-path="url(#clip080)" d="M1964.62 1451.02 L1982.97 1451.02 L1982.97 1454.96 L1968.9 1454.96 L1968.9 1463.43 Q1969.92 1463.08 1970.94 1462.92 Q1971.96 1462.73 1972.97 1462.73 Q1978.76 1462.73 1982.14 1465.9 Q1985.52 1469.08 1985.52 1474.49 Q1985.52 1480.07 1982.05 1483.17 Q1978.58 1486.25 1972.26 1486.25 Q1970.08 1486.25 1967.81 1485.88 Q1965.57 1485.51 1963.16 1484.77 L1963.16 1480.07 Q1965.24 1481.2 1967.46 1481.76 Q1969.69 1482.32 1972.16 1482.32 Q1976.17 1482.32 1978.51 1480.21 Q1980.84 1478.1 1980.84 1474.49 Q1980.84 1470.88 1978.51 1468.77 Q1976.17 1466.67 1972.16 1466.67 Q1970.29 1466.67 1968.41 1467.08 Q1966.56 1467.5 1964.62 1468.38 L1964.62 1451.02 Z" fill="#000000" fill-rule="nonzero" fill-opacity="1" /><path clip-path="url(#clip080)" d="M1152.81 1520.52 L1182.85 1520.52 L1182.85 1525.93 L1159.24 1525.93 L1159.24 1540 L1181.87 1540 L1181.87 1545.41 L1159.24 1545.41 L1159.24 1562.63 L1183.43 1562.63 L1183.43 1568.04 L1152.81 1568.04 L1152.81 1520.52 Z" fill="#000000" fill-rule="nonzero" fill-opacity="1" /><path clip-path="url(#clip080)" d="M1217.2 1537.81 L1217.2 1518.52 L1223.05 1518.52 L1223.05 1568.04 L1217.2 1568.04 L1217.2 1562.7 Q1215.35 1565.88 1212.52 1567.44 Q1209.72 1568.97 1205.77 1568.97 Q1199.31 1568.97 1195.23 1563.81 Q1191.19 1558.65 1191.19 1550.25 Q1191.19 1541.85 1195.23 1536.69 Q1199.31 1531.54 1205.77 1531.54 Q1209.72 1531.54 1212.52 1533.1 Q1215.35 1534.62 1217.2 1537.81 M1197.24 1550.25 Q1197.24 1556.71 1199.88 1560.4 Q1202.55 1564.07 1207.2 1564.07 Q1211.85 1564.07 1214.52 1560.4 Q1217.2 1556.71 1217.2 1550.25 Q1217.2 1543.79 1214.52 1540.13 Q1211.85 1536.44 1207.2 1536.44 Q1202.55 1536.44 1199.88 1540.13 Q1197.24 1543.79 1197.24 1550.25 Z" fill="#000000" fill-rule="nonzero" fill-opacity="1" /><path clip-path="url(#clip080)" d="M1234.51 1553.98 L1234.51 1532.4 L1240.37 1532.4 L1240.37 1553.75 Q1240.37 1558.81 1242.34 1561.36 Q1244.31 1563.87 1248.26 1563.87 Q1253 1563.87 1255.74 1560.85 Q1258.51 1557.83 1258.51 1552.61 L1258.51 1532.4 L1264.37 1532.4 L1264.37 1568.04 L1258.51 1568.04 L1258.51 1562.57 Q1256.38 1565.82 1253.54 1567.41 Q1250.74 1568.97 1247.02 1568.97 Q1240.88 1568.97 1237.69 1565.15 Q1234.51 1561.33 1234.51 1553.98 M1249.25 1531.54 L1249.25 1531.54 Z" fill="#000000" fill-rule="nonzero" fill-opacity="1" /><path clip-path="url(#clip080)" d="M1302.08 1533.76 L1302.08 1539.24 Q1299.6 1537.87 1297.09 1537.2 Q1294.6 1536.5 1292.06 1536.5 Q1286.36 1536.5 1283.21 1540.13 Q1280.06 1543.73 1280.06 1550.25 Q1280.06 1556.78 1283.21 1560.4 Q1286.36 1564 1292.06 1564 Q1294.6 1564 1297.09 1563.33 Q1299.6 1562.63 1302.08 1561.26 L1302.08 1566.68 Q1299.63 1567.82 1296.99 1568.39 Q1294.38 1568.97 1291.42 1568.97 Q1283.37 1568.97 1278.62 1563.91 Q1273.88 1558.85 1273.88 1550.25 Q1273.88 1541.53 1278.66 1536.53 Q1283.46 1531.54 1291.8 1531.54 Q1294.51 1531.54 1297.09 1532.11 Q1299.66 1532.65 1302.08 1533.76 Z" fill="#000000" fill-rule="nonzero" fill-opacity="1" /><path clip-path="url(#clip080)" d="M1328.47 1550.12 Q1321.37 1550.12 1318.63 1551.75 Q1315.9 1553.37 1315.9 1557.29 Q1315.9 1560.4 1317.93 1562.25 Q1320 1564.07 1323.53 1564.07 Q1328.4 1564.07 1331.33 1560.63 Q1334.29 1557.16 1334.29 1551.43 L1334.29 1550.12 L1328.47 1550.12 M1340.15 1547.71 L1340.15 1568.04 L1334.29 1568.04 L1334.29 1562.63 Q1332.29 1565.88 1329.3 1567.44 Q1326.3 1568.97 1321.97 1568.97 Q1316.5 1568.97 1313.25 1565.91 Q1310.04 1562.82 1310.04 1557.67 Q1310.04 1551.65 1314.05 1548.6 Q1318.09 1545.54 1326.08 1545.54 L1334.29 1545.54 L1334.29 1544.97 Q1334.29 1540.93 1331.62 1538.73 Q1328.98 1536.5 1324.17 1536.5 Q1321.12 1536.5 1318.22 1537.23 Q1315.32 1537.97 1312.65 1539.43 L1312.65 1534.02 Q1315.86 1532.78 1318.89 1532.17 Q1321.91 1531.54 1324.78 1531.54 Q1332.51 1531.54 1336.33 1535.55 Q1340.15 1539.56 1340.15 1547.71 Z" fill="#000000" fill-rule="nonzero" fill-opacity="1" /><path clip-path="url(#clip080)" d="M1358 1522.27 L1358 1532.4 L1370.07 1532.4 L1370.07 1536.95 L1358 1536.95 L1358 1556.3 Q1358 1560.66 1359.18 1561.9 Q1360.39 1563.14 1364.05 1563.14 L1370.07 1563.14 L1370.07 1568.04 L1364.05 1568.04 Q1357.27 1568.04 1354.69 1565.53 Q1352.12 1562.98 1352.12 1556.3 L1352.12 1536.95 L1347.82 1536.95 L1347.82 1532.4 L1352.12 1532.4 L1352.12 1522.27 L1358 1522.27 Z" fill="#000000" fill-rule="nonzero" fill-opacity="1" /><path clip-path="url(#clip080)" d="M1377.77 1532.4 L1383.63 1532.4 L1383.63 1568.04 L1377.77 1568.04 L1377.77 1532.4 M1377.77 1518.52 L1383.63 1518.52 L1383.63 1525.93 L1377.77 1525.93 L1377.77 1518.52 Z" fill="#000000" fill-rule="nonzero" fill-opacity="1" /><path clip-path="url(#clip080)" d="M1409.69 1536.5 Q1404.98 1536.5 1402.25 1540.19 Q1399.51 1543.85 1399.51 1550.25 Q1399.51 1556.65 1402.21 1560.34 Q1404.95 1564 1409.69 1564 Q1414.37 1564 1417.11 1560.31 Q1419.85 1556.62 1419.85 1550.25 Q1419.85 1543.92 1417.11 1540.23 Q1414.37 1536.5 1409.69 1536.5 M1409.69 1531.54 Q1417.33 1531.54 1421.69 1536.5 Q1426.05 1541.47 1426.05 1550.25 Q1426.05 1559 1421.69 1564 Q1417.33 1568.97 1409.69 1568.97 Q1402.02 1568.97 1397.66 1564 Q1393.33 1559 1393.33 1550.25 Q1393.33 1541.47 1397.66 1536.5 Q1402.02 1531.54 1409.69 1531.54 Z" fill="#000000" fill-rule="nonzero" fill-opacity="1" /><path clip-path="url(#clip080)" d="M1465.39 1546.53 L1465.39 1568.04 L1459.54 1568.04 L1459.54 1546.72 Q1459.54 1541.66 1457.56 1539.14 Q1455.59 1536.63 1451.64 1536.63 Q1446.9 1536.63 1444.16 1539.65 Q1441.43 1542.68 1441.43 1547.9 L1441.43 1568.04 L1435.54 1568.04 L1435.54 1532.4 L1441.43 1532.4 L1441.43 1537.93 Q1443.53 1534.72 1446.36 1533.13 Q1449.23 1531.54 1452.95 1531.54 Q1459.09 1531.54 1462.24 1535.36 Q1465.39 1539.14 1465.39 1546.53 Z" fill="#000000" fill-rule="nonzero" fill-opacity="1" /><polyline clip-path="url(#clip082)" style="stroke:#000000; stroke-linecap:round; stroke-linejoin:round; stroke-width:2; stroke-opacity:0.1; fill:none" points="265.445,1231.86 2352.76,1231.86 "/>
<polyline clip-path="url(#clip082)" style="stroke:#000000; stroke-linecap:round; stroke-linejoin:round; stroke-width:2; stroke-opacity:0.1; fill:none" points="265.445,1018.48 2352.76,1018.48 "/>
<polyline clip-path="url(#clip082)" style="stroke:#000000; stroke-linecap:round; stroke-linejoin:round; stroke-width:2; stroke-opacity:0.1; fill:none" points="265.445,805.091 2352.76,805.091 "/>
<polyline clip-path="url(#clip082)" style="stroke:#000000; stroke-linecap:round; stroke-linejoin:round; stroke-width:2; stroke-opacity:0.1; fill:none" points="265.445,591.706 2352.76,591.706 "/>
<polyline clip-path="url(#clip082)" style="stroke:#000000; stroke-linecap:round; stroke-linejoin:round; stroke-width:2; stroke-opacity:0.1; fill:none" points="265.445,378.321 2352.76,378.321 "/>
<polyline clip-path="url(#clip082)" style="stroke:#000000; stroke-linecap:round; stroke-linejoin:round; stroke-width:2; stroke-opacity:0.1; fill:none" points="265.445,164.936 2352.76,164.936 "/>
<polyline clip-path="url(#clip080)" style="stroke:#000000; stroke-linecap:round; stroke-linejoin:round; stroke-width:4; stroke-opacity:1; fill:none" points="265.445,1423.18 265.445,47.2441 "/>
<polyline clip-path="url(#clip080)" style="stroke:#000000; stroke-linecap:round; stroke-linejoin:round; stroke-width:4; stroke-opacity:1; fill:none" points="265.445,1231.86 284.342,1231.86 "/>
<polyline clip-path="url(#clip080)" style="stroke:#000000; stroke-linecap:round; stroke-linejoin:round; stroke-width:4; stroke-opacity:1; fill:none" points="265.445,1018.48 284.342,1018.48 "/>
<polyline clip-path="url(#clip080)" style="stroke:#000000; stroke-linecap:round; stroke-linejoin:round; stroke-width:4; stroke-opacity:1; fill:none" points="265.445,805.091 284.342,805.091 "/>
<polyline clip-path="url(#clip080)" style="stroke:#000000; stroke-linecap:round; stroke-linejoin:round; stroke-width:4; stroke-opacity:1; fill:none" points="265.445,591.706 284.342,591.706 "/>
<polyline clip-path="url(#clip080)" style="stroke:#000000; stroke-linecap:round; stroke-linejoin:round; stroke-width:4; stroke-opacity:1; fill:none" points="265.445,378.321 284.342,378.321 "/>
<polyline clip-path="url(#clip080)" style="stroke:#000000; stroke-linecap:round; stroke-linejoin:round; stroke-width:4; stroke-opacity:1; fill:none" points="265.445,164.936 284.342,164.936 "/>
<path clip-path="url(#clip080)" d="M131.181 1230.51 Q134.538 1231.23 136.413 1233.49 Q138.311 1235.76 138.311 1239.1 Q138.311 1244.21 134.792 1247.01 Q131.274 1249.81 124.793 1249.81 Q122.617 1249.81 120.302 1249.37 Q118.01 1248.96 115.556 1248.1 L115.556 1243.59 Q117.501 1244.72 119.816 1245.3 Q122.13 1245.88 124.654 1245.88 Q129.052 1245.88 131.343 1244.14 Q133.658 1242.41 133.658 1239.1 Q133.658 1236.04 131.505 1234.33 Q129.376 1232.59 125.556 1232.59 L121.529 1232.59 L121.529 1228.75 L125.742 1228.75 Q129.191 1228.75 131.019 1227.38 Q132.848 1225.99 132.848 1223.4 Q132.848 1220.74 130.95 1219.33 Q129.075 1217.89 125.556 1217.89 Q123.635 1217.89 121.436 1218.31 Q119.237 1218.73 116.598 1219.6 L116.598 1215.44 Q119.26 1214.7 121.575 1214.33 Q123.913 1213.96 125.973 1213.96 Q131.297 1213.96 134.399 1216.39 Q137.501 1218.79 137.501 1222.91 Q137.501 1225.79 135.857 1227.78 Q134.214 1229.74 131.181 1230.51 Z" fill="#000000" fill-rule="nonzero" fill-opacity="1" /><path clip-path="url(#clip080)" d="M157.177 1217.66 Q153.566 1217.66 151.737 1221.23 Q149.931 1224.77 149.931 1231.9 Q149.931 1239 151.737 1242.57 Q153.566 1246.11 157.177 1246.11 Q160.811 1246.11 162.616 1242.57 Q164.445 1239 164.445 1231.9 Q164.445 1224.77 162.616 1221.23 Q160.811 1217.66 157.177 1217.66 M157.177 1213.96 Q162.987 1213.96 166.042 1218.56 Q169.121 1223.15 169.121 1231.9 Q169.121 1240.62 166.042 1245.23 Q162.987 1249.81 157.177 1249.81 Q151.366 1249.81 148.288 1245.23 Q145.232 1240.62 145.232 1231.9 Q145.232 1223.15 148.288 1218.56 Q151.366 1213.96 157.177 1213.96 Z" fill="#000000" fill-rule="nonzero" fill-opacity="1" /><path clip-path="url(#clip080)" d="M187.338 1217.66 Q183.727 1217.66 181.899 1221.23 Q180.093 1224.77 180.093 1231.9 Q180.093 1239 181.899 1242.57 Q183.727 1246.11 187.338 1246.11 Q190.973 1246.11 192.778 1242.57 Q194.607 1239 194.607 1231.9 Q194.607 1224.77 192.778 1221.23 Q190.973 1217.66 187.338 1217.66 M187.338 1213.96 Q193.149 1213.96 196.204 1218.56 Q199.283 1223.15 199.283 1231.9 Q199.283 1240.62 196.204 1245.23 Q193.149 1249.81 187.338 1249.81 Q181.528 1249.81 178.45 1245.23 Q175.394 1240.62 175.394 1231.9 Q175.394 1223.15 178.45 1218.56 Q181.528 1213.96 187.338 1213.96 Z" fill="#000000" fill-rule="nonzero" fill-opacity="1" /><path clip-path="url(#clip080)" d="M217.5 1217.66 Q213.889 1217.66 212.061 1221.23 Q210.255 1224.77 210.255 1231.9 Q210.255 1239 212.061 1242.57 Q213.889 1246.11 217.5 1246.11 Q221.135 1246.11 222.94 1242.57 Q224.769 1239 224.769 1231.9 Q224.769 1224.77 222.94 1221.23 Q221.135 1217.66 217.5 1217.66 M217.5 1213.96 Q223.31 1213.96 226.366 1218.56 Q229.445 1223.15 229.445 1231.9 Q229.445 1240.62 226.366 1245.23 Q223.31 1249.81 217.5 1249.81 Q211.69 1249.81 208.612 1245.23 Q205.556 1240.62 205.556 1231.9 Q205.556 1223.15 208.612 1218.56 Q211.69 1213.96 217.5 1213.96 Z" fill="#000000" fill-rule="nonzero" fill-opacity="1" /><path clip-path="url(#clip080)" d="M131.181 1017.12 Q134.538 1017.84 136.413 1020.11 Q138.311 1022.38 138.311 1025.71 Q138.311 1030.83 134.792 1033.63 Q131.274 1036.43 124.793 1036.43 Q122.617 1036.43 120.302 1035.99 Q118.01 1035.57 115.556 1034.71 L115.556 1030.2 Q117.501 1031.34 119.816 1031.91 Q122.13 1032.49 124.654 1032.49 Q129.052 1032.49 131.343 1030.76 Q133.658 1029.02 133.658 1025.71 Q133.658 1022.65 131.505 1020.94 Q129.376 1019.21 125.556 1019.21 L121.529 1019.21 L121.529 1015.36 L125.742 1015.36 Q129.191 1015.36 131.019 1014 Q132.848 1012.61 132.848 1010.02 Q132.848 1007.35 130.95 1005.94 Q129.075 1004.51 125.556 1004.51 Q123.635 1004.51 121.436 1004.92 Q119.237 1005.34 116.598 1006.22 L116.598 1002.05 Q119.26 1001.31 121.575 1000.94 Q123.913 1000.57 125.973 1000.57 Q131.297 1000.57 134.399 1003 Q137.501 1005.41 137.501 1009.53 Q137.501 1012.4 135.857 1014.39 Q134.214 1016.36 131.181 1017.12 Z" fill="#000000" fill-rule="nonzero" fill-opacity="1" /><path clip-path="url(#clip080)" d="M147.223 1001.2 L165.579 1001.2 L165.579 1005.13 L151.505 1005.13 L151.505 1013.6 Q152.524 1013.26 153.542 1013.09 Q154.561 1012.91 155.579 1012.91 Q161.366 1012.91 164.746 1016.08 Q168.126 1019.25 168.126 1024.67 Q168.126 1030.25 164.653 1033.35 Q161.181 1036.43 154.862 1036.43 Q152.686 1036.43 150.417 1036.06 Q148.172 1035.69 145.765 1034.95 L145.765 1030.25 Q147.848 1031.38 150.07 1031.94 Q152.292 1032.49 154.769 1032.49 Q158.774 1032.49 161.112 1030.39 Q163.45 1028.28 163.45 1024.67 Q163.45 1021.06 161.112 1018.95 Q158.774 1016.84 154.769 1016.84 Q152.894 1016.84 151.019 1017.26 Q149.167 1017.68 147.223 1018.56 L147.223 1001.2 Z" fill="#000000" fill-rule="nonzero" fill-opacity="1" /><path clip-path="url(#clip080)" d="M187.338 1004.28 Q183.727 1004.28 181.899 1007.84 Q180.093 1011.38 180.093 1018.51 Q180.093 1025.62 181.899 1029.18 Q183.727 1032.72 187.338 1032.72 Q190.973 1032.72 192.778 1029.18 Q194.607 1025.62 194.607 1018.51 Q194.607 1011.38 192.778 1007.84 Q190.973 1004.28 187.338 1004.28 M187.338 1000.57 Q193.149 1000.57 196.204 1005.18 Q199.283 1009.76 199.283 1018.51 Q199.283 1027.24 196.204 1031.84 Q193.149 1036.43 187.338 1036.43 Q181.528 1036.43 178.45 1031.84 Q175.394 1027.24 175.394 1018.51 Q175.394 1009.76 178.45 1005.18 Q181.528 1000.57 187.338 1000.57 Z" fill="#000000" fill-rule="nonzero" fill-opacity="1" /><path clip-path="url(#clip080)" d="M217.5 1004.28 Q213.889 1004.28 212.061 1007.84 Q210.255 1011.38 210.255 1018.51 Q210.255 1025.62 212.061 1029.18 Q213.889 1032.72 217.5 1032.72 Q221.135 1032.72 222.94 1029.18 Q224.769 1025.62 224.769 1018.51 Q224.769 1011.38 222.94 1007.84 Q221.135 1004.28 217.5 1004.28 M217.5 1000.57 Q223.31 1000.57 226.366 1005.18 Q229.445 1009.76 229.445 1018.51 Q229.445 1027.24 226.366 1031.84 Q223.31 1036.43 217.5 1036.43 Q211.69 1036.43 208.612 1031.84 Q205.556 1027.24 205.556 1018.51 Q205.556 1009.76 208.612 1005.18 Q211.69 1000.57 217.5 1000.57 Z" fill="#000000" fill-rule="nonzero" fill-opacity="1" /><path clip-path="url(#clip080)" d="M129.862 791.886 L118.056 810.334 L129.862 810.334 L129.862 791.886 M128.635 787.811 L134.515 787.811 L134.515 810.334 L139.445 810.334 L139.445 814.223 L134.515 814.223 L134.515 822.371 L129.862 822.371 L129.862 814.223 L114.26 814.223 L114.26 809.709 L128.635 787.811 Z" fill="#000000" fill-rule="nonzero" fill-opacity="1" /><path clip-path="url(#clip080)" d="M157.177 790.89 Q153.566 790.89 151.737 794.455 Q149.931 797.997 149.931 805.126 Q149.931 812.233 151.737 815.797 Q153.566 819.339 157.177 819.339 Q160.811 819.339 162.616 815.797 Q164.445 812.233 164.445 805.126 Q164.445 797.997 162.616 794.455 Q160.811 790.89 157.177 790.89 M157.177 787.186 Q162.987 787.186 166.042 791.793 Q169.121 796.376 169.121 805.126 Q169.121 813.853 166.042 818.459 Q162.987 823.043 157.177 823.043 Q151.366 823.043 148.288 818.459 Q145.232 813.853 145.232 805.126 Q145.232 796.376 148.288 791.793 Q151.366 787.186 157.177 787.186 Z" fill="#000000" fill-rule="nonzero" fill-opacity="1" /><path clip-path="url(#clip080)" d="M187.338 790.89 Q183.727 790.89 181.899 794.455 Q180.093 797.997 180.093 805.126 Q180.093 812.233 181.899 815.797 Q183.727 819.339 187.338 819.339 Q190.973 819.339 192.778 815.797 Q194.607 812.233 194.607 805.126 Q194.607 797.997 192.778 794.455 Q190.973 790.89 187.338 790.89 M187.338 787.186 Q193.149 787.186 196.204 791.793 Q199.283 796.376 199.283 805.126 Q199.283 813.853 196.204 818.459 Q193.149 823.043 187.338 823.043 Q181.528 823.043 178.45 818.459 Q175.394 813.853 175.394 805.126 Q175.394 796.376 178.45 791.793 Q181.528 787.186 187.338 787.186 Z" fill="#000000" fill-rule="nonzero" fill-opacity="1" /><path clip-path="url(#clip080)" d="M217.5 790.89 Q213.889 790.89 212.061 794.455 Q210.255 797.997 210.255 805.126 Q210.255 812.233 212.061 815.797 Q213.889 819.339 217.5 819.339 Q221.135 819.339 222.94 815.797 Q224.769 812.233 224.769 805.126 Q224.769 797.997 222.94 794.455 Q221.135 790.89 217.5 790.89 M217.5 787.186 Q223.31 787.186 226.366 791.793 Q229.445 796.376 229.445 805.126 Q229.445 813.853 226.366 818.459 Q223.31 823.043 217.5 823.043 Q211.69 823.043 208.612 818.459 Q205.556 813.853 205.556 805.126 Q205.556 796.376 208.612 791.793 Q211.69 787.186 217.5 787.186 Z" fill="#000000" fill-rule="nonzero" fill-opacity="1" /><path clip-path="url(#clip080)" d="M129.862 578.5 L118.056 596.949 L129.862 596.949 L129.862 578.5 M128.635 574.426 L134.515 574.426 L134.515 596.949 L139.445 596.949 L139.445 600.838 L134.515 600.838 L134.515 608.986 L129.862 608.986 L129.862 600.838 L114.26 600.838 L114.26 596.324 L128.635 574.426 Z" fill="#000000" fill-rule="nonzero" fill-opacity="1" /><path clip-path="url(#clip080)" d="M147.223 574.426 L165.579 574.426 L165.579 578.361 L151.505 578.361 L151.505 586.834 Q152.524 586.486 153.542 586.324 Q154.561 586.139 155.579 586.139 Q161.366 586.139 164.746 589.31 Q168.126 592.482 168.126 597.898 Q168.126 603.477 164.653 606.579 Q161.181 609.658 154.862 609.658 Q152.686 609.658 150.417 609.287 Q148.172 608.917 145.765 608.176 L145.765 603.477 Q147.848 604.611 150.07 605.167 Q152.292 605.722 154.769 605.722 Q158.774 605.722 161.112 603.616 Q163.45 601.51 163.45 597.898 Q163.45 594.287 161.112 592.181 Q158.774 590.074 154.769 590.074 Q152.894 590.074 151.019 590.491 Q149.167 590.908 147.223 591.787 L147.223 574.426 Z" fill="#000000" fill-rule="nonzero" fill-opacity="1" /><path clip-path="url(#clip080)" d="M187.338 577.505 Q183.727 577.505 181.899 581.07 Q180.093 584.611 180.093 591.741 Q180.093 598.847 181.899 602.412 Q183.727 605.954 187.338 605.954 Q190.973 605.954 192.778 602.412 Q194.607 598.847 194.607 591.741 Q194.607 584.611 192.778 581.07 Q190.973 577.505 187.338 577.505 M187.338 573.801 Q193.149 573.801 196.204 578.408 Q199.283 582.991 199.283 591.741 Q199.283 600.468 196.204 605.074 Q193.149 609.658 187.338 609.658 Q181.528 609.658 178.45 605.074 Q175.394 600.468 175.394 591.741 Q175.394 582.991 178.45 578.408 Q181.528 573.801 187.338 573.801 Z" fill="#000000" fill-rule="nonzero" fill-opacity="1" /><path clip-path="url(#clip080)" d="M217.5 577.505 Q213.889 577.505 212.061 581.07 Q210.255 584.611 210.255 591.741 Q210.255 598.847 212.061 602.412 Q213.889 605.954 217.5 605.954 Q221.135 605.954 222.94 602.412 Q224.769 598.847 224.769 591.741 Q224.769 584.611 222.94 581.07 Q221.135 577.505 217.5 577.505 M217.5 573.801 Q223.31 573.801 226.366 578.408 Q229.445 582.991 229.445 591.741 Q229.445 600.468 226.366 605.074 Q223.31 609.658 217.5 609.658 Q211.69 609.658 208.612 605.074 Q205.556 600.468 205.556 591.741 Q205.556 582.991 208.612 578.408 Q211.69 573.801 217.5 573.801 Z" fill="#000000" fill-rule="nonzero" fill-opacity="1" /><path clip-path="url(#clip080)" d="M117.061 361.041 L135.417 361.041 L135.417 364.976 L121.343 364.976 L121.343 373.449 Q122.362 373.101 123.38 372.939 Q124.399 372.754 125.418 372.754 Q131.205 372.754 134.584 375.925 Q137.964 379.097 137.964 384.513 Q137.964 390.092 134.492 393.194 Q131.019 396.272 124.7 396.272 Q122.524 396.272 120.255 395.902 Q118.01 395.532 115.603 394.791 L115.603 390.092 Q117.686 391.226 119.908 391.782 Q122.13 392.337 124.607 392.337 Q128.612 392.337 130.95 390.231 Q133.288 388.124 133.288 384.513 Q133.288 380.902 130.95 378.796 Q128.612 376.689 124.607 376.689 Q122.732 376.689 120.857 377.106 Q119.006 377.523 117.061 378.402 L117.061 361.041 Z" fill="#000000" fill-rule="nonzero" fill-opacity="1" /><path clip-path="url(#clip080)" d="M157.177 364.12 Q153.566 364.12 151.737 367.685 Q149.931 371.226 149.931 378.356 Q149.931 385.462 151.737 389.027 Q153.566 392.569 157.177 392.569 Q160.811 392.569 162.616 389.027 Q164.445 385.462 164.445 378.356 Q164.445 371.226 162.616 367.685 Q160.811 364.12 157.177 364.12 M157.177 360.416 Q162.987 360.416 166.042 365.023 Q169.121 369.606 169.121 378.356 Q169.121 387.083 166.042 391.689 Q162.987 396.272 157.177 396.272 Q151.366 396.272 148.288 391.689 Q145.232 387.083 145.232 378.356 Q145.232 369.606 148.288 365.023 Q151.366 360.416 157.177 360.416 Z" fill="#000000" fill-rule="nonzero" fill-opacity="1" /><path clip-path="url(#clip080)" d="M187.338 364.12 Q183.727 364.12 181.899 367.685 Q180.093 371.226 180.093 378.356 Q180.093 385.462 181.899 389.027 Q183.727 392.569 187.338 392.569 Q190.973 392.569 192.778 389.027 Q194.607 385.462 194.607 378.356 Q194.607 371.226 192.778 367.685 Q190.973 364.12 187.338 364.12 M187.338 360.416 Q193.149 360.416 196.204 365.023 Q199.283 369.606 199.283 378.356 Q199.283 387.083 196.204 391.689 Q193.149 396.272 187.338 396.272 Q181.528 396.272 178.45 391.689 Q175.394 387.083 175.394 378.356 Q175.394 369.606 178.45 365.023 Q181.528 360.416 187.338 360.416 Z" fill="#000000" fill-rule="nonzero" fill-opacity="1" /><path clip-path="url(#clip080)" d="M217.5 364.12 Q213.889 364.12 212.061 367.685 Q210.255 371.226 210.255 378.356 Q210.255 385.462 212.061 389.027 Q213.889 392.569 217.5 392.569 Q221.135 392.569 222.94 389.027 Q224.769 385.462 224.769 378.356 Q224.769 371.226 222.94 367.685 Q221.135 364.12 217.5 364.12 M217.5 360.416 Q223.31 360.416 226.366 365.023 Q229.445 369.606 229.445 378.356 Q229.445 387.083 226.366 391.689 Q223.31 396.272 217.5 396.272 Q211.69 396.272 208.612 391.689 Q205.556 387.083 205.556 378.356 Q205.556 369.606 208.612 365.023 Q211.69 360.416 217.5 360.416 Z" fill="#000000" fill-rule="nonzero" fill-opacity="1" /><path clip-path="url(#clip080)" d="M117.061 147.656 L135.417 147.656 L135.417 151.591 L121.343 151.591 L121.343 160.063 Q122.362 159.716 123.38 159.554 Q124.399 159.369 125.418 159.369 Q131.205 159.369 134.584 162.54 Q137.964 165.712 137.964 171.128 Q137.964 176.707 134.492 179.809 Q131.019 182.887 124.7 182.887 Q122.524 182.887 120.255 182.517 Q118.01 182.147 115.603 181.406 L115.603 176.707 Q117.686 177.841 119.908 178.397 Q122.13 178.952 124.607 178.952 Q128.612 178.952 130.95 176.846 Q133.288 174.739 133.288 171.128 Q133.288 167.517 130.95 165.411 Q128.612 163.304 124.607 163.304 Q122.732 163.304 120.857 163.721 Q119.006 164.137 117.061 165.017 L117.061 147.656 Z" fill="#000000" fill-rule="nonzero" fill-opacity="1" /><path clip-path="url(#clip080)" d="M147.223 147.656 L165.579 147.656 L165.579 151.591 L151.505 151.591 L151.505 160.063 Q152.524 159.716 153.542 159.554 Q154.561 159.369 155.579 159.369 Q161.366 159.369 164.746 162.54 Q168.126 165.712 168.126 171.128 Q168.126 176.707 164.653 179.809 Q161.181 182.887 154.862 182.887 Q152.686 182.887 150.417 182.517 Q148.172 182.147 145.765 181.406 L145.765 176.707 Q147.848 177.841 150.07 178.397 Q152.292 178.952 154.769 178.952 Q158.774 178.952 161.112 176.846 Q163.45 174.739 163.45 171.128 Q163.45 167.517 161.112 165.411 Q158.774 163.304 154.769 163.304 Q152.894 163.304 151.019 163.721 Q149.167 164.137 147.223 165.017 L147.223 147.656 Z" fill="#000000" fill-rule="nonzero" fill-opacity="1" /><path clip-path="url(#clip080)" d="M187.338 150.735 Q183.727 150.735 181.899 154.3 Q180.093 157.841 180.093 164.971 Q180.093 172.077 181.899 175.642 Q183.727 179.184 187.338 179.184 Q190.973 179.184 192.778 175.642 Q194.607 172.077 194.607 164.971 Q194.607 157.841 192.778 154.3 Q190.973 150.735 187.338 150.735 M187.338 147.031 Q193.149 147.031 196.204 151.638 Q199.283 156.221 199.283 164.971 Q199.283 173.698 196.204 178.304 Q193.149 182.887 187.338 182.887 Q181.528 182.887 178.45 178.304 Q175.394 173.698 175.394 164.971 Q175.394 156.221 178.45 151.638 Q181.528 147.031 187.338 147.031 Z" fill="#000000" fill-rule="nonzero" fill-opacity="1" /><path clip-path="url(#clip080)" d="M217.5 150.735 Q213.889 150.735 212.061 154.3 Q210.255 157.841 210.255 164.971 Q210.255 172.077 212.061 175.642 Q213.889 179.184 217.5 179.184 Q221.135 179.184 222.94 175.642 Q224.769 172.077 224.769 164.971 Q224.769 157.841 222.94 154.3 Q221.135 150.735 217.5 150.735 M217.5 147.031 Q223.31 147.031 226.366 151.638 Q229.445 156.221 229.445 164.971 Q229.445 173.698 226.366 178.304 Q223.31 182.887 217.5 182.887 Q211.69 182.887 208.612 178.304 Q205.556 173.698 205.556 164.971 Q205.556 156.221 208.612 151.638 Q211.69 147.031 217.5 147.031 Z" fill="#000000" fill-rule="nonzero" fill-opacity="1" /><path clip-path="url(#clip080)" d="M16.4842 850.208 L16.4842 843.779 L64.0042 843.779 L64.0042 850.208 L16.4842 850.208 Z" fill="#000000" fill-rule="nonzero" fill-opacity="1" /><path clip-path="url(#clip080)" d="M42.4881 801.606 L64.0042 801.606 L64.0042 807.463 L42.679 807.463 Q37.6183 807.463 35.1038 809.436 Q32.5894 811.409 32.5894 815.356 Q32.5894 820.099 35.6131 822.836 Q38.6368 825.573 43.8567 825.573 L64.0042 825.573 L64.0042 831.461 L28.3562 831.461 L28.3562 825.573 L33.8944 825.573 Q30.6797 823.472 29.0883 820.64 Q27.4968 817.775 27.4968 814.051 Q27.4968 807.908 31.3163 804.757 Q35.1038 801.606 42.4881 801.606 Z" fill="#000000" fill-rule="nonzero" fill-opacity="1" /><path clip-path="url(#clip080)" d="M29.7248 764.271 L35.1993 764.271 Q33.8307 766.754 33.1623 769.268 Q32.4621 771.751 32.4621 774.297 Q32.4621 779.995 36.0905 783.146 Q39.6872 786.297 46.212 786.297 Q52.7369 786.297 56.3653 783.146 Q59.9619 779.995 59.9619 774.297 Q59.9619 771.751 59.2935 769.268 Q58.5933 766.754 57.2247 764.271 L62.6355 764.271 Q63.7814 766.722 64.3543 769.364 Q64.9272 771.974 64.9272 774.934 Q64.9272 782.987 59.8664 787.729 Q54.8057 792.471 46.212 792.471 Q37.491 792.471 32.4939 787.697 Q27.4968 782.891 27.4968 774.552 Q27.4968 771.847 28.0697 769.268 Q28.6108 766.69 29.7248 764.271 Z" fill="#000000" fill-rule="nonzero" fill-opacity="1" /><path clip-path="url(#clip080)" d="M32.4621 740.273 Q32.4621 744.983 36.1542 747.721 Q39.8145 750.458 46.212 750.458 Q52.6095 750.458 56.3017 747.752 Q59.9619 745.015 59.9619 740.273 Q59.9619 735.594 56.2698 732.857 Q52.5777 730.119 46.212 730.119 Q39.8781 730.119 36.186 732.857 Q32.4621 735.594 32.4621 740.273 M27.4968 740.273 Q27.4968 732.634 32.4621 728.273 Q37.4273 723.913 46.212 723.913 Q54.9649 723.913 59.9619 728.273 Q64.9272 732.634 64.9272 740.273 Q64.9272 747.943 59.9619 752.304 Q54.9649 756.633 46.212 756.633 Q37.4273 756.633 32.4621 752.304 Q27.4968 747.943 27.4968 740.273 Z" fill="#000000" fill-rule="nonzero" fill-opacity="1" /><path clip-path="url(#clip080)" d="M35.1993 686.451 Q31.2526 684.254 29.3747 681.199 Q27.4968 678.143 27.4968 674.006 Q27.4968 668.436 31.4117 665.412 Q35.2948 662.388 42.4881 662.388 L64.0042 662.388 L64.0042 668.277 L42.679 668.277 Q37.5546 668.277 35.072 670.091 Q32.5894 671.905 32.5894 675.629 Q32.5894 680.18 35.6131 682.822 Q38.6368 685.464 43.8567 685.464 L64.0042 685.464 L64.0042 691.352 L42.679 691.352 Q37.5228 691.352 35.072 693.166 Q32.5894 694.981 32.5894 698.768 Q32.5894 703.256 35.6449 705.898 Q38.6686 708.54 43.8567 708.54 L64.0042 708.54 L64.0042 714.428 L28.3562 714.428 L28.3562 708.54 L33.8944 708.54 Q30.616 706.534 29.0564 703.734 Q27.4968 700.933 27.4968 697.081 Q27.4968 693.198 29.4702 690.493 Q31.4436 687.756 35.1993 686.451 Z" fill="#000000" fill-rule="nonzero" fill-opacity="1" /><path clip-path="url(#clip080)" d="M44.7161 620.215 L47.5806 620.215 L47.5806 647.142 Q53.6281 646.76 56.8109 643.514 Q59.9619 640.236 59.9619 634.411 Q59.9619 631.037 59.1344 627.886 Q58.3069 624.703 56.6518 621.584 L62.1899 621.584 Q63.5267 624.735 64.227 628.045 Q64.9272 631.355 64.9272 634.761 Q64.9272 643.291 59.9619 648.288 Q54.9967 653.253 46.5303 653.253 Q37.7774 653.253 32.6531 648.543 Q27.4968 643.8 27.4968 635.78 Q27.4968 628.586 32.1438 624.417 Q36.7589 620.215 44.7161 620.215 M42.9973 626.072 Q38.1912 626.136 35.3266 628.777 Q32.4621 631.387 32.4621 635.716 Q32.4621 640.618 35.2312 643.578 Q38.0002 646.506 43.0292 646.951 L42.9973 626.072 Z" fill="#000000" fill-rule="nonzero" fill-opacity="1" /><circle clip-path="url(#clip082)" cx="1457.44" cy="811.23" r="14.4" fill="#009af9" fill-rule="evenodd" fill-opacity="1" stroke="#000000" stroke-opacity="1" stroke-width="3.2"/>
<circle clip-path="url(#clip082)" cx="2220.05" cy="86.1857" r="14.4" fill="#009af9" fill-rule="evenodd" fill-opacity="1" stroke="#000000" stroke-opacity="1" stroke-width="3.2"/>
<circle clip-path="url(#clip082)" cx="2020.43" cy="413.414" r="14.4" fill="#009af9" fill-rule="evenodd" fill-opacity="1" stroke="#000000" stroke-opacity="1" stroke-width="3.2"/>
<circle clip-path="url(#clip082)" cx="1354.25" cy="899.181" r="14.4" fill="#009af9" fill-rule="evenodd" fill-opacity="1" stroke="#000000" stroke-opacity="1" stroke-width="3.2"/>
<circle clip-path="url(#clip082)" cx="1379.42" cy="1045.53" r="14.4" fill="#009af9" fill-rule="evenodd" fill-opacity="1" stroke="#000000" stroke-opacity="1" stroke-width="3.2"/>
<circle clip-path="url(#clip082)" cx="324.52" cy="1223.49" r="14.4" fill="#009af9" fill-rule="evenodd" fill-opacity="1" stroke="#000000" stroke-opacity="1" stroke-width="3.2"/>
<circle clip-path="url(#clip082)" cx="970.807" cy="1324.26" r="14.4" fill="#009af9" fill-rule="evenodd" fill-opacity="1" stroke="#000000" stroke-opacity="1" stroke-width="3.2"/>
<circle clip-path="url(#clip082)" cx="1778.22" cy="352.789" r="14.4" fill="#009af9" fill-rule="evenodd" fill-opacity="1" stroke="#000000" stroke-opacity="1" stroke-width="3.2"/>
<circle clip-path="url(#clip082)" cx="1200.26" cy="1228.43" r="14.4" fill="#009af9" fill-rule="evenodd" fill-opacity="1" stroke="#000000" stroke-opacity="1" stroke-width="3.2"/>
<circle clip-path="url(#clip082)" cx="1397.52" cy="567.655" r="14.4" fill="#009af9" fill-rule="evenodd" fill-opacity="1" stroke="#000000" stroke-opacity="1" stroke-width="3.2"/>
<circle clip-path="url(#clip082)" cx="2284.42" cy="248.591" r="14.4" fill="#009af9" fill-rule="evenodd" fill-opacity="1" stroke="#000000" stroke-opacity="1" stroke-width="3.2"/>
<circle clip-path="url(#clip082)" cx="1995.54" cy="756.538" r="14.4" fill="#009af9" fill-rule="evenodd" fill-opacity="1" stroke="#000000" stroke-opacity="1" stroke-width="3.2"/>
<circle clip-path="url(#clip082)" cx="1941.8" cy="654.311" r="14.4" fill="#009af9" fill-rule="evenodd" fill-opacity="1" stroke="#000000" stroke-opacity="1" stroke-width="3.2"/>
<circle clip-path="url(#clip082)" cx="510.024" cy="1384.24" r="14.4" fill="#009af9" fill-rule="evenodd" fill-opacity="1" stroke="#000000" stroke-opacity="1" stroke-width="3.2"/>
<circle clip-path="url(#clip082)" cx="1350.46" cy="710.573" r="14.4" fill="#009af9" fill-rule="evenodd" fill-opacity="1" stroke="#000000" stroke-opacity="1" stroke-width="3.2"/>
<circle clip-path="url(#clip082)" cx="1749.15" cy="599.677" r="14.4" fill="#009af9" fill-rule="evenodd" fill-opacity="1" stroke="#000000" stroke-opacity="1" stroke-width="3.2"/>
<circle clip-path="url(#clip082)" cx="673.012" cy="1338" r="14.4" fill="#009af9" fill-rule="evenodd" fill-opacity="1" stroke="#000000" stroke-opacity="1" stroke-width="3.2"/>
<circle clip-path="url(#clip082)" cx="2293.68" cy="479.844" r="14.4" fill="#009af9" fill-rule="evenodd" fill-opacity="1" stroke="#000000" stroke-opacity="1" stroke-width="3.2"/>
<circle clip-path="url(#clip082)" cx="1592.23" cy="529.387" r="14.4" fill="#009af9" fill-rule="evenodd" fill-opacity="1" stroke="#000000" stroke-opacity="1" stroke-width="3.2"/>
<circle clip-path="url(#clip082)" cx="1153.5" cy="1224.42" r="14.4" fill="#009af9" fill-rule="evenodd" fill-opacity="1" stroke="#000000" stroke-opacity="1" stroke-width="3.2"/>
</svg>
