<?xml version="1.0" encoding="utf-8"?>
<svg xmlns="http://www.w3.org/2000/svg" xmlns:xlink="http://www.w3.org/1999/xlink" width="600" height="400" viewBox="0 0 2400 1600">
<defs>
  <clipPath id="clip240">
    <rect x="0" y="0" width="2400" height="1600"/>
  </clipPath>
</defs>
<path clip-path="url(#clip240)" d="M0 1600 L2400 1600 L2400 0 L0 0  Z" fill="#ffffff" fill-rule="evenodd" fill-opacity="1"/>
<defs>
  <clipPath id="clip241">
    <rect x="480" y="0" width="1681" height="1600"/>
  </clipPath>
</defs>
<path clip-path="url(#clip240)" d="M328.437 1360.19 L2289.76 1360.19 L2289.76 110.236 L328.437 110.236  Z" fill="#ffffff" fill-rule="evenodd" fill-opacity="1"/>
<defs>
  <clipPath id="clip242">
    <rect x="328" y="110" width="1962" height="1251"/>
  </clipPath>
</defs>
<polyline clip-path="url(#clip242)" style="stroke:#000000; stroke-linecap:round; stroke-linejoin:round; stroke-width:2; stroke-opacity:0.1; fill:none" points="581.959,1360.19 581.959,110.236 "/>
<polyline clip-path="url(#clip242)" style="stroke:#000000; stroke-linecap:round; stroke-linejoin:round; stroke-width:2; stroke-opacity:0.1; fill:none" points="1021.14,1360.19 1021.14,110.236 "/>
<polyline clip-path="url(#clip242)" style="stroke:#000000; stroke-linecap:round; stroke-linejoin:round; stroke-width:2; stroke-opacity:0.1; fill:none" points="1460.32,1360.19 1460.32,110.236 "/>
<polyline clip-path="url(#clip242)" style="stroke:#000000; stroke-linecap:round; stroke-linejoin:round; stroke-width:2; stroke-opacity:0.1; fill:none" points="1899.49,1360.19 1899.49,110.236 "/>
<polyline clip-path="url(#clip240)" style="stroke:#000000; stroke-linecap:round; stroke-linejoin:round; stroke-width:4; stroke-opacity:1; fill:none" points="328.437,1360.19 2289.76,1360.19 "/>
<polyline clip-path="url(#clip240)" style="stroke:#000000; stroke-linecap:round; stroke-linejoin:round; stroke-width:4; stroke-opacity:1; fill:none" points="581.959,1360.19 581.959,1341.29 "/>
<polyline clip-path="url(#clip240)" style="stroke:#000000; stroke-linecap:round; stroke-linejoin:round; stroke-width:4; stroke-opacity:1; fill:none" points="1021.14,1360.19 1021.14,1341.29 "/>
<polyline clip-path="url(#clip240)" style="stroke:#000000; stroke-linecap:round; stroke-linejoin:round; stroke-width:4; stroke-opacity:1; fill:none" points="1460.32,1360.19 1460.32,1341.29 "/>
<polyline clip-path="url(#clip240)" style="stroke:#000000; stroke-linecap:round; stroke-linejoin:round; stroke-width:4; stroke-opacity:1; fill:none" points="1899.49,1360.19 1899.49,1341.29 "/>
<path clip-path="url(#clip240)" d="M549.123 1388.03 L567.48 1388.03 L567.48 1391.96 L553.406 1391.96 L553.406 1400.44 Q554.424 1400.09 555.443 1399.93 Q556.461 1399.74 557.48 1399.74 Q563.267 1399.74 566.646 1402.91 Q570.026 1406.08 570.026 1411.5 Q570.026 1417.08 566.554 1420.18 Q563.081 1423.26 556.762 1423.26 Q554.586 1423.26 552.318 1422.89 Q550.072 1422.52 547.665 1421.78 L547.665 1417.08 Q549.748 1418.21 551.97 1418.77 Q554.193 1419.32 556.669 1419.32 Q560.674 1419.32 563.012 1417.22 Q565.35 1415.11 565.35 1411.5 Q565.35 1407.89 563.012 1405.78 Q560.674 1403.68 556.669 1403.68 Q554.794 1403.68 552.919 1404.09 Q551.068 1404.51 549.123 1405.39 L549.123 1388.03 Z" fill="#000000" fill-rule="nonzero" fill-opacity="1" /><path clip-path="url(#clip240)" d="M579.239 1416.71 L584.123 1416.71 L584.123 1422.59 L579.239 1422.59 L579.239 1416.71 Z" fill="#000000" fill-rule="nonzero" fill-opacity="1" /><path clip-path="url(#clip240)" d="M604.308 1391.11 Q600.697 1391.11 598.868 1394.67 Q597.063 1398.21 597.063 1405.34 Q597.063 1412.45 598.868 1416.01 Q600.697 1419.56 604.308 1419.56 Q607.942 1419.56 609.748 1416.01 Q611.577 1412.45 611.577 1405.34 Q611.577 1398.21 609.748 1394.67 Q607.942 1391.11 604.308 1391.11 M604.308 1387.4 Q610.118 1387.4 613.174 1392.01 Q616.252 1396.59 616.252 1405.34 Q616.252 1414.07 613.174 1418.68 Q610.118 1423.26 604.308 1423.26 Q598.498 1423.26 595.419 1418.68 Q592.364 1414.07 592.364 1405.34 Q592.364 1396.59 595.419 1392.01 Q598.498 1387.4 604.308 1387.4 Z" fill="#000000" fill-rule="nonzero" fill-opacity="1" /><path clip-path="url(#clip240)" d="M987.457 1388.03 L1009.68 1388.03 L1009.68 1390.02 L997.133 1422.59 L992.249 1422.59 L1004.05 1391.96 L987.457 1391.96 L987.457 1388.03 Z" fill="#000000" fill-rule="nonzero" fill-opacity="1" /><path clip-path="url(#clip240)" d="M1018.8 1416.71 L1023.68 1416.71 L1023.68 1422.59 L1018.8 1422.59 L1018.8 1416.71 Z" fill="#000000" fill-rule="nonzero" fill-opacity="1" /><path clip-path="url(#clip240)" d="M1033.92 1388.03 L1052.27 1388.03 L1052.27 1391.96 L1038.2 1391.96 L1038.2 1400.44 Q1039.22 1400.09 1040.23 1399.93 Q1041.25 1399.74 1042.27 1399.74 Q1048.06 1399.74 1051.44 1402.91 Q1054.82 1406.08 1054.82 1411.5 Q1054.82 1417.08 1051.35 1420.18 Q1047.87 1423.26 1041.55 1423.26 Q1039.38 1423.26 1037.11 1422.89 Q1034.86 1422.52 1032.46 1421.78 L1032.46 1417.08 Q1034.54 1418.21 1036.76 1418.77 Q1038.98 1419.32 1041.46 1419.32 Q1045.47 1419.32 1047.8 1417.22 Q1050.14 1415.11 1050.14 1411.5 Q1050.14 1407.89 1047.8 1405.78 Q1045.47 1403.68 1041.46 1403.68 Q1039.59 1403.68 1037.71 1404.09 Q1035.86 1404.51 1033.92 1405.39 L1033.92 1388.03 Z" fill="#000000" fill-rule="nonzero" fill-opacity="1" /><path clip-path="url(#clip240)" d="M1412.39 1418.65 L1420.03 1418.65 L1420.03 1392.29 L1411.72 1393.95 L1411.72 1389.69 L1419.98 1388.03 L1424.66 1388.03 L1424.66 1418.65 L1432.3 1418.65 L1432.3 1422.59 L1412.39 1422.59 L1412.39 1418.65 Z" fill="#000000" fill-rule="nonzero" fill-opacity="1" /><path clip-path="url(#clip240)" d="M1451.74 1391.11 Q1448.13 1391.11 1446.3 1394.67 Q1444.49 1398.21 1444.49 1405.34 Q1444.49 1412.45 1446.3 1416.01 Q1448.13 1419.56 1451.74 1419.56 Q1455.37 1419.56 1457.18 1416.01 Q1459.01 1412.45 1459.01 1405.34 Q1459.01 1398.21 1457.18 1394.67 Q1455.37 1391.11 1451.74 1391.11 M1451.74 1387.4 Q1457.55 1387.4 1460.61 1392.01 Q1463.68 1396.59 1463.68 1405.34 Q1463.68 1414.07 1460.61 1418.68 Q1457.55 1423.26 1451.74 1423.26 Q1445.93 1423.26 1442.85 1418.68 Q1439.8 1414.07 1439.8 1405.34 Q1439.8 1396.59 1442.85 1392.01 Q1445.93 1387.4 1451.74 1387.4 Z" fill="#000000" fill-rule="nonzero" fill-opacity="1" /><path clip-path="url(#clip240)" d="M1471.9 1416.71 L1476.79 1416.71 L1476.79 1422.59 L1471.9 1422.59 L1471.9 1416.71 Z" fill="#000000" fill-rule="nonzero" fill-opacity="1" /><path clip-path="url(#clip240)" d="M1496.97 1391.11 Q1493.36 1391.11 1491.53 1394.67 Q1489.73 1398.21 1489.73 1405.34 Q1489.73 1412.45 1491.53 1416.01 Q1493.36 1419.56 1496.97 1419.56 Q1500.61 1419.56 1502.41 1416.01 Q1504.24 1412.45 1504.24 1405.34 Q1504.24 1398.21 1502.41 1394.67 Q1500.61 1391.11 1496.97 1391.11 M1496.97 1387.4 Q1502.78 1387.4 1505.84 1392.01 Q1508.92 1396.59 1508.92 1405.34 Q1508.92 1414.07 1505.84 1418.68 Q1502.78 1423.26 1496.97 1423.26 Q1491.16 1423.26 1488.08 1418.68 Q1485.03 1414.07 1485.03 1405.34 Q1485.03 1396.59 1488.08 1392.01 Q1491.16 1387.4 1496.97 1387.4 Z" fill="#000000" fill-rule="nonzero" fill-opacity="1" /><path clip-path="url(#clip240)" d="M1852.06 1418.65 L1859.7 1418.65 L1859.7 1392.29 L1851.39 1393.95 L1851.39 1389.69 L1859.66 1388.03 L1864.33 1388.03 L1864.33 1418.65 L1871.97 1418.65 L1871.97 1422.59 L1852.06 1422.59 L1852.06 1418.65 Z" fill="#000000" fill-rule="nonzero" fill-opacity="1" /><path clip-path="url(#clip240)" d="M1885.44 1418.65 L1901.76 1418.65 L1901.76 1422.59 L1879.82 1422.59 L1879.82 1418.65 Q1882.48 1415.9 1887.06 1411.27 Q1891.67 1406.62 1892.85 1405.27 Q1895.1 1402.75 1895.98 1401.01 Q1896.88 1399.25 1896.88 1397.56 Q1896.88 1394.81 1894.93 1393.07 Q1893.01 1391.34 1889.91 1391.34 Q1887.71 1391.34 1885.26 1392.1 Q1882.83 1392.87 1880.05 1394.42 L1880.05 1389.69 Q1882.87 1388.56 1885.33 1387.98 Q1887.78 1387.4 1889.82 1387.4 Q1895.19 1387.4 1898.38 1390.09 Q1901.58 1392.77 1901.58 1397.26 Q1901.58 1399.39 1900.77 1401.31 Q1899.98 1403.21 1897.87 1405.81 Q1897.3 1406.48 1894.19 1409.69 Q1891.09 1412.89 1885.44 1418.65 Z" fill="#000000" fill-rule="nonzero" fill-opacity="1" /><path clip-path="url(#clip240)" d="M1911.58 1416.71 L1916.46 1416.71 L1916.46 1422.59 L1911.58 1422.59 L1911.58 1416.71 Z" fill="#000000" fill-rule="nonzero" fill-opacity="1" /><path clip-path="url(#clip240)" d="M1926.69 1388.03 L1945.05 1388.03 L1945.05 1391.96 L1930.98 1391.96 L1930.98 1400.44 Q1931.99 1400.09 1933.01 1399.93 Q1934.03 1399.74 1935.05 1399.74 Q1940.84 1399.74 1944.22 1402.91 Q1947.6 1406.08 1947.6 1411.5 Q1947.6 1417.08 1944.12 1420.18 Q1940.65 1423.26 1934.33 1423.26 Q1932.16 1423.26 1929.89 1422.89 Q1927.64 1422.52 1925.24 1421.78 L1925.24 1417.08 Q1927.32 1418.21 1929.54 1418.77 Q1931.76 1419.32 1934.24 1419.32 Q1938.24 1419.32 1940.58 1417.22 Q1942.92 1415.11 1942.92 1411.5 Q1942.92 1407.89 1940.58 1405.78 Q1938.24 1403.68 1934.24 1403.68 Q1932.37 1403.68 1930.49 1404.09 Q1928.64 1404.51 1926.69 1405.39 L1926.69 1388.03 Z" fill="#000000" fill-rule="nonzero" fill-opacity="1" /><path clip-path="url(#clip240)" d="M1152.81 1457.53 L1182.85 1457.53 L1182.85 1462.94 L1159.24 1462.94 L1159.24 1477.01 L1181.87 1477.01 L1181.87 1482.42 L1159.24 1482.42 L1159.24 1499.64 L1183.43 1499.64 L1183.43 1505.05 L1152.81 1505.05 L1152.81 1457.53 Z" fill="#000000" fill-rule="nonzero" fill-opacity="1" /><path clip-path="url(#clip240)" d="M1217.2 1474.81 L1217.2 1455.53 L1223.05 1455.53 L1223.05 1505.05 L1217.2 1505.05 L1217.2 1499.7 Q1215.35 1502.89 1212.52 1504.45 Q1209.72 1505.97 1205.77 1505.97 Q1199.31 1505.97 1195.23 1500.82 Q1191.19 1495.66 1191.19 1487.26 Q1191.19 1478.86 1195.23 1473.7 Q1199.31 1468.54 1205.77 1468.54 Q1209.72 1468.54 1212.52 1470.1 Q1215.35 1471.63 1217.2 1474.81 M1197.24 1487.26 Q1197.24 1493.72 1199.88 1497.41 Q1202.55 1501.07 1207.2 1501.07 Q1211.85 1501.07 1214.52 1497.41 Q1217.2 1493.72 1217.2 1487.26 Q1217.2 1480.8 1214.52 1477.14 Q1211.85 1473.45 1207.2 1473.45 Q1202.55 1473.45 1199.88 1477.14 Q1197.24 1480.8 1197.24 1487.26 Z" fill="#000000" fill-rule="nonzero" fill-opacity="1" /><path clip-path="url(#clip240)" d="M1234.51 1490.98 L1234.51 1469.4 L1240.37 1469.4 L1240.37 1490.76 Q1240.37 1495.82 1242.34 1498.37 Q1244.31 1500.88 1248.26 1500.88 Q1253 1500.88 1255.74 1497.86 Q1258.51 1494.83 1258.51 1489.61 L1258.51 1469.4 L1264.37 1469.4 L1264.37 1505.05 L1258.51 1505.05 L1258.51 1499.58 Q1256.38 1502.82 1253.54 1504.42 Q1250.74 1505.97 1247.02 1505.97 Q1240.88 1505.97 1237.69 1502.16 Q1234.51 1498.34 1234.51 1490.98 M1249.25 1468.54 L1249.25 1468.54 Z" fill="#000000" fill-rule="nonzero" fill-opacity="1" /><path clip-path="url(#clip240)" d="M1302.08 1470.77 L1302.08 1476.25 Q1299.6 1474.88 1297.09 1474.21 Q1294.6 1473.51 1292.06 1473.51 Q1286.36 1473.51 1283.21 1477.14 Q1280.06 1480.73 1280.06 1487.26 Q1280.06 1493.78 1283.21 1497.41 Q1286.36 1501.01 1292.06 1501.01 Q1294.6 1501.01 1297.09 1500.34 Q1299.6 1499.64 1302.08 1498.27 L1302.08 1503.68 Q1299.63 1504.83 1296.99 1505.4 Q1294.38 1505.97 1291.42 1505.97 Q1283.37 1505.97 1278.62 1500.91 Q1273.88 1495.85 1273.88 1487.26 Q1273.88 1478.54 1278.66 1473.54 Q1283.46 1468.54 1291.8 1468.54 Q1294.51 1468.54 1297.09 1469.12 Q1299.66 1469.66 1302.08 1470.77 Z" fill="#000000" fill-rule="nonzero" fill-opacity="1" /><path clip-path="url(#clip240)" d="M1328.47 1487.13 Q1321.37 1487.13 1318.63 1488.76 Q1315.9 1490.38 1315.9 1494.29 Q1315.9 1497.41 1317.93 1499.26 Q1320 1501.07 1323.53 1501.07 Q1328.4 1501.07 1331.33 1497.64 Q1334.29 1494.17 1334.29 1488.44 L1334.29 1487.13 L1328.47 1487.13 M1340.15 1484.71 L1340.15 1505.05 L1334.29 1505.05 L1334.29 1499.64 Q1332.29 1502.89 1329.3 1504.45 Q1326.3 1505.97 1321.97 1505.97 Q1316.5 1505.97 1313.25 1502.92 Q1310.04 1499.83 1310.04 1494.68 Q1310.04 1488.66 1314.05 1485.6 Q1318.09 1482.55 1326.08 1482.55 L1334.29 1482.55 L1334.29 1481.98 Q1334.29 1477.93 1331.62 1475.74 Q1328.98 1473.51 1324.17 1473.51 Q1321.12 1473.51 1318.22 1474.24 Q1315.32 1474.97 1312.65 1476.44 L1312.65 1471.03 Q1315.86 1469.79 1318.89 1469.18 Q1321.91 1468.54 1324.78 1468.54 Q1332.51 1468.54 1336.33 1472.55 Q1340.15 1476.57 1340.15 1484.71 Z" fill="#000000" fill-rule="nonzero" fill-opacity="1" /><path clip-path="url(#clip240)" d="M1358 1459.28 L1358 1469.4 L1370.07 1469.4 L1370.07 1473.96 L1358 1473.96 L1358 1493.31 Q1358 1497.67 1359.18 1498.91 Q1360.39 1500.15 1364.05 1500.15 L1370.07 1500.15 L1370.07 1505.05 L1364.05 1505.05 Q1357.27 1505.05 1354.69 1502.54 Q1352.12 1499.99 1352.12 1493.31 L1352.12 1473.96 L1347.82 1473.96 L1347.82 1469.4 L1352.12 1469.4 L1352.12 1459.28 L1358 1459.28 Z" fill="#000000" fill-rule="nonzero" fill-opacity="1" /><path clip-path="url(#clip240)" d="M1377.77 1469.4 L1383.63 1469.4 L1383.63 1505.05 L1377.77 1505.05 L1377.77 1469.4 M1377.77 1455.53 L1383.63 1455.53 L1383.63 1462.94 L1377.77 1462.94 L1377.77 1455.53 Z" fill="#000000" fill-rule="nonzero" fill-opacity="1" /><path clip-path="url(#clip240)" d="M1409.69 1473.51 Q1404.98 1473.51 1402.25 1477.2 Q1399.51 1480.86 1399.51 1487.26 Q1399.51 1493.66 1402.21 1497.35 Q1404.95 1501.01 1409.69 1501.01 Q1414.37 1501.01 1417.11 1497.32 Q1419.85 1493.63 1419.85 1487.26 Q1419.85 1480.93 1417.11 1477.23 Q1414.37 1473.51 1409.69 1473.51 M1409.69 1468.54 Q1417.33 1468.54 1421.69 1473.51 Q1426.05 1478.47 1426.05 1487.26 Q1426.05 1496.01 1421.69 1501.01 Q1417.33 1505.97 1409.69 1505.97 Q1402.02 1505.97 1397.66 1501.01 Q1393.33 1496.01 1393.33 1487.26 Q1393.33 1478.47 1397.66 1473.51 Q1402.02 1468.54 1409.69 1468.54 Z" fill="#000000" fill-rule="nonzero" fill-opacity="1" /><path clip-path="url(#clip240)" d="M1465.39 1483.54 L1465.39 1505.05 L1459.54 1505.05 L1459.54 1483.73 Q1459.54 1478.67 1457.56 1476.15 Q1455.59 1473.64 1451.64 1473.64 Q1446.9 1473.64 1444.16 1476.66 Q1441.43 1479.68 1441.43 1484.9 L1441.43 1505.05 L1435.54 1505.05 L1435.54 1469.4 L1441.43 1469.4 L1441.43 1474.94 Q1443.53 1471.73 1446.36 1470.14 Q1449.23 1468.54 1452.95 1468.54 Q1459.09 1468.54 1462.24 1472.36 Q1465.39 1476.15 1465.39 1483.54 Z" fill="#000000" fill-rule="nonzero" fill-opacity="1" /><polyline clip-path="url(#clip242)" style="stroke:#000000; stroke-linecap:round; stroke-linejoin:round; stroke-width:2; stroke-opacity:0.1; fill:none" points="328.437,1186.39 2289.76,1186.39 "/>
<polyline clip-path="url(#clip242)" style="stroke:#000000; stroke-linecap:round; stroke-linejoin:round; stroke-width:2; stroke-opacity:0.1; fill:none" points="328.437,992.54 2289.76,992.54 "/>
<polyline clip-path="url(#clip242)" style="stroke:#000000; stroke-linecap:round; stroke-linejoin:round; stroke-width:2; stroke-opacity:0.1; fill:none" points="328.437,798.693 2289.76,798.693 "/>
<polyline clip-path="url(#clip242)" style="stroke:#000000; stroke-linecap:round; stroke-linejoin:round; stroke-width:2; stroke-opacity:0.1; fill:none" points="328.437,604.846 2289.76,604.846 "/>
<polyline clip-path="url(#clip242)" style="stroke:#000000; stroke-linecap:round; stroke-linejoin:round; stroke-width:2; stroke-opacity:0.1; fill:none" points="328.437,410.999 2289.76,410.999 "/>
<polyline clip-path="url(#clip242)" style="stroke:#000000; stroke-linecap:round; stroke-linejoin:round; stroke-width:2; stroke-opacity:0.1; fill:none" points="328.437,217.152 2289.76,217.152 "/>
<polyline clip-path="url(#clip240)" style="stroke:#000000; stroke-linecap:round; stroke-linejoin:round; stroke-width:4; stroke-opacity:1; fill:none" points="328.437,1360.19 328.437,110.236 "/>
<polyline clip-path="url(#clip240)" style="stroke:#000000; stroke-linecap:round; stroke-linejoin:round; stroke-width:4; stroke-opacity:1; fill:none" points="328.437,1186.39 347.334,1186.39 "/>
<polyline clip-path="url(#clip240)" style="stroke:#000000; stroke-linecap:round; stroke-linejoin:round; stroke-width:4; stroke-opacity:1; fill:none" points="328.437,992.54 347.334,992.54 "/>
<polyline clip-path="url(#clip240)" style="stroke:#000000; stroke-linecap:round; stroke-linejoin:round; stroke-width:4; stroke-opacity:1; fill:none" points="328.437,798.693 347.334,798.693 "/>
<polyline clip-path="url(#clip240)" style="stroke:#000000; stroke-linecap:round; stroke-linejoin:round; stroke-width:4; stroke-opacity:1; fill:none" points="328.437,604.846 347.334,604.846 "/>
<polyline clip-path="url(#clip240)" style="stroke:#000000; stroke-linecap:round; stroke-linejoin:round; stroke-width:4; stroke-opacity:1; fill:none" points="328.437,410.999 347.334,410.999 "/>
<polyline clip-path="url(#clip240)" style="stroke:#000000; stroke-linecap:round; stroke-linejoin:round; stroke-width:4; stroke-opacity:1; fill:none" points="328.437,217.152 347.334,217.152 "/>
<path clip-path="url(#clip240)" d="M194.173 1185.03 Q197.53 1185.75 199.405 1188.02 Q201.303 1190.29 201.303 1193.62 Q201.303 1198.74 197.785 1201.54 Q194.266 1204.34 187.785 1204.34 Q185.609 1204.34 183.294 1203.9 Q181.002 1203.48 178.549 1202.63 L178.549 1198.11 Q180.493 1199.25 182.808 1199.82 Q185.123 1200.4 187.646 1200.4 Q192.044 1200.4 194.336 1198.67 Q196.65 1196.93 196.65 1193.62 Q196.65 1190.57 194.498 1188.85 Q192.368 1187.12 188.549 1187.12 L184.521 1187.12 L184.521 1183.27 L188.734 1183.27 Q192.183 1183.27 194.011 1181.91 Q195.84 1180.52 195.84 1177.93 Q195.84 1175.26 193.942 1173.85 Q192.067 1172.42 188.549 1172.42 Q186.627 1172.42 184.428 1172.83 Q182.229 1173.25 179.59 1174.13 L179.59 1169.96 Q182.252 1169.22 184.567 1168.85 Q186.905 1168.48 188.965 1168.48 Q194.289 1168.48 197.391 1170.91 Q200.493 1173.32 200.493 1177.44 Q200.493 1180.31 198.849 1182.3 Q197.206 1184.27 194.173 1185.03 Z" fill="#000000" fill-rule="nonzero" fill-opacity="1" /><path clip-path="url(#clip240)" d="M220.169 1172.19 Q216.558 1172.19 214.729 1175.75 Q212.923 1179.29 212.923 1186.42 Q212.923 1193.53 214.729 1197.09 Q216.558 1200.63 220.169 1200.63 Q223.803 1200.63 225.609 1197.09 Q227.437 1193.53 227.437 1186.42 Q227.437 1179.29 225.609 1175.75 Q223.803 1172.19 220.169 1172.19 M220.169 1168.48 Q225.979 1168.48 229.034 1173.09 Q232.113 1177.67 232.113 1186.42 Q232.113 1195.15 229.034 1199.76 Q225.979 1204.34 220.169 1204.34 Q214.359 1204.34 211.28 1199.76 Q208.224 1195.15 208.224 1186.42 Q208.224 1177.67 211.28 1173.09 Q214.359 1168.48 220.169 1168.48 Z" fill="#000000" fill-rule="nonzero" fill-opacity="1" /><path clip-path="url(#clip240)" d="M250.331 1172.19 Q246.72 1172.19 244.891 1175.75 Q243.085 1179.29 243.085 1186.42 Q243.085 1193.53 244.891 1197.09 Q246.72 1200.63 250.331 1200.63 Q253.965 1200.63 255.77 1197.09 Q257.599 1193.53 257.599 1186.42 Q257.599 1179.29 255.77 1175.75 Q253.965 1172.19 250.331 1172.19 M250.331 1168.48 Q256.141 1168.48 259.196 1173.09 Q262.275 1177.67 262.275 1186.42 Q262.275 1195.15 259.196 1199.76 Q256.141 1204.34 250.331 1204.34 Q244.52 1204.34 241.442 1199.76 Q238.386 1195.15 238.386 1186.42 Q238.386 1177.67 241.442 1173.09 Q244.52 1168.48 250.331 1168.48 Z" fill="#000000" fill-rule="nonzero" fill-opacity="1" /><path clip-path="url(#clip240)" d="M280.492 1172.19 Q276.881 1172.19 275.053 1175.75 Q273.247 1179.29 273.247 1186.42 Q273.247 1193.53 275.053 1197.09 Q276.881 1200.63 280.492 1200.63 Q284.127 1200.63 285.932 1197.09 Q287.761 1193.53 287.761 1186.42 Q287.761 1179.29 285.932 1175.75 Q284.127 1172.19 280.492 1172.19 M280.492 1168.48 Q286.303 1168.48 289.358 1173.09 Q292.437 1177.67 292.437 1186.42 Q292.437 1195.15 289.358 1199.76 Q286.303 1204.34 280.492 1204.34 Q274.682 1204.34 271.604 1199.76 Q268.548 1195.15 268.548 1186.42 Q268.548 1177.67 271.604 1173.09 Q274.682 1168.48 280.492 1168.48 Z" fill="#000000" fill-rule="nonzero" fill-opacity="1" /><path clip-path="url(#clip240)" d="M194.173 991.186 Q197.53 991.904 199.405 994.172 Q201.303 996.441 201.303 999.774 Q201.303 1004.89 197.785 1007.69 Q194.266 1010.49 187.785 1010.49 Q185.609 1010.49 183.294 1010.05 Q181.002 1009.63 178.549 1008.78 L178.549 1004.26 Q180.493 1005.4 182.808 1005.98 Q185.123 1006.56 187.646 1006.56 Q192.044 1006.56 194.336 1004.82 Q196.65 1003.08 196.65 999.774 Q196.65 996.718 194.498 995.005 Q192.368 993.269 188.549 993.269 L184.521 993.269 L184.521 989.427 L188.734 989.427 Q192.183 989.427 194.011 988.061 Q195.84 986.672 195.84 984.08 Q195.84 981.418 193.942 980.005 Q192.067 978.57 188.549 978.57 Q186.627 978.57 184.428 978.987 Q182.229 979.404 179.59 980.283 L179.59 976.117 Q182.252 975.376 184.567 975.006 Q186.905 974.635 188.965 974.635 Q194.289 974.635 197.391 977.066 Q200.493 979.473 200.493 983.593 Q200.493 986.464 198.849 988.455 Q197.206 990.422 194.173 991.186 Z" fill="#000000" fill-rule="nonzero" fill-opacity="1" /><path clip-path="url(#clip240)" d="M210.215 975.26 L228.571 975.26 L228.571 979.195 L214.497 979.195 L214.497 987.667 Q215.516 987.32 216.534 987.158 Q217.553 986.973 218.572 986.973 Q224.359 986.973 227.738 990.144 Q231.118 993.316 231.118 998.732 Q231.118 1004.31 227.646 1007.41 Q224.173 1010.49 217.854 1010.49 Q215.678 1010.49 213.409 1010.12 Q211.164 1009.75 208.757 1009.01 L208.757 1004.31 Q210.84 1005.45 213.062 1006 Q215.284 1006.56 217.761 1006.56 Q221.766 1006.56 224.104 1004.45 Q226.442 1002.34 226.442 998.732 Q226.442 995.121 224.104 993.015 Q221.766 990.908 217.761 990.908 Q215.886 990.908 214.011 991.325 Q212.16 991.742 210.215 992.621 L210.215 975.26 Z" fill="#000000" fill-rule="nonzero" fill-opacity="1" /><path clip-path="url(#clip240)" d="M250.331 978.339 Q246.72 978.339 244.891 981.904 Q243.085 985.445 243.085 992.575 Q243.085 999.681 244.891 1003.25 Q246.72 1006.79 250.331 1006.79 Q253.965 1006.79 255.77 1003.25 Q257.599 999.681 257.599 992.575 Q257.599 985.445 255.77 981.904 Q253.965 978.339 250.331 978.339 M250.331 974.635 Q256.141 974.635 259.196 979.242 Q262.275 983.825 262.275 992.575 Q262.275 1001.3 259.196 1005.91 Q256.141 1010.49 250.331 1010.49 Q244.52 1010.49 241.442 1005.91 Q238.386 1001.3 238.386 992.575 Q238.386 983.825 241.442 979.242 Q244.52 974.635 250.331 974.635 Z" fill="#000000" fill-rule="nonzero" fill-opacity="1" /><path clip-path="url(#clip240)" d="M280.492 978.339 Q276.881 978.339 275.053 981.904 Q273.247 985.445 273.247 992.575 Q273.247 999.681 275.053 1003.25 Q276.881 1006.79 280.492 1006.79 Q284.127 1006.79 285.932 1003.25 Q287.761 999.681 287.761 992.575 Q287.761 985.445 285.932 981.904 Q284.127 978.339 280.492 978.339 M280.492 974.635 Q286.303 974.635 289.358 979.242 Q292.437 983.825 292.437 992.575 Q292.437 1001.3 289.358 1005.91 Q286.303 1010.49 280.492 1010.49 Q274.682 1010.49 271.604 1005.91 Q268.548 1001.3 268.548 992.575 Q268.548 983.825 271.604 979.242 Q274.682 974.635 280.492 974.635 Z" fill="#000000" fill-rule="nonzero" fill-opacity="1" /><path clip-path="url(#clip240)" d="M192.854 785.487 L181.049 803.936 L192.854 803.936 L192.854 785.487 M191.627 781.413 L197.507 781.413 L197.507 803.936 L202.437 803.936 L202.437 807.825 L197.507 807.825 L197.507 815.973 L192.854 815.973 L192.854 807.825 L177.252 807.825 L177.252 803.311 L191.627 781.413 Z" fill="#000000" fill-rule="nonzero" fill-opacity="1" /><path clip-path="url(#clip240)" d="M220.169 784.492 Q216.558 784.492 214.729 788.057 Q212.923 791.598 212.923 798.728 Q212.923 805.834 214.729 809.399 Q216.558 812.941 220.169 812.941 Q223.803 812.941 225.609 809.399 Q227.437 805.834 227.437 798.728 Q227.437 791.598 225.609 788.057 Q223.803 784.492 220.169 784.492 M220.169 780.788 Q225.979 780.788 229.034 785.395 Q232.113 789.978 232.113 798.728 Q232.113 807.455 229.034 812.061 Q225.979 816.644 220.169 816.644 Q214.359 816.644 211.28 812.061 Q208.224 807.455 208.224 798.728 Q208.224 789.978 211.28 785.395 Q214.359 780.788 220.169 780.788 Z" fill="#000000" fill-rule="nonzero" fill-opacity="1" /><path clip-path="url(#clip240)" d="M250.331 784.492 Q246.72 784.492 244.891 788.057 Q243.085 791.598 243.085 798.728 Q243.085 805.834 244.891 809.399 Q246.72 812.941 250.331 812.941 Q253.965 812.941 255.77 809.399 Q257.599 805.834 257.599 798.728 Q257.599 791.598 255.77 788.057 Q253.965 784.492 250.331 784.492 M250.331 780.788 Q256.141 780.788 259.196 785.395 Q262.275 789.978 262.275 798.728 Q262.275 807.455 259.196 812.061 Q256.141 816.644 250.331 816.644 Q244.52 816.644 241.442 812.061 Q238.386 807.455 238.386 798.728 Q238.386 789.978 241.442 785.395 Q244.52 780.788 250.331 780.788 Z" fill="#000000" fill-rule="nonzero" fill-opacity="1" /><path clip-path="url(#clip240)" d="M280.492 784.492 Q276.881 784.492 275.053 788.057 Q273.247 791.598 273.247 798.728 Q273.247 805.834 275.053 809.399 Q276.881 812.941 280.492 812.941 Q284.127 812.941 285.932 809.399 Q287.761 805.834 287.761 798.728 Q287.761 791.598 285.932 788.057 Q284.127 784.492 280.492 784.492 M280.492 780.788 Q286.303 780.788 289.358 785.395 Q292.437 789.978 292.437 798.728 Q292.437 807.455 289.358 812.061 Q286.303 816.644 280.492 816.644 Q274.682 816.644 271.604 812.061 Q268.548 807.455 268.548 798.728 Q268.548 789.978 271.604 785.395 Q274.682 780.788 280.492 780.788 Z" fill="#000000" fill-rule="nonzero" fill-opacity="1" /><path clip-path="url(#clip240)" d="M192.854 591.64 L181.049 610.089 L192.854 610.089 L192.854 591.64 M191.627 587.566 L197.507 587.566 L197.507 610.089 L202.437 610.089 L202.437 613.978 L197.507 613.978 L197.507 622.126 L192.854 622.126 L192.854 613.978 L177.252 613.978 L177.252 609.464 L191.627 587.566 Z" fill="#000000" fill-rule="nonzero" fill-opacity="1" /><path clip-path="url(#clip240)" d="M210.215 587.566 L228.571 587.566 L228.571 591.501 L214.497 591.501 L214.497 599.973 Q215.516 599.626 216.534 599.464 Q217.553 599.279 218.572 599.279 Q224.359 599.279 227.738 602.45 Q231.118 605.622 231.118 611.038 Q231.118 616.617 227.646 619.719 Q224.173 622.797 217.854 622.797 Q215.678 622.797 213.409 622.427 Q211.164 622.057 208.757 621.316 L208.757 616.617 Q210.84 617.751 213.062 618.307 Q215.284 618.862 217.761 618.862 Q221.766 618.862 224.104 616.756 Q226.442 614.649 226.442 611.038 Q226.442 607.427 224.104 605.321 Q221.766 603.214 217.761 603.214 Q215.886 603.214 214.011 603.631 Q212.16 604.047 210.215 604.927 L210.215 587.566 Z" fill="#000000" fill-rule="nonzero" fill-opacity="1" /><path clip-path="url(#clip240)" d="M250.331 590.645 Q246.72 590.645 244.891 594.21 Q243.085 597.751 243.085 604.881 Q243.085 611.987 244.891 615.552 Q246.72 619.094 250.331 619.094 Q253.965 619.094 255.77 615.552 Q257.599 611.987 257.599 604.881 Q257.599 597.751 255.77 594.21 Q253.965 590.645 250.331 590.645 M250.331 586.941 Q256.141 586.941 259.196 591.548 Q262.275 596.131 262.275 604.881 Q262.275 613.608 259.196 618.214 Q256.141 622.797 250.331 622.797 Q244.52 622.797 241.442 618.214 Q238.386 613.608 238.386 604.881 Q238.386 596.131 241.442 591.548 Q244.52 586.941 250.331 586.941 Z" fill="#000000" fill-rule="nonzero" fill-opacity="1" /><path clip-path="url(#clip240)" d="M280.492 590.645 Q276.881 590.645 275.053 594.21 Q273.247 597.751 273.247 604.881 Q273.247 611.987 275.053 615.552 Q276.881 619.094 280.492 619.094 Q284.127 619.094 285.932 615.552 Q287.761 611.987 287.761 604.881 Q287.761 597.751 285.932 594.21 Q284.127 590.645 280.492 590.645 M280.492 586.941 Q286.303 586.941 289.358 591.548 Q292.437 596.131 292.437 604.881 Q292.437 613.608 289.358 618.214 Q286.303 622.797 280.492 622.797 Q274.682 622.797 271.604 618.214 Q268.548 613.608 268.548 604.881 Q268.548 596.131 271.604 591.548 Q274.682 586.941 280.492 586.941 Z" fill="#000000" fill-rule="nonzero" fill-opacity="1" /><path clip-path="url(#clip240)" d="M180.053 393.719 L198.41 393.719 L198.41 397.654 L184.336 397.654 L184.336 406.126 Q185.354 405.779 186.373 405.617 Q187.391 405.432 188.41 405.432 Q194.197 405.432 197.576 408.603 Q200.956 411.774 200.956 417.191 Q200.956 422.77 197.484 425.872 Q194.011 428.95 187.692 428.95 Q185.516 428.95 183.248 428.58 Q181.002 428.21 178.595 427.469 L178.595 422.77 Q180.678 423.904 182.9 424.46 Q185.123 425.015 187.599 425.015 Q191.604 425.015 193.942 422.909 Q196.28 420.802 196.28 417.191 Q196.28 413.58 193.942 411.474 Q191.604 409.367 187.599 409.367 Q185.724 409.367 183.849 409.784 Q181.998 410.2 180.053 411.08 L180.053 393.719 Z" fill="#000000" fill-rule="nonzero" fill-opacity="1" /><path clip-path="url(#clip240)" d="M220.169 396.798 Q216.558 396.798 214.729 400.363 Q212.923 403.904 212.923 411.034 Q212.923 418.14 214.729 421.705 Q216.558 425.247 220.169 425.247 Q223.803 425.247 225.609 421.705 Q227.437 418.14 227.437 411.034 Q227.437 403.904 225.609 400.363 Q223.803 396.798 220.169 396.798 M220.169 393.094 Q225.979 393.094 229.034 397.7 Q232.113 402.284 232.113 411.034 Q232.113 419.761 229.034 424.367 Q225.979 428.95 220.169 428.95 Q214.359 428.95 211.28 424.367 Q208.224 419.761 208.224 411.034 Q208.224 402.284 211.28 397.7 Q214.359 393.094 220.169 393.094 Z" fill="#000000" fill-rule="nonzero" fill-opacity="1" /><path clip-path="url(#clip240)" d="M250.331 396.798 Q246.72 396.798 244.891 400.363 Q243.085 403.904 243.085 411.034 Q243.085 418.14 244.891 421.705 Q246.72 425.247 250.331 425.247 Q253.965 425.247 255.77 421.705 Q257.599 418.14 257.599 411.034 Q257.599 403.904 255.77 400.363 Q253.965 396.798 250.331 396.798 M250.331 393.094 Q256.141 393.094 259.196 397.7 Q262.275 402.284 262.275 411.034 Q262.275 419.761 259.196 424.367 Q256.141 428.95 250.331 428.95 Q244.52 428.95 241.442 424.367 Q238.386 419.761 238.386 411.034 Q238.386 402.284 241.442 397.7 Q244.52 393.094 250.331 393.094 Z" fill="#000000" fill-rule="nonzero" fill-opacity="1" /><path clip-path="url(#clip240)" d="M280.492 396.798 Q276.881 396.798 275.053 400.363 Q273.247 403.904 273.247 411.034 Q273.247 418.14 275.053 421.705 Q276.881 425.247 280.492 425.247 Q284.127 425.247 285.932 421.705 Q287.761 418.14 287.761 411.034 Q287.761 403.904 285.932 400.363 Q284.127 396.798 280.492 396.798 M280.492 393.094 Q286.303 393.094 289.358 397.7 Q292.437 402.284 292.437 411.034 Q292.437 419.761 289.358 424.367 Q286.303 428.95 280.492 428.95 Q274.682 428.95 271.604 424.367 Q268.548 419.761 268.548 411.034 Q268.548 402.284 271.604 397.7 Q274.682 393.094 280.492 393.094 Z" fill="#000000" fill-rule="nonzero" fill-opacity="1" /><path clip-path="url(#clip240)" d="M180.053 199.872 L198.41 199.872 L198.41 203.807 L184.336 203.807 L184.336 212.279 Q185.354 211.932 186.373 211.77 Q187.391 211.585 188.41 211.585 Q194.197 211.585 197.576 214.756 Q200.956 217.927 200.956 223.344 Q200.956 228.923 197.484 232.025 Q194.011 235.103 187.692 235.103 Q185.516 235.103 183.248 234.733 Q181.002 234.363 178.595 233.622 L178.595 228.923 Q180.678 230.057 182.9 230.613 Q185.123 231.168 187.599 231.168 Q191.604 231.168 193.942 229.062 Q196.28 226.955 196.28 223.344 Q196.28 219.733 193.942 217.627 Q191.604 215.52 187.599 215.52 Q185.724 215.52 183.849 215.937 Q181.998 216.353 180.053 217.233 L180.053 199.872 Z" fill="#000000" fill-rule="nonzero" fill-opacity="1" /><path clip-path="url(#clip240)" d="M210.215 199.872 L228.571 199.872 L228.571 203.807 L214.497 203.807 L214.497 212.279 Q215.516 211.932 216.534 211.77 Q217.553 211.585 218.572 211.585 Q224.359 211.585 227.738 214.756 Q231.118 217.927 231.118 223.344 Q231.118 228.923 227.646 232.025 Q224.173 235.103 217.854 235.103 Q215.678 235.103 213.409 234.733 Q211.164 234.363 208.757 233.622 L208.757 228.923 Q210.84 230.057 213.062 230.613 Q215.284 231.168 217.761 231.168 Q221.766 231.168 224.104 229.062 Q226.442 226.955 226.442 223.344 Q226.442 219.733 224.104 217.627 Q221.766 215.52 217.761 215.52 Q215.886 215.52 214.011 215.937 Q212.16 216.353 210.215 217.233 L210.215 199.872 Z" fill="#000000" fill-rule="nonzero" fill-opacity="1" /><path clip-path="url(#clip240)" d="M250.331 202.951 Q246.72 202.951 244.891 206.515 Q243.085 210.057 243.085 217.187 Q243.085 224.293 244.891 227.858 Q246.72 231.4 250.331 231.4 Q253.965 231.4 255.77 227.858 Q257.599 224.293 257.599 217.187 Q257.599 210.057 255.77 206.515 Q253.965 202.951 250.331 202.951 M250.331 199.247 Q256.141 199.247 259.196 203.853 Q262.275 208.437 262.275 217.187 Q262.275 225.914 259.196 230.52 Q256.141 235.103 250.331 235.103 Q244.52 235.103 241.442 230.52 Q238.386 225.914 238.386 217.187 Q238.386 208.437 241.442 203.853 Q244.52 199.247 250.331 199.247 Z" fill="#000000" fill-rule="nonzero" fill-opacity="1" /><path clip-path="url(#clip240)" d="M280.492 202.951 Q276.881 202.951 275.053 206.515 Q273.247 210.057 273.247 217.187 Q273.247 224.293 275.053 227.858 Q276.881 231.4 280.492 231.4 Q284.127 231.4 285.932 227.858 Q287.761 224.293 287.761 217.187 Q287.761 210.057 285.932 206.515 Q284.127 202.951 280.492 202.951 M280.492 199.247 Q286.303 199.247 289.358 203.853 Q292.437 208.437 292.437 217.187 Q292.437 225.914 289.358 230.52 Q286.303 235.103 280.492 235.103 Q274.682 235.103 271.604 230.52 Q268.548 225.914 268.548 217.187 Q268.548 208.437 271.604 203.853 Q274.682 199.247 280.492 199.247 Z" fill="#000000" fill-rule="nonzero" fill-opacity="1" /><path clip-path="url(#clip240)" d="M79.4763 850.208 L79.4763 843.779 L126.996 843.779 L126.996 850.208 L79.4763 850.208 Z" fill="#000000" fill-rule="nonzero" fill-opacity="1" /><path clip-path="url(#clip240)" d="M105.48 801.606 L126.996 801.606 L126.996 807.463 L105.671 807.463 Q100.61 807.463 98.096 809.436 Q95.5815 811.409 95.5815 815.356 Q95.5815 820.099 98.6052 822.836 Q101.629 825.573 106.849 825.573 L126.996 825.573 L126.996 831.461 L91.3483 831.461 L91.3483 825.573 L96.8865 825.573 Q93.6718 823.472 92.0804 820.64 Q90.489 817.775 90.489 814.051 Q90.489 807.908 94.3084 804.757 Q98.096 801.606 105.48 801.606 Z" fill="#000000" fill-rule="nonzero" fill-opacity="1" /><path clip-path="url(#clip240)" d="M92.717 764.271 L98.1915 764.271 Q96.8228 766.754 96.1544 769.268 Q95.4542 771.751 95.4542 774.297 Q95.4542 779.995 99.0827 783.146 Q102.679 786.297 109.204 786.297 Q115.729 786.297 119.357 783.146 Q122.954 779.995 122.954 774.297 Q122.954 771.751 122.286 769.268 Q121.585 766.754 120.217 764.271 L125.628 764.271 Q126.773 766.722 127.346 769.364 Q127.919 771.974 127.919 774.934 Q127.919 782.987 122.859 787.729 Q117.798 792.471 109.204 792.471 Q100.483 792.471 95.486 787.697 Q90.489 782.891 90.489 774.552 Q90.489 771.847 91.0619 769.268 Q91.603 766.69 92.717 764.271 Z" fill="#000000" fill-rule="nonzero" fill-opacity="1" /><path clip-path="url(#clip240)" d="M95.4542 740.273 Q95.4542 744.983 99.1463 747.721 Q102.807 750.458 109.204 750.458 Q115.602 750.458 119.294 747.752 Q122.954 745.015 122.954 740.273 Q122.954 735.594 119.262 732.857 Q115.57 730.119 109.204 730.119 Q102.87 730.119 99.1781 732.857 Q95.4542 735.594 95.4542 740.273 M90.489 740.273 Q90.489 732.634 95.4542 728.273 Q100.419 723.913 109.204 723.913 Q117.957 723.913 122.954 728.273 Q127.919 732.634 127.919 740.273 Q127.919 747.943 122.954 752.304 Q117.957 756.633 109.204 756.633 Q100.419 756.633 95.4542 752.304 Q90.489 747.943 90.489 740.273 Z" fill="#000000" fill-rule="nonzero" fill-opacity="1" /><path clip-path="url(#clip240)" d="M98.1915 686.451 Q94.2447 684.254 92.3668 681.199 Q90.489 678.143 90.489 674.006 Q90.489 668.436 94.4039 665.412 Q98.2869 662.388 105.48 662.388 L126.996 662.388 L126.996 668.277 L105.671 668.277 Q100.547 668.277 98.0641 670.091 Q95.5815 671.905 95.5815 675.629 Q95.5815 680.18 98.6052 682.822 Q101.629 685.464 106.849 685.464 L126.996 685.464 L126.996 691.352 L105.671 691.352 Q100.515 691.352 98.0641 693.166 Q95.5815 694.981 95.5815 698.768 Q95.5815 703.256 98.6371 705.898 Q101.661 708.54 106.849 708.54 L126.996 708.54 L126.996 714.428 L91.3483 714.428 L91.3483 708.54 L96.8865 708.54 Q93.6082 706.534 92.0486 703.734 Q90.489 700.933 90.489 697.081 Q90.489 693.198 92.4623 690.493 Q94.4357 687.756 98.1915 686.451 Z" fill="#000000" fill-rule="nonzero" fill-opacity="1" /><path clip-path="url(#clip240)" d="M107.708 620.215 L110.573 620.215 L110.573 647.142 Q116.62 646.76 119.803 643.514 Q122.954 640.236 122.954 634.411 Q122.954 631.037 122.127 627.886 Q121.299 624.703 119.644 621.584 L125.182 621.584 Q126.519 624.735 127.219 628.045 Q127.919 631.355 127.919 634.761 Q127.919 643.291 122.954 648.288 Q117.989 653.253 109.522 653.253 Q100.77 653.253 95.6452 648.543 Q90.489 643.8 90.489 635.78 Q90.489 628.586 95.1359 624.417 Q99.7511 620.215 107.708 620.215 M105.989 626.072 Q101.183 626.136 98.3188 628.777 Q95.4542 631.387 95.4542 635.716 Q95.4542 640.618 98.2233 643.578 Q100.992 646.506 106.021 646.951 L105.989 626.072 Z" fill="#000000" fill-rule="nonzero" fill-opacity="1" /><circle clip-path="url(#clip242)" cx="1448.49" cy="804.27" r="14.4" fill="#009af9" fill-rule="evenodd" fill-opacity="1" stroke="#000000" stroke-opacity="1" stroke-width="3.2"/>
<circle clip-path="url(#clip242)" cx="2165.07" cy="145.612" r="14.4" fill="#009af9" fill-rule="evenodd" fill-opacity="1" stroke="#000000" stroke-opacity="1" stroke-width="3.2"/>
<circle clip-path="url(#clip242)" cx="1977.5" cy="442.879" r="14.4" fill="#009af9" fill-rule="evenodd" fill-opacity="1" stroke="#000000" stroke-opacity="1" stroke-width="3.2"/>
<circle clip-path="url(#clip242)" cx="1351.52" cy="884.168" r="14.4" fill="#009af9" fill-rule="evenodd" fill-opacity="1" stroke="#000000" stroke-opacity="1" stroke-width="3.2"/>
<circle clip-path="url(#clip242)" cx="1375.18" cy="1017.12" r="14.4" fill="#009af9" fill-rule="evenodd" fill-opacity="1" stroke="#000000" stroke-opacity="1" stroke-width="3.2"/>
<circle clip-path="url(#clip242)" cx="383.946" cy="1178.78" r="14.4" fill="#009af9" fill-rule="evenodd" fill-opacity="1" stroke="#000000" stroke-opacity="1" stroke-width="3.2"/>
<circle clip-path="url(#clip242)" cx="991.226" cy="1270.32" r="14.4" fill="#009af9" fill-rule="evenodd" fill-opacity="1" stroke="#000000" stroke-opacity="1" stroke-width="3.2"/>
<circle clip-path="url(#clip242)" cx="1749.91" cy="387.805" r="14.4" fill="#009af9" fill-rule="evenodd" fill-opacity="1" stroke="#000000" stroke-opacity="1" stroke-width="3.2"/>
<circle clip-path="url(#clip242)" cx="1206.82" cy="1183.27" r="14.4" fill="#009af9" fill-rule="evenodd" fill-opacity="1" stroke="#000000" stroke-opacity="1" stroke-width="3.2"/>
<circle clip-path="url(#clip242)" cx="1392.19" cy="582.997" r="14.4" fill="#009af9" fill-rule="evenodd" fill-opacity="1" stroke="#000000" stroke-opacity="1" stroke-width="3.2"/>
<circle clip-path="url(#clip242)" cx="2225.56" cy="293.147" r="14.4" fill="#009af9" fill-rule="evenodd" fill-opacity="1" stroke="#000000" stroke-opacity="1" stroke-width="3.2"/>
<circle clip-path="url(#clip242)" cx="1954.11" cy="754.586" r="14.4" fill="#009af9" fill-rule="evenodd" fill-opacity="1" stroke="#000000" stroke-opacity="1" stroke-width="3.2"/>
<circle clip-path="url(#clip242)" cx="1903.61" cy="661.718" r="14.4" fill="#009af9" fill-rule="evenodd" fill-opacity="1" stroke="#000000" stroke-opacity="1" stroke-width="3.2"/>
<circle clip-path="url(#clip242)" cx="558.254" cy="1324.81" r="14.4" fill="#009af9" fill-rule="evenodd" fill-opacity="1" stroke="#000000" stroke-opacity="1" stroke-width="3.2"/>
<circle clip-path="url(#clip242)" cx="1347.97" cy="712.829" r="14.4" fill="#009af9" fill-rule="evenodd" fill-opacity="1" stroke="#000000" stroke-opacity="1" stroke-width="3.2"/>
<circle clip-path="url(#clip242)" cx="1722.59" cy="612.087" r="14.4" fill="#009af9" fill-rule="evenodd" fill-opacity="1" stroke="#000000" stroke-opacity="1" stroke-width="3.2"/>
<circle clip-path="url(#clip242)" cx="711.404" cy="1282.8" r="14.4" fill="#009af9" fill-rule="evenodd" fill-opacity="1" stroke="#000000" stroke-opacity="1" stroke-width="3.2"/>
<circle clip-path="url(#clip242)" cx="2234.25" cy="503.226" r="14.4" fill="#009af9" fill-rule="evenodd" fill-opacity="1" stroke="#000000" stroke-opacity="1" stroke-width="3.2"/>
<circle clip-path="url(#clip242)" cx="1575.14" cy="548.232" r="14.4" fill="#009af9" fill-rule="evenodd" fill-opacity="1" stroke="#000000" stroke-opacity="1" stroke-width="3.2"/>
<circle clip-path="url(#clip242)" cx="1162.89" cy="1179.63" r="14.4" fill="#009af9" fill-rule="evenodd" fill-opacity="1" stroke="#000000" stroke-opacity="1" stroke-width="3.2"/>
<polyline clip-path="url(#clip242)" style="stroke:#e26f46; stroke-linecap:round; stroke-linejoin:round; stroke-width:4; stroke-opacity:1; fill:none" points="-1065.29,2470.84 3967.29,-861.12 "/>
</svg>
