<?xml version="1.0" encoding="utf-8"?>
<svg xmlns="http://www.w3.org/2000/svg" xmlns:xlink="http://www.w3.org/1999/xlink" width="600" height="400" viewBox="0 0 2400 1600">
<defs>
  <clipPath id="clip960">
    <rect x="0" y="0" width="2400" height="1600"/>
  </clipPath>
</defs>
<path clip-path="url(#clip960)" d="M0 1600 L2400 1600 L2400 0 L0 0  Z" fill="#ffffff" fill-rule="evenodd" fill-opacity="1"/>
<defs>
  <clipPath id="clip961">
    <rect x="480" y="0" width="1681" height="1600"/>
  </clipPath>
</defs>
<path clip-path="url(#clip960)" d="M244.472 1363.53 L2211.02 1363.53 L2211.02 188.976 L244.472 188.976  Z" fill="#ffffff" fill-rule="evenodd" fill-opacity="1"/>
<defs>
  <clipPath id="clip962">
    <rect x="244" y="188" width="1968" height="1176"/>
  </clipPath>
</defs>
<polyline clip-path="url(#clip962)" style="stroke:#000000; stroke-linecap:round; stroke-linejoin:round; stroke-width:2; stroke-opacity:0.1; fill:none" points="498.67,1363.53 498.67,188.976 "/>
<polyline clip-path="url(#clip962)" style="stroke:#000000; stroke-linecap:round; stroke-linejoin:round; stroke-width:2; stroke-opacity:0.1; fill:none" points="939.018,1363.53 939.018,188.976 "/>
<polyline clip-path="url(#clip962)" style="stroke:#000000; stroke-linecap:round; stroke-linejoin:round; stroke-width:2; stroke-opacity:0.1; fill:none" points="1379.37,1363.53 1379.37,188.976 "/>
<polyline clip-path="url(#clip962)" style="stroke:#000000; stroke-linecap:round; stroke-linejoin:round; stroke-width:2; stroke-opacity:0.1; fill:none" points="1819.72,1363.53 1819.72,188.976 "/>
<polyline clip-path="url(#clip960)" style="stroke:#000000; stroke-linecap:round; stroke-linejoin:round; stroke-width:4; stroke-opacity:1; fill:none" points="244.472,1363.53 2211.02,1363.53 "/>
<polyline clip-path="url(#clip960)" style="stroke:#000000; stroke-linecap:round; stroke-linejoin:round; stroke-width:4; stroke-opacity:1; fill:none" points="498.67,1363.53 498.67,1344.63 "/>
<polyline clip-path="url(#clip960)" style="stroke:#000000; stroke-linecap:round; stroke-linejoin:round; stroke-width:4; stroke-opacity:1; fill:none" points="939.018,1363.53 939.018,1344.63 "/>
<polyline clip-path="url(#clip960)" style="stroke:#000000; stroke-linecap:round; stroke-linejoin:round; stroke-width:4; stroke-opacity:1; fill:none" points="1379.37,1363.53 1379.37,1344.63 "/>
<polyline clip-path="url(#clip960)" style="stroke:#000000; stroke-linecap:round; stroke-linejoin:round; stroke-width:4; stroke-opacity:1; fill:none" points="1819.72,1363.53 1819.72,1344.63 "/>
<path clip-path="url(#clip960)" d="M465.834 1391.37 L484.19 1391.37 L484.19 1395.3 L470.116 1395.3 L470.116 1403.77 Q471.135 1403.43 472.153 1403.27 Q473.172 1403.08 474.19 1403.08 Q479.978 1403.08 483.357 1406.25 Q486.737 1409.42 486.737 1414.84 Q486.737 1420.42 483.265 1423.52 Q479.792 1426.6 473.473 1426.6 Q471.297 1426.6 469.028 1426.23 Q466.783 1425.86 464.376 1425.12 L464.376 1420.42 Q466.459 1421.55 468.681 1422.11 Q470.903 1422.66 473.38 1422.66 Q477.385 1422.66 479.723 1420.56 Q482.061 1418.45 482.061 1414.84 Q482.061 1411.23 479.723 1409.12 Q477.385 1407.02 473.38 1407.02 Q471.505 1407.02 469.63 1407.43 Q467.778 1407.85 465.834 1408.73 L465.834 1391.37 Z" fill="#000000" fill-rule="nonzero" fill-opacity="1" /><path clip-path="url(#clip960)" d="M495.95 1420.05 L500.834 1420.05 L500.834 1425.93 L495.95 1425.93 L495.95 1420.05 Z" fill="#000000" fill-rule="nonzero" fill-opacity="1" /><path clip-path="url(#clip960)" d="M521.019 1394.45 Q517.408 1394.45 515.579 1398.01 Q513.774 1401.55 513.774 1408.68 Q513.774 1415.79 515.579 1419.35 Q517.408 1422.9 521.019 1422.9 Q524.653 1422.9 526.459 1419.35 Q528.287 1415.79 528.287 1408.68 Q528.287 1401.55 526.459 1398.01 Q524.653 1394.45 521.019 1394.45 M521.019 1390.74 Q526.829 1390.74 529.885 1395.35 Q532.963 1399.93 532.963 1408.68 Q532.963 1417.41 529.885 1422.02 Q526.829 1426.6 521.019 1426.6 Q515.209 1426.6 512.13 1422.02 Q509.075 1417.41 509.075 1408.68 Q509.075 1399.93 512.13 1395.35 Q515.209 1390.74 521.019 1390.74 Z" fill="#000000" fill-rule="nonzero" fill-opacity="1" /><path clip-path="url(#clip960)" d="M905.338 1391.37 L927.56 1391.37 L927.56 1393.36 L915.014 1425.93 L910.129 1425.93 L921.935 1395.3 L905.338 1395.3 L905.338 1391.37 Z" fill="#000000" fill-rule="nonzero" fill-opacity="1" /><path clip-path="url(#clip960)" d="M936.68 1420.05 L941.564 1420.05 L941.564 1425.93 L936.68 1425.93 L936.68 1420.05 Z" fill="#000000" fill-rule="nonzero" fill-opacity="1" /><path clip-path="url(#clip960)" d="M951.796 1391.37 L970.152 1391.37 L970.152 1395.3 L956.078 1395.3 L956.078 1403.77 Q957.097 1403.43 958.115 1403.27 Q959.134 1403.08 960.152 1403.08 Q965.939 1403.08 969.319 1406.25 Q972.698 1409.42 972.698 1414.84 Q972.698 1420.42 969.226 1423.52 Q965.754 1426.6 959.435 1426.6 Q957.259 1426.6 954.99 1426.23 Q952.745 1425.86 950.337 1425.12 L950.337 1420.42 Q952.421 1421.55 954.643 1422.11 Q956.865 1422.66 959.342 1422.66 Q963.347 1422.66 965.685 1420.56 Q968.023 1418.45 968.023 1414.84 Q968.023 1411.23 965.685 1409.12 Q963.347 1407.02 959.342 1407.02 Q957.467 1407.02 955.592 1407.43 Q953.74 1407.85 951.796 1408.73 L951.796 1391.37 Z" fill="#000000" fill-rule="nonzero" fill-opacity="1" /><path clip-path="url(#clip960)" d="M1331.44 1421.99 L1339.08 1421.99 L1339.08 1395.63 L1330.77 1397.29 L1330.77 1393.03 L1339.03 1391.37 L1343.71 1391.37 L1343.71 1421.99 L1351.35 1421.99 L1351.35 1425.93 L1331.44 1425.93 L1331.44 1421.99 Z" fill="#000000" fill-rule="nonzero" fill-opacity="1" /><path clip-path="url(#clip960)" d="M1370.79 1394.45 Q1367.18 1394.45 1365.35 1398.01 Q1363.54 1401.55 1363.54 1408.68 Q1363.54 1415.79 1365.35 1419.35 Q1367.18 1422.9 1370.79 1422.9 Q1374.42 1422.9 1376.23 1419.35 Q1378.06 1415.79 1378.06 1408.68 Q1378.06 1401.55 1376.23 1398.01 Q1374.42 1394.45 1370.79 1394.45 M1370.79 1390.74 Q1376.6 1390.74 1379.66 1395.35 Q1382.73 1399.93 1382.73 1408.68 Q1382.73 1417.41 1379.66 1422.02 Q1376.6 1426.6 1370.79 1426.6 Q1364.98 1426.6 1361.9 1422.02 Q1358.85 1417.41 1358.85 1408.68 Q1358.85 1399.93 1361.9 1395.35 Q1364.98 1390.74 1370.79 1390.74 Z" fill="#000000" fill-rule="nonzero" fill-opacity="1" /><path clip-path="url(#clip960)" d="M1390.95 1420.05 L1395.84 1420.05 L1395.84 1425.93 L1390.95 1425.93 L1390.95 1420.05 Z" fill="#000000" fill-rule="nonzero" fill-opacity="1" /><path clip-path="url(#clip960)" d="M1416.02 1394.45 Q1412.41 1394.45 1410.58 1398.01 Q1408.78 1401.55 1408.78 1408.68 Q1408.78 1415.79 1410.58 1419.35 Q1412.41 1422.9 1416.02 1422.9 Q1419.66 1422.9 1421.46 1419.35 Q1423.29 1415.79 1423.29 1408.68 Q1423.29 1401.55 1421.46 1398.01 Q1419.66 1394.45 1416.02 1394.45 M1416.02 1390.74 Q1421.83 1390.74 1424.89 1395.35 Q1427.97 1399.93 1427.97 1408.68 Q1427.97 1417.41 1424.89 1422.02 Q1421.83 1426.6 1416.02 1426.6 Q1410.21 1426.6 1407.13 1422.02 Q1404.08 1417.41 1404.08 1408.68 Q1404.08 1399.93 1407.13 1395.35 Q1410.21 1390.74 1416.02 1390.74 Z" fill="#000000" fill-rule="nonzero" fill-opacity="1" /><path clip-path="url(#clip960)" d="M1772.28 1421.99 L1779.92 1421.99 L1779.92 1395.63 L1771.61 1397.29 L1771.61 1393.03 L1779.88 1391.37 L1784.55 1391.37 L1784.55 1421.99 L1792.19 1421.99 L1792.19 1425.93 L1772.28 1425.93 L1772.28 1421.99 Z" fill="#000000" fill-rule="nonzero" fill-opacity="1" /><path clip-path="url(#clip960)" d="M1805.66 1421.99 L1821.98 1421.99 L1821.98 1425.93 L1800.04 1425.93 L1800.04 1421.99 Q1802.7 1419.24 1807.28 1414.61 Q1811.89 1409.96 1813.07 1408.61 Q1815.32 1406.09 1816.2 1404.35 Q1817.1 1402.59 1817.1 1400.9 Q1817.1 1398.15 1815.15 1396.41 Q1813.23 1394.68 1810.13 1394.68 Q1807.93 1394.68 1805.48 1395.44 Q1803.05 1396.21 1800.27 1397.76 L1800.27 1393.03 Q1803.09 1391.9 1805.55 1391.32 Q1808 1390.74 1810.04 1390.74 Q1815.41 1390.74 1818.6 1393.43 Q1821.8 1396.11 1821.8 1400.6 Q1821.8 1402.73 1820.99 1404.65 Q1820.2 1406.55 1818.09 1409.15 Q1817.52 1409.82 1814.41 1413.03 Q1811.31 1416.23 1805.66 1421.99 Z" fill="#000000" fill-rule="nonzero" fill-opacity="1" /><path clip-path="url(#clip960)" d="M1831.8 1420.05 L1836.68 1420.05 L1836.68 1425.93 L1831.8 1425.93 L1831.8 1420.05 Z" fill="#000000" fill-rule="nonzero" fill-opacity="1" /><path clip-path="url(#clip960)" d="M1846.91 1391.37 L1865.27 1391.37 L1865.27 1395.3 L1851.2 1395.3 L1851.2 1403.77 Q1852.21 1403.43 1853.23 1403.27 Q1854.25 1403.08 1855.27 1403.08 Q1861.06 1403.08 1864.44 1406.25 Q1867.82 1409.42 1867.82 1414.84 Q1867.82 1420.42 1864.34 1423.52 Q1860.87 1426.6 1854.55 1426.6 Q1852.38 1426.6 1850.11 1426.23 Q1847.86 1425.86 1845.46 1425.12 L1845.46 1420.42 Q1847.54 1421.55 1849.76 1422.11 Q1851.98 1422.66 1854.46 1422.66 Q1858.46 1422.66 1860.8 1420.56 Q1863.14 1418.45 1863.14 1414.84 Q1863.14 1411.23 1860.8 1409.12 Q1858.46 1407.02 1854.46 1407.02 Q1852.59 1407.02 1850.71 1407.43 Q1848.86 1407.85 1846.91 1408.73 L1846.91 1391.37 Z" fill="#000000" fill-rule="nonzero" fill-opacity="1" /><path clip-path="url(#clip960)" d="M1071.45 1460.87 L1101.5 1460.87 L1101.5 1466.28 L1077.88 1466.28 L1077.88 1480.35 L1100.51 1480.35 L1100.51 1485.76 L1077.88 1485.76 L1077.88 1502.98 L1102.07 1502.98 L1102.07 1508.39 L1071.45 1508.39 L1071.45 1460.87 Z" fill="#000000" fill-rule="nonzero" fill-opacity="1" /><path clip-path="url(#clip960)" d="M1135.84 1478.15 L1135.84 1458.87 L1141.7 1458.87 L1141.7 1508.39 L1135.84 1508.39 L1135.84 1503.04 Q1134 1506.23 1131.16 1507.79 Q1128.36 1509.31 1124.42 1509.31 Q1117.96 1509.31 1113.88 1504.16 Q1109.84 1499 1109.84 1490.6 Q1109.84 1482.2 1113.88 1477.04 Q1117.96 1471.88 1124.42 1471.88 Q1128.36 1471.88 1131.16 1473.44 Q1134 1474.97 1135.84 1478.15 M1115.89 1490.6 Q1115.89 1497.06 1118.53 1500.75 Q1121.2 1504.41 1125.85 1504.41 Q1130.5 1504.41 1133.17 1500.75 Q1135.84 1497.06 1135.84 1490.6 Q1135.84 1484.14 1133.17 1480.48 Q1130.5 1476.79 1125.85 1476.79 Q1121.2 1476.79 1118.53 1480.48 Q1115.89 1484.14 1115.89 1490.6 Z" fill="#000000" fill-rule="nonzero" fill-opacity="1" /><path clip-path="url(#clip960)" d="M1153.16 1494.32 L1153.16 1472.74 L1159.01 1472.74 L1159.01 1494.1 Q1159.01 1499.16 1160.99 1501.71 Q1162.96 1504.22 1166.91 1504.22 Q1171.65 1504.22 1174.39 1501.2 Q1177.16 1498.17 1177.16 1492.95 L1177.16 1472.74 L1183.01 1472.74 L1183.01 1508.39 L1177.16 1508.39 L1177.16 1502.92 Q1175.02 1506.16 1172.19 1507.75 Q1169.39 1509.31 1165.67 1509.31 Q1159.52 1509.31 1156.34 1505.5 Q1153.16 1501.68 1153.16 1494.32 M1167.89 1471.88 L1167.89 1471.88 Z" fill="#000000" fill-rule="nonzero" fill-opacity="1" /><path clip-path="url(#clip960)" d="M1220.73 1474.11 L1220.73 1479.59 Q1218.25 1478.22 1215.73 1477.55 Q1213.25 1476.85 1210.7 1476.85 Q1205.01 1476.85 1201.86 1480.48 Q1198.7 1484.07 1198.7 1490.6 Q1198.7 1497.12 1201.86 1500.75 Q1205.01 1504.35 1210.7 1504.35 Q1213.25 1504.35 1215.73 1503.68 Q1218.25 1502.98 1220.73 1501.61 L1220.73 1507.02 Q1218.28 1508.17 1215.64 1508.74 Q1213.03 1509.31 1210.07 1509.31 Q1202.01 1509.31 1197.27 1504.25 Q1192.53 1499.19 1192.53 1490.6 Q1192.53 1481.88 1197.3 1476.88 Q1202.11 1471.88 1210.45 1471.88 Q1213.15 1471.88 1215.73 1472.46 Q1218.31 1473 1220.73 1474.11 Z" fill="#000000" fill-rule="nonzero" fill-opacity="1" /><path clip-path="url(#clip960)" d="M1247.12 1490.47 Q1240.02 1490.47 1237.28 1492.1 Q1234.54 1493.72 1234.54 1497.63 Q1234.54 1500.75 1236.58 1502.6 Q1238.65 1504.41 1242.18 1504.41 Q1247.05 1504.41 1249.98 1500.98 Q1252.94 1497.51 1252.94 1491.78 L1252.94 1490.47 L1247.12 1490.47 M1258.8 1488.05 L1258.8 1508.39 L1252.94 1508.39 L1252.94 1502.98 Q1250.94 1506.23 1247.94 1507.79 Q1244.95 1509.31 1240.62 1509.31 Q1235.15 1509.31 1231.9 1506.26 Q1228.69 1503.17 1228.69 1498.02 Q1228.69 1492 1232.7 1488.94 Q1236.74 1485.89 1244.73 1485.89 L1252.94 1485.89 L1252.94 1485.32 Q1252.94 1481.27 1250.27 1479.08 Q1247.62 1476.85 1242.82 1476.85 Q1239.76 1476.85 1236.87 1477.58 Q1233.97 1478.31 1231.3 1479.78 L1231.3 1474.37 Q1234.51 1473.13 1237.54 1472.52 Q1240.56 1471.88 1243.42 1471.88 Q1251.16 1471.88 1254.98 1475.89 Q1258.8 1479.91 1258.8 1488.05 Z" fill="#000000" fill-rule="nonzero" fill-opacity="1" /><path clip-path="url(#clip960)" d="M1276.65 1462.62 L1276.65 1472.74 L1288.72 1472.74 L1288.72 1477.3 L1276.65 1477.3 L1276.65 1496.65 Q1276.65 1501.01 1277.83 1502.25 Q1279.04 1503.49 1282.7 1503.49 L1288.72 1503.49 L1288.72 1508.39 L1282.7 1508.39 Q1275.92 1508.39 1273.34 1505.88 Q1270.76 1503.33 1270.76 1496.65 L1270.76 1477.3 L1266.47 1477.3 L1266.47 1472.74 L1270.76 1472.74 L1270.76 1462.62 L1276.65 1462.62 Z" fill="#000000" fill-rule="nonzero" fill-opacity="1" /><path clip-path="url(#clip960)" d="M1296.42 1472.74 L1302.27 1472.74 L1302.27 1508.39 L1296.42 1508.39 L1296.42 1472.74 M1296.42 1458.87 L1302.27 1458.87 L1302.27 1466.28 L1296.42 1466.28 L1296.42 1458.87 Z" fill="#000000" fill-rule="nonzero" fill-opacity="1" /><path clip-path="url(#clip960)" d="M1328.34 1476.85 Q1323.63 1476.85 1320.89 1480.54 Q1318.16 1484.2 1318.16 1490.6 Q1318.16 1497 1320.86 1500.69 Q1323.6 1504.35 1328.34 1504.35 Q1333.02 1504.35 1335.76 1500.66 Q1338.5 1496.97 1338.5 1490.6 Q1338.5 1484.27 1335.76 1480.57 Q1333.02 1476.85 1328.34 1476.85 M1328.34 1471.88 Q1335.98 1471.88 1340.34 1476.85 Q1344.7 1481.81 1344.7 1490.6 Q1344.7 1499.35 1340.34 1504.35 Q1335.98 1509.31 1328.34 1509.31 Q1320.67 1509.31 1316.31 1504.35 Q1311.98 1499.35 1311.98 1490.6 Q1311.98 1481.81 1316.31 1476.85 Q1320.67 1471.88 1328.34 1471.88 Z" fill="#000000" fill-rule="nonzero" fill-opacity="1" /><path clip-path="url(#clip960)" d="M1384.04 1486.88 L1384.04 1508.39 L1378.19 1508.39 L1378.19 1487.07 Q1378.19 1482.01 1376.21 1479.49 Q1374.24 1476.98 1370.29 1476.98 Q1365.55 1476.98 1362.81 1480 Q1360.08 1483.02 1360.08 1488.24 L1360.08 1508.39 L1354.19 1508.39 L1354.19 1472.74 L1360.08 1472.74 L1360.08 1478.28 Q1362.18 1475.07 1365.01 1473.48 Q1367.87 1471.88 1371.6 1471.88 Q1377.74 1471.88 1380.89 1475.7 Q1384.04 1479.49 1384.04 1486.88 Z" fill="#000000" fill-rule="nonzero" fill-opacity="1" /><polyline clip-path="url(#clip962)" style="stroke:#000000; stroke-linecap:round; stroke-linejoin:round; stroke-width:2; stroke-opacity:0.1; fill:none" points="244.472,1200.21 2211.02,1200.21 "/>
<polyline clip-path="url(#clip962)" style="stroke:#000000; stroke-linecap:round; stroke-linejoin:round; stroke-width:2; stroke-opacity:0.1; fill:none" points="244.472,1018.06 2211.02,1018.06 "/>
<polyline clip-path="url(#clip962)" style="stroke:#000000; stroke-linecap:round; stroke-linejoin:round; stroke-width:2; stroke-opacity:0.1; fill:none" points="244.472,835.904 2211.02,835.904 "/>
<polyline clip-path="url(#clip962)" style="stroke:#000000; stroke-linecap:round; stroke-linejoin:round; stroke-width:2; stroke-opacity:0.1; fill:none" points="244.472,653.75 2211.02,653.75 "/>
<polyline clip-path="url(#clip962)" style="stroke:#000000; stroke-linecap:round; stroke-linejoin:round; stroke-width:2; stroke-opacity:0.1; fill:none" points="244.472,471.596 2211.02,471.596 "/>
<polyline clip-path="url(#clip962)" style="stroke:#000000; stroke-linecap:round; stroke-linejoin:round; stroke-width:2; stroke-opacity:0.1; fill:none" points="244.472,289.443 2211.02,289.443 "/>
<polyline clip-path="url(#clip960)" style="stroke:#000000; stroke-linecap:round; stroke-linejoin:round; stroke-width:4; stroke-opacity:1; fill:none" points="244.472,1363.53 244.472,188.976 "/>
<polyline clip-path="url(#clip960)" style="stroke:#000000; stroke-linecap:round; stroke-linejoin:round; stroke-width:4; stroke-opacity:1; fill:none" points="244.472,1200.21 263.37,1200.21 "/>
<polyline clip-path="url(#clip960)" style="stroke:#000000; stroke-linecap:round; stroke-linejoin:round; stroke-width:4; stroke-opacity:1; fill:none" points="244.472,1018.06 263.37,1018.06 "/>
<polyline clip-path="url(#clip960)" style="stroke:#000000; stroke-linecap:round; stroke-linejoin:round; stroke-width:4; stroke-opacity:1; fill:none" points="244.472,835.904 263.37,835.904 "/>
<polyline clip-path="url(#clip960)" style="stroke:#000000; stroke-linecap:round; stroke-linejoin:round; stroke-width:4; stroke-opacity:1; fill:none" points="244.472,653.75 263.37,653.75 "/>
<polyline clip-path="url(#clip960)" style="stroke:#000000; stroke-linecap:round; stroke-linejoin:round; stroke-width:4; stroke-opacity:1; fill:none" points="244.472,471.596 263.37,471.596 "/>
<polyline clip-path="url(#clip960)" style="stroke:#000000; stroke-linecap:round; stroke-linejoin:round; stroke-width:4; stroke-opacity:1; fill:none" points="244.472,289.443 263.37,289.443 "/>
<path clip-path="url(#clip960)" d="M110.209 1198.86 Q113.566 1199.57 115.441 1201.84 Q117.339 1204.11 117.339 1207.44 Q117.339 1212.56 113.82 1215.36 Q110.302 1218.16 103.82 1218.16 Q101.644 1218.16 99.3295 1217.72 Q97.0379 1217.31 94.5842 1216.45 L94.5842 1211.94 Q96.5286 1213.07 98.8434 1213.65 Q101.158 1214.23 103.681 1214.23 Q108.079 1214.23 110.371 1212.49 Q112.686 1210.76 112.686 1207.44 Q112.686 1204.39 110.533 1202.68 Q108.404 1200.94 104.584 1200.94 L100.556 1200.94 L100.556 1197.1 L104.769 1197.1 Q108.218 1197.1 110.047 1195.73 Q111.876 1194.34 111.876 1191.75 Q111.876 1189.09 109.978 1187.68 Q108.103 1186.24 104.584 1186.24 Q102.663 1186.24 100.464 1186.66 Q98.2647 1187.07 95.6258 1187.95 L95.6258 1183.79 Q98.2878 1183.05 100.603 1182.68 Q102.941 1182.31 105.001 1182.31 Q110.325 1182.31 113.427 1184.74 Q116.528 1187.14 116.528 1191.26 Q116.528 1194.13 114.885 1196.13 Q113.241 1198.09 110.209 1198.86 Z" fill="#000000" fill-rule="nonzero" fill-opacity="1" /><path clip-path="url(#clip960)" d="M136.204 1186.01 Q132.593 1186.01 130.765 1189.57 Q128.959 1193.12 128.959 1200.25 Q128.959 1207.35 130.765 1210.92 Q132.593 1214.46 136.204 1214.46 Q139.839 1214.46 141.644 1210.92 Q143.473 1207.35 143.473 1200.25 Q143.473 1193.12 141.644 1189.57 Q139.839 1186.01 136.204 1186.01 M136.204 1182.31 Q142.014 1182.31 145.07 1186.91 Q148.149 1191.5 148.149 1200.25 Q148.149 1208.97 145.07 1213.58 Q142.014 1218.16 136.204 1218.16 Q130.394 1218.16 127.315 1213.58 Q124.26 1208.97 124.26 1200.25 Q124.26 1191.5 127.315 1186.91 Q130.394 1182.31 136.204 1182.31 Z" fill="#000000" fill-rule="nonzero" fill-opacity="1" /><path clip-path="url(#clip960)" d="M166.366 1186.01 Q162.755 1186.01 160.926 1189.57 Q159.121 1193.12 159.121 1200.25 Q159.121 1207.35 160.926 1210.92 Q162.755 1214.46 166.366 1214.46 Q170 1214.46 171.806 1210.92 Q173.635 1207.35 173.635 1200.25 Q173.635 1193.12 171.806 1189.57 Q170 1186.01 166.366 1186.01 M166.366 1182.31 Q172.176 1182.31 175.232 1186.91 Q178.311 1191.5 178.311 1200.25 Q178.311 1208.97 175.232 1213.58 Q172.176 1218.16 166.366 1218.16 Q160.556 1218.16 157.477 1213.58 Q154.422 1208.97 154.422 1200.25 Q154.422 1191.5 157.477 1186.91 Q160.556 1182.31 166.366 1182.31 Z" fill="#000000" fill-rule="nonzero" fill-opacity="1" /><path clip-path="url(#clip960)" d="M196.528 1186.01 Q192.917 1186.01 191.088 1189.57 Q189.283 1193.12 189.283 1200.25 Q189.283 1207.35 191.088 1210.92 Q192.917 1214.46 196.528 1214.46 Q200.162 1214.46 201.968 1210.92 Q203.797 1207.35 203.797 1200.25 Q203.797 1193.12 201.968 1189.57 Q200.162 1186.01 196.528 1186.01 M196.528 1182.31 Q202.338 1182.31 205.394 1186.91 Q208.472 1191.5 208.472 1200.25 Q208.472 1208.97 205.394 1213.58 Q202.338 1218.16 196.528 1218.16 Q190.718 1218.16 187.639 1213.58 Q184.584 1208.97 184.584 1200.25 Q184.584 1191.5 187.639 1186.91 Q190.718 1182.31 196.528 1182.31 Z" fill="#000000" fill-rule="nonzero" fill-opacity="1" /><path clip-path="url(#clip960)" d="M110.209 1016.7 Q113.566 1017.42 115.441 1019.69 Q117.339 1021.96 117.339 1025.29 Q117.339 1030.41 113.82 1033.21 Q110.302 1036.01 103.82 1036.01 Q101.644 1036.01 99.3295 1035.57 Q97.0379 1035.15 94.5842 1034.3 L94.5842 1029.78 Q96.5286 1030.92 98.8434 1031.49 Q101.158 1032.07 103.681 1032.07 Q108.079 1032.07 110.371 1030.34 Q112.686 1028.6 112.686 1025.29 Q112.686 1022.24 110.533 1020.52 Q108.404 1018.79 104.584 1018.79 L100.556 1018.79 L100.556 1014.94 L104.769 1014.94 Q108.218 1014.94 110.047 1013.58 Q111.876 1012.19 111.876 1009.6 Q111.876 1006.93 109.978 1005.52 Q108.103 1004.09 104.584 1004.09 Q102.663 1004.09 100.464 1004.5 Q98.2647 1004.92 95.6258 1005.8 L95.6258 1001.63 Q98.2878 1000.89 100.603 1000.52 Q102.941 1000.15 105.001 1000.15 Q110.325 1000.15 113.427 1002.58 Q116.528 1004.99 116.528 1009.11 Q116.528 1011.98 114.885 1013.97 Q113.241 1015.94 110.209 1016.7 Z" fill="#000000" fill-rule="nonzero" fill-opacity="1" /><path clip-path="url(#clip960)" d="M126.251 1000.78 L144.607 1000.78 L144.607 1004.71 L130.533 1004.71 L130.533 1013.18 Q131.552 1012.84 132.57 1012.68 Q133.589 1012.49 134.607 1012.49 Q140.394 1012.49 143.774 1015.66 Q147.153 1018.83 147.153 1024.25 Q147.153 1029.83 143.681 1032.93 Q140.209 1036.01 133.89 1036.01 Q131.714 1036.01 129.445 1035.64 Q127.2 1035.27 124.792 1034.53 L124.792 1029.83 Q126.876 1030.96 129.098 1031.52 Q131.32 1032.07 133.797 1032.07 Q137.802 1032.07 140.139 1029.97 Q142.477 1027.86 142.477 1024.25 Q142.477 1020.64 140.139 1018.53 Q137.802 1016.43 133.797 1016.43 Q131.922 1016.43 130.047 1016.84 Q128.195 1017.26 126.251 1018.14 L126.251 1000.78 Z" fill="#000000" fill-rule="nonzero" fill-opacity="1" /><path clip-path="url(#clip960)" d="M166.366 1003.86 Q162.755 1003.86 160.926 1007.42 Q159.121 1010.96 159.121 1018.09 Q159.121 1025.2 160.926 1028.76 Q162.755 1032.31 166.366 1032.31 Q170 1032.31 171.806 1028.76 Q173.635 1025.2 173.635 1018.09 Q173.635 1010.96 171.806 1007.42 Q170 1003.86 166.366 1003.86 M166.366 1000.15 Q172.176 1000.15 175.232 1004.76 Q178.311 1009.34 178.311 1018.09 Q178.311 1026.82 175.232 1031.43 Q172.176 1036.01 166.366 1036.01 Q160.556 1036.01 157.477 1031.43 Q154.422 1026.82 154.422 1018.09 Q154.422 1009.34 157.477 1004.76 Q160.556 1000.15 166.366 1000.15 Z" fill="#000000" fill-rule="nonzero" fill-opacity="1" /><path clip-path="url(#clip960)" d="M196.528 1003.86 Q192.917 1003.86 191.088 1007.42 Q189.283 1010.96 189.283 1018.09 Q189.283 1025.2 191.088 1028.76 Q192.917 1032.31 196.528 1032.31 Q200.162 1032.31 201.968 1028.76 Q203.797 1025.2 203.797 1018.09 Q203.797 1010.96 201.968 1007.42 Q200.162 1003.86 196.528 1003.86 M196.528 1000.15 Q202.338 1000.15 205.394 1004.76 Q208.472 1009.34 208.472 1018.09 Q208.472 1026.82 205.394 1031.43 Q202.338 1036.01 196.528 1036.01 Q190.718 1036.01 187.639 1031.43 Q184.584 1026.82 184.584 1018.09 Q184.584 1009.34 187.639 1004.76 Q190.718 1000.15 196.528 1000.15 Z" fill="#000000" fill-rule="nonzero" fill-opacity="1" /><path clip-path="url(#clip960)" d="M108.89 822.698 L97.0841 841.147 L108.89 841.147 L108.89 822.698 M107.663 818.624 L113.542 818.624 L113.542 841.147 L118.473 841.147 L118.473 845.036 L113.542 845.036 L113.542 853.184 L108.89 853.184 L108.89 845.036 L93.2879 845.036 L93.2879 840.522 L107.663 818.624 Z" fill="#000000" fill-rule="nonzero" fill-opacity="1" /><path clip-path="url(#clip960)" d="M136.204 821.702 Q132.593 821.702 130.765 825.267 Q128.959 828.809 128.959 835.938 Q128.959 843.045 130.765 846.61 Q132.593 850.151 136.204 850.151 Q139.839 850.151 141.644 846.61 Q143.473 843.045 143.473 835.938 Q143.473 828.809 141.644 825.267 Q139.839 821.702 136.204 821.702 M136.204 817.999 Q142.014 817.999 145.07 822.605 Q148.149 827.189 148.149 835.938 Q148.149 844.665 145.07 849.272 Q142.014 853.855 136.204 853.855 Q130.394 853.855 127.315 849.272 Q124.26 844.665 124.26 835.938 Q124.26 827.189 127.315 822.605 Q130.394 817.999 136.204 817.999 Z" fill="#000000" fill-rule="nonzero" fill-opacity="1" /><path clip-path="url(#clip960)" d="M166.366 821.702 Q162.755 821.702 160.926 825.267 Q159.121 828.809 159.121 835.938 Q159.121 843.045 160.926 846.61 Q162.755 850.151 166.366 850.151 Q170 850.151 171.806 846.61 Q173.635 843.045 173.635 835.938 Q173.635 828.809 171.806 825.267 Q170 821.702 166.366 821.702 M166.366 817.999 Q172.176 817.999 175.232 822.605 Q178.311 827.189 178.311 835.938 Q178.311 844.665 175.232 849.272 Q172.176 853.855 166.366 853.855 Q160.556 853.855 157.477 849.272 Q154.422 844.665 154.422 835.938 Q154.422 827.189 157.477 822.605 Q160.556 817.999 166.366 817.999 Z" fill="#000000" fill-rule="nonzero" fill-opacity="1" /><path clip-path="url(#clip960)" d="M196.528 821.702 Q192.917 821.702 191.088 825.267 Q189.283 828.809 189.283 835.938 Q189.283 843.045 191.088 846.61 Q192.917 850.151 196.528 850.151 Q200.162 850.151 201.968 846.61 Q203.797 843.045 203.797 835.938 Q203.797 828.809 201.968 825.267 Q200.162 821.702 196.528 821.702 M196.528 817.999 Q202.338 817.999 205.394 822.605 Q208.472 827.189 208.472 835.938 Q208.472 844.665 205.394 849.272 Q202.338 853.855 196.528 853.855 Q190.718 853.855 187.639 849.272 Q184.584 844.665 184.584 835.938 Q184.584 827.189 187.639 822.605 Q190.718 817.999 196.528 817.999 Z" fill="#000000" fill-rule="nonzero" fill-opacity="1" /><path clip-path="url(#clip960)" d="M108.89 640.544 L97.0841 658.993 L108.89 658.993 L108.89 640.544 M107.663 636.47 L113.542 636.47 L113.542 658.993 L118.473 658.993 L118.473 662.882 L113.542 662.882 L113.542 671.03 L108.89 671.03 L108.89 662.882 L93.2879 662.882 L93.2879 658.368 L107.663 636.47 Z" fill="#000000" fill-rule="nonzero" fill-opacity="1" /><path clip-path="url(#clip960)" d="M126.251 636.47 L144.607 636.47 L144.607 640.405 L130.533 640.405 L130.533 648.877 Q131.552 648.53 132.57 648.368 Q133.589 648.183 134.607 648.183 Q140.394 648.183 143.774 651.354 Q147.153 654.526 147.153 659.942 Q147.153 665.521 143.681 668.623 Q140.209 671.701 133.89 671.701 Q131.714 671.701 129.445 671.331 Q127.2 670.961 124.792 670.22 L124.792 665.521 Q126.876 666.655 129.098 667.211 Q131.32 667.766 133.797 667.766 Q137.802 667.766 140.139 665.66 Q142.477 663.553 142.477 659.942 Q142.477 656.331 140.139 654.225 Q137.802 652.118 133.797 652.118 Q131.922 652.118 130.047 652.535 Q128.195 652.951 126.251 653.831 L126.251 636.47 Z" fill="#000000" fill-rule="nonzero" fill-opacity="1" /><path clip-path="url(#clip960)" d="M166.366 639.549 Q162.755 639.549 160.926 643.114 Q159.121 646.655 159.121 653.785 Q159.121 660.891 160.926 664.456 Q162.755 667.998 166.366 667.998 Q170 667.998 171.806 664.456 Q173.635 660.891 173.635 653.785 Q173.635 646.655 171.806 643.114 Q170 639.549 166.366 639.549 M166.366 635.845 Q172.176 635.845 175.232 640.452 Q178.311 645.035 178.311 653.785 Q178.311 662.512 175.232 667.118 Q172.176 671.701 166.366 671.701 Q160.556 671.701 157.477 667.118 Q154.422 662.512 154.422 653.785 Q154.422 645.035 157.477 640.452 Q160.556 635.845 166.366 635.845 Z" fill="#000000" fill-rule="nonzero" fill-opacity="1" /><path clip-path="url(#clip960)" d="M196.528 639.549 Q192.917 639.549 191.088 643.114 Q189.283 646.655 189.283 653.785 Q189.283 660.891 191.088 664.456 Q192.917 667.998 196.528 667.998 Q200.162 667.998 201.968 664.456 Q203.797 660.891 203.797 653.785 Q203.797 646.655 201.968 643.114 Q200.162 639.549 196.528 639.549 M196.528 635.845 Q202.338 635.845 205.394 640.452 Q208.472 645.035 208.472 653.785 Q208.472 662.512 205.394 667.118 Q202.338 671.701 196.528 671.701 Q190.718 671.701 187.639 667.118 Q184.584 662.512 184.584 653.785 Q184.584 645.035 187.639 640.452 Q190.718 635.845 196.528 635.845 Z" fill="#000000" fill-rule="nonzero" fill-opacity="1" /><path clip-path="url(#clip960)" d="M96.0888 454.316 L114.445 454.316 L114.445 458.252 L100.371 458.252 L100.371 466.724 Q101.39 466.377 102.408 466.214 Q103.427 466.029 104.445 466.029 Q110.232 466.029 113.612 469.201 Q116.991 472.372 116.991 477.788 Q116.991 483.367 113.519 486.469 Q110.047 489.548 103.728 489.548 Q101.552 489.548 99.2832 489.177 Q97.0379 488.807 94.6305 488.066 L94.6305 483.367 Q96.7138 484.501 98.936 485.057 Q101.158 485.613 103.635 485.613 Q107.64 485.613 109.978 483.506 Q112.316 481.4 112.316 477.788 Q112.316 474.177 109.978 472.071 Q107.64 469.964 103.635 469.964 Q101.76 469.964 99.8851 470.381 Q98.0332 470.798 96.0888 471.677 L96.0888 454.316 Z" fill="#000000" fill-rule="nonzero" fill-opacity="1" /><path clip-path="url(#clip960)" d="M136.204 457.395 Q132.593 457.395 130.765 460.96 Q128.959 464.502 128.959 471.631 Q128.959 478.738 130.765 482.302 Q132.593 485.844 136.204 485.844 Q139.839 485.844 141.644 482.302 Q143.473 478.738 143.473 471.631 Q143.473 464.502 141.644 460.96 Q139.839 457.395 136.204 457.395 M136.204 453.691 Q142.014 453.691 145.07 458.298 Q148.149 462.881 148.149 471.631 Q148.149 480.358 145.07 484.964 Q142.014 489.548 136.204 489.548 Q130.394 489.548 127.315 484.964 Q124.26 480.358 124.26 471.631 Q124.26 462.881 127.315 458.298 Q130.394 453.691 136.204 453.691 Z" fill="#000000" fill-rule="nonzero" fill-opacity="1" /><path clip-path="url(#clip960)" d="M166.366 457.395 Q162.755 457.395 160.926 460.96 Q159.121 464.502 159.121 471.631 Q159.121 478.738 160.926 482.302 Q162.755 485.844 166.366 485.844 Q170 485.844 171.806 482.302 Q173.635 478.738 173.635 471.631 Q173.635 464.502 171.806 460.96 Q170 457.395 166.366 457.395 M166.366 453.691 Q172.176 453.691 175.232 458.298 Q178.311 462.881 178.311 471.631 Q178.311 480.358 175.232 484.964 Q172.176 489.548 166.366 489.548 Q160.556 489.548 157.477 484.964 Q154.422 480.358 154.422 471.631 Q154.422 462.881 157.477 458.298 Q160.556 453.691 166.366 453.691 Z" fill="#000000" fill-rule="nonzero" fill-opacity="1" /><path clip-path="url(#clip960)" d="M196.528 457.395 Q192.917 457.395 191.088 460.96 Q189.283 464.502 189.283 471.631 Q189.283 478.738 191.088 482.302 Q192.917 485.844 196.528 485.844 Q200.162 485.844 201.968 482.302 Q203.797 478.738 203.797 471.631 Q203.797 464.502 201.968 460.96 Q200.162 457.395 196.528 457.395 M196.528 453.691 Q202.338 453.691 205.394 458.298 Q208.472 462.881 208.472 471.631 Q208.472 480.358 205.394 484.964 Q202.338 489.548 196.528 489.548 Q190.718 489.548 187.639 484.964 Q184.584 480.358 184.584 471.631 Q184.584 462.881 187.639 458.298 Q190.718 453.691 196.528 453.691 Z" fill="#000000" fill-rule="nonzero" fill-opacity="1" /><path clip-path="url(#clip960)" d="M96.0888 272.163 L114.445 272.163 L114.445 276.098 L100.371 276.098 L100.371 284.57 Q101.39 284.223 102.408 284.061 Q103.427 283.876 104.445 283.876 Q110.232 283.876 113.612 287.047 Q116.991 290.218 116.991 295.635 Q116.991 301.213 113.519 304.315 Q110.047 307.394 103.728 307.394 Q101.552 307.394 99.2832 307.024 Q97.0379 306.653 94.6305 305.913 L94.6305 301.213 Q96.7138 302.348 98.936 302.903 Q101.158 303.459 103.635 303.459 Q107.64 303.459 109.978 301.352 Q112.316 299.246 112.316 295.635 Q112.316 292.024 109.978 289.917 Q107.64 287.811 103.635 287.811 Q101.76 287.811 99.8851 288.227 Q98.0332 288.644 96.0888 289.524 L96.0888 272.163 Z" fill="#000000" fill-rule="nonzero" fill-opacity="1" /><path clip-path="url(#clip960)" d="M126.251 272.163 L144.607 272.163 L144.607 276.098 L130.533 276.098 L130.533 284.57 Q131.552 284.223 132.57 284.061 Q133.589 283.876 134.607 283.876 Q140.394 283.876 143.774 287.047 Q147.153 290.218 147.153 295.635 Q147.153 301.213 143.681 304.315 Q140.209 307.394 133.89 307.394 Q131.714 307.394 129.445 307.024 Q127.2 306.653 124.792 305.913 L124.792 301.213 Q126.876 302.348 129.098 302.903 Q131.32 303.459 133.797 303.459 Q137.802 303.459 140.139 301.352 Q142.477 299.246 142.477 295.635 Q142.477 292.024 140.139 289.917 Q137.802 287.811 133.797 287.811 Q131.922 287.811 130.047 288.227 Q128.195 288.644 126.251 289.524 L126.251 272.163 Z" fill="#000000" fill-rule="nonzero" fill-opacity="1" /><path clip-path="url(#clip960)" d="M166.366 275.241 Q162.755 275.241 160.926 278.806 Q159.121 282.348 159.121 289.477 Q159.121 296.584 160.926 300.149 Q162.755 303.69 166.366 303.69 Q170 303.69 171.806 300.149 Q173.635 296.584 173.635 289.477 Q173.635 282.348 171.806 278.806 Q170 275.241 166.366 275.241 M166.366 271.538 Q172.176 271.538 175.232 276.144 Q178.311 280.727 178.311 289.477 Q178.311 298.204 175.232 302.811 Q172.176 307.394 166.366 307.394 Q160.556 307.394 157.477 302.811 Q154.422 298.204 154.422 289.477 Q154.422 280.727 157.477 276.144 Q160.556 271.538 166.366 271.538 Z" fill="#000000" fill-rule="nonzero" fill-opacity="1" /><path clip-path="url(#clip960)" d="M196.528 275.241 Q192.917 275.241 191.088 278.806 Q189.283 282.348 189.283 289.477 Q189.283 296.584 191.088 300.149 Q192.917 303.69 196.528 303.69 Q200.162 303.69 201.968 300.149 Q203.797 296.584 203.797 289.477 Q203.797 282.348 201.968 278.806 Q200.162 275.241 196.528 275.241 M196.528 271.538 Q202.338 271.538 205.394 276.144 Q208.472 280.727 208.472 289.477 Q208.472 298.204 205.394 302.811 Q202.338 307.394 196.528 307.394 Q190.718 307.394 187.639 302.811 Q184.584 298.204 184.584 289.477 Q184.584 280.727 187.639 276.144 Q190.718 271.538 196.528 271.538 Z" fill="#000000" fill-rule="nonzero" fill-opacity="1" /><path clip-path="url(#clip960)" d="M-4.48813 891.248 L-4.48813 884.819 L43.0319 884.819 L43.0319 891.248 L-4.48813 891.248 Z" fill="#000000" fill-rule="nonzero" fill-opacity="1" /><path clip-path="url(#clip960)" d="M21.5158 842.646 L43.0319 842.646 L43.0319 848.503 L21.7068 848.503 Q16.646 848.503 14.1316 850.476 Q11.6171 852.449 11.6171 856.396 Q11.6171 861.139 14.6408 863.876 Q17.6645 866.613 22.8844 866.613 L43.0319 866.613 L43.0319 872.501 L7.38392 872.501 L7.38392 866.613 L12.9221 866.613 Q9.7074 864.512 8.11597 861.68 Q6.52455 858.815 6.52455 855.091 Q6.52455 848.948 10.344 845.797 Q14.1316 842.646 21.5158 842.646 Z" fill="#000000" fill-rule="nonzero" fill-opacity="1" /><path clip-path="url(#clip960)" d="M8.75254 805.311 L14.2271 805.311 Q12.8584 807.794 12.19 810.308 Q11.4898 812.791 11.4898 815.337 Q11.4898 821.035 15.1182 824.186 Q18.7149 827.337 25.2397 827.337 Q31.7646 827.337 35.393 824.186 Q38.9896 821.035 38.9896 815.337 Q38.9896 812.791 38.3213 810.308 Q37.621 807.794 36.2524 805.311 L41.6632 805.311 Q42.8091 807.762 43.382 810.404 Q43.9549 813.014 43.9549 815.974 Q43.9549 824.027 38.8942 828.769 Q33.8334 833.511 25.2397 833.511 Q16.5187 833.511 11.5216 828.737 Q6.52455 823.931 6.52455 815.592 Q6.52455 812.887 7.09746 810.308 Q7.63854 807.73 8.75254 805.311 Z" fill="#000000" fill-rule="nonzero" fill-opacity="1" /><path clip-path="url(#clip960)" d="M11.4898 781.313 Q11.4898 786.023 15.1819 788.761 Q18.8422 791.498 25.2397 791.498 Q31.6373 791.498 35.3294 788.792 Q38.9896 786.055 38.9896 781.313 Q38.9896 776.634 35.2975 773.897 Q31.6054 771.159 25.2397 771.159 Q18.9058 771.159 15.2137 773.897 Q11.4898 776.634 11.4898 781.313 M6.52455 781.313 Q6.52455 773.674 11.4898 769.313 Q16.455 764.953 25.2397 764.953 Q33.9926 764.953 38.9896 769.313 Q43.9549 773.674 43.9549 781.313 Q43.9549 788.983 38.9896 793.344 Q33.9926 797.673 25.2397 797.673 Q16.455 797.673 11.4898 793.344 Q6.52455 788.983 6.52455 781.313 Z" fill="#000000" fill-rule="nonzero" fill-opacity="1" /><path clip-path="url(#clip960)" d="M14.2271 727.491 Q10.2803 725.294 8.40243 722.239 Q6.52455 719.183 6.52455 715.046 Q6.52455 709.476 10.4395 706.452 Q14.3225 703.428 21.5158 703.428 L43.0319 703.428 L43.0319 709.317 L21.7068 709.317 Q16.5824 709.317 14.0997 711.131 Q11.6171 712.945 11.6171 716.669 Q11.6171 721.22 14.6408 723.862 Q17.6645 726.504 22.8844 726.504 L43.0319 726.504 L43.0319 732.392 L21.7068 732.392 Q16.5505 732.392 14.0997 734.206 Q11.6171 736.021 11.6171 739.808 Q11.6171 744.296 14.6726 746.938 Q17.6964 749.58 22.8844 749.58 L43.0319 749.58 L43.0319 755.468 L7.38392 755.468 L7.38392 749.58 L12.9221 749.58 Q9.64374 747.574 8.08414 744.774 Q6.52455 741.973 6.52455 738.121 Q6.52455 734.238 8.49791 731.533 Q10.4713 728.796 14.2271 727.491 Z" fill="#000000" fill-rule="nonzero" fill-opacity="1" /><path clip-path="url(#clip960)" d="M23.7438 661.255 L26.6083 661.255 L26.6083 688.182 Q32.6558 687.8 35.8386 684.554 Q38.9896 681.276 38.9896 675.451 Q38.9896 672.077 38.1621 668.926 Q37.3346 665.743 35.6795 662.624 L41.2176 662.624 Q42.5544 665.775 43.2547 669.085 Q43.9549 672.395 43.9549 675.801 Q43.9549 684.331 38.9896 689.328 Q34.0244 694.293 25.558 694.293 Q16.8052 694.293 11.6808 689.583 Q6.52455 684.84 6.52455 676.82 Q6.52455 669.626 11.1715 665.457 Q15.7866 661.255 23.7438 661.255 M22.025 667.112 Q17.2189 667.176 14.3544 669.817 Q11.4898 672.427 11.4898 676.756 Q11.4898 681.658 14.2589 684.618 Q17.028 687.546 22.0569 687.991 L22.025 667.112 Z" fill="#000000" fill-rule="nonzero" fill-opacity="1" /><circle clip-path="url(#clip962)" cx="1367.51" cy="841.144" r="14.4" fill="#009af9" fill-rule="evenodd" fill-opacity="1" stroke="#000000" stroke-opacity="1" stroke-width="3.2"/>
<circle clip-path="url(#clip962)" cx="2086" cy="222.218" r="14.4" fill="#009af9" fill-rule="evenodd" fill-opacity="1" stroke="#000000" stroke-opacity="1" stroke-width="3.2"/>
<circle clip-path="url(#clip962)" cx="1897.93" cy="501.553" r="14.4" fill="#009af9" fill-rule="evenodd" fill-opacity="1" stroke="#000000" stroke-opacity="1" stroke-width="3.2"/>
<circle clip-path="url(#clip962)" cx="1270.28" cy="916.223" r="14.4" fill="#009af9" fill-rule="evenodd" fill-opacity="1" stroke="#000000" stroke-opacity="1" stroke-width="3.2"/>
<circle clip-path="url(#clip962)" cx="1294" cy="1041.15" r="14.4" fill="#009af9" fill-rule="evenodd" fill-opacity="1" stroke="#000000" stroke-opacity="1" stroke-width="3.2"/>
<circle clip-path="url(#clip962)" cx="300.13" cy="1193.06" r="14.4" fill="#009af9" fill-rule="evenodd" fill-opacity="1" stroke="#000000" stroke-opacity="1" stroke-width="3.2"/>
<circle clip-path="url(#clip962)" cx="909.027" cy="1279.08" r="14.4" fill="#009af9" fill-rule="evenodd" fill-opacity="1" stroke="#000000" stroke-opacity="1" stroke-width="3.2"/>
<circle clip-path="url(#clip962)" cx="1669.73" cy="449.802" r="14.4" fill="#009af9" fill-rule="evenodd" fill-opacity="1" stroke="#000000" stroke-opacity="1" stroke-width="3.2"/>
<circle clip-path="url(#clip962)" cx="1125.2" cy="1197.28" r="14.4" fill="#009af9" fill-rule="evenodd" fill-opacity="1" stroke="#000000" stroke-opacity="1" stroke-width="3.2"/>
<circle clip-path="url(#clip962)" cx="1311.06" cy="633.219" r="14.4" fill="#009af9" fill-rule="evenodd" fill-opacity="1" stroke="#000000" stroke-opacity="1" stroke-width="3.2"/>
<circle clip-path="url(#clip962)" cx="2146.64" cy="360.854" r="14.4" fill="#009af9" fill-rule="evenodd" fill-opacity="1" stroke="#000000" stroke-opacity="1" stroke-width="3.2"/>
<circle clip-path="url(#clip962)" cx="1874.47" cy="794.457" r="14.4" fill="#009af9" fill-rule="evenodd" fill-opacity="1" stroke="#000000" stroke-opacity="1" stroke-width="3.2"/>
<circle clip-path="url(#clip962)" cx="1823.84" cy="707.192" r="14.4" fill="#009af9" fill-rule="evenodd" fill-opacity="1" stroke="#000000" stroke-opacity="1" stroke-width="3.2"/>
<circle clip-path="url(#clip962)" cx="474.902" cy="1330.29" r="14.4" fill="#009af9" fill-rule="evenodd" fill-opacity="1" stroke="#000000" stroke-opacity="1" stroke-width="3.2"/>
<circle clip-path="url(#clip962)" cx="1266.72" cy="755.219" r="14.4" fill="#009af9" fill-rule="evenodd" fill-opacity="1" stroke="#000000" stroke-opacity="1" stroke-width="3.2"/>
<circle clip-path="url(#clip962)" cx="1642.34" cy="660.554" r="14.4" fill="#009af9" fill-rule="evenodd" fill-opacity="1" stroke="#000000" stroke-opacity="1" stroke-width="3.2"/>
<circle clip-path="url(#clip962)" cx="628.46" cy="1290.81" r="14.4" fill="#009af9" fill-rule="evenodd" fill-opacity="1" stroke="#000000" stroke-opacity="1" stroke-width="3.2"/>
<circle clip-path="url(#clip962)" cx="2155.37" cy="558.26" r="14.4" fill="#009af9" fill-rule="evenodd" fill-opacity="1" stroke="#000000" stroke-opacity="1" stroke-width="3.2"/>
<circle clip-path="url(#clip962)" cx="1494.49" cy="600.552" r="14.4" fill="#009af9" fill-rule="evenodd" fill-opacity="1" stroke="#000000" stroke-opacity="1" stroke-width="3.2"/>
<circle clip-path="url(#clip962)" cx="1081.15" cy="1193.86" r="14.4" fill="#009af9" fill-rule="evenodd" fill-opacity="1" stroke="#000000" stroke-opacity="1" stroke-width="3.2"/>
</svg>
