<?xml version="1.0" encoding="utf-8"?>
<svg xmlns="http://www.w3.org/2000/svg" xmlns:xlink="http://www.w3.org/1999/xlink" width="600" height="400" viewBox="0 0 2400 1600">
<defs>
  <clipPath id="clip250">
    <rect x="0" y="0" width="2400" height="1600"/>
  </clipPath>
</defs>
<path clip-path="url(#clip250)" d="M0 1600 L2400 1600 L2400 0 L0 0  Z" fill="#ffffff" fill-rule="evenodd" fill-opacity="1"/>
<defs>
  <clipPath id="clip251">
    <rect x="480" y="0" width="1681" height="1600"/>
  </clipPath>
</defs>
<path clip-path="url(#clip250)" d="M102.74 1505.26 L2352.76 1505.26 L2352.76 47.2441 L102.74 47.2441  Z" fill="#ffffff" fill-rule="evenodd" fill-opacity="1"/>
<defs>
  <clipPath id="clip252">
    <rect x="102" y="47" width="2251" height="1459"/>
  </clipPath>
</defs>
<polyline clip-path="url(#clip252)" style="stroke:#000000; stroke-linecap:round; stroke-linejoin:round; stroke-width:2; stroke-opacity:0.1; fill:none" points="393.578,1505.26 393.578,47.2441 "/>
<polyline clip-path="url(#clip252)" style="stroke:#000000; stroke-linecap:round; stroke-linejoin:round; stroke-width:2; stroke-opacity:0.1; fill:none" points="897.4,1505.26 897.4,47.2441 "/>
<polyline clip-path="url(#clip252)" style="stroke:#000000; stroke-linecap:round; stroke-linejoin:round; stroke-width:2; stroke-opacity:0.1; fill:none" points="1401.22,1505.26 1401.22,47.2441 "/>
<polyline clip-path="url(#clip252)" style="stroke:#000000; stroke-linecap:round; stroke-linejoin:round; stroke-width:2; stroke-opacity:0.1; fill:none" points="1905.04,1505.26 1905.04,47.2441 "/>
<polyline clip-path="url(#clip250)" style="stroke:#000000; stroke-linecap:round; stroke-linejoin:round; stroke-width:4; stroke-opacity:1; fill:none" points="102.74,1505.26 2352.76,1505.26 "/>
<polyline clip-path="url(#clip250)" style="stroke:#000000; stroke-linecap:round; stroke-linejoin:round; stroke-width:4; stroke-opacity:1; fill:none" points="393.578,1505.26 393.578,1486.36 "/>
<polyline clip-path="url(#clip250)" style="stroke:#000000; stroke-linecap:round; stroke-linejoin:round; stroke-width:4; stroke-opacity:1; fill:none" points="897.4,1505.26 897.4,1486.36 "/>
<polyline clip-path="url(#clip250)" style="stroke:#000000; stroke-linecap:round; stroke-linejoin:round; stroke-width:4; stroke-opacity:1; fill:none" points="1401.22,1505.26 1401.22,1486.36 "/>
<polyline clip-path="url(#clip250)" style="stroke:#000000; stroke-linecap:round; stroke-linejoin:round; stroke-width:4; stroke-opacity:1; fill:none" points="1905.04,1505.26 1905.04,1486.36 "/>
<path clip-path="url(#clip250)" d="M360.743 1533.1 L379.099 1533.1 L379.099 1537.04 L365.025 1537.04 L365.025 1545.51 Q366.043 1545.16 367.062 1545 Q368.08 1544.81 369.099 1544.81 Q374.886 1544.81 378.266 1547.98 Q381.645 1551.16 381.645 1556.57 Q381.645 1562.15 378.173 1565.25 Q374.701 1568.33 368.381 1568.33 Q366.205 1568.33 363.937 1567.96 Q361.692 1567.59 359.284 1566.85 L359.284 1562.15 Q361.368 1563.28 363.59 1563.84 Q365.812 1564.4 368.289 1564.4 Q372.293 1564.4 374.631 1562.29 Q376.969 1560.18 376.969 1556.57 Q376.969 1552.96 374.631 1550.85 Q372.293 1548.75 368.289 1548.75 Q366.414 1548.75 364.539 1549.16 Q362.687 1549.58 360.743 1550.46 L360.743 1533.1 Z" fill="#000000" fill-rule="nonzero" fill-opacity="1" /><path clip-path="url(#clip250)" d="M390.858 1561.78 L395.742 1561.78 L395.742 1567.66 L390.858 1567.66 L390.858 1561.78 Z" fill="#000000" fill-rule="nonzero" fill-opacity="1" /><path clip-path="url(#clip250)" d="M415.927 1536.18 Q412.316 1536.18 410.488 1539.74 Q408.682 1543.28 408.682 1550.41 Q408.682 1557.52 410.488 1561.09 Q412.316 1564.63 415.927 1564.63 Q419.562 1564.63 421.367 1561.09 Q423.196 1557.52 423.196 1550.41 Q423.196 1543.28 421.367 1539.74 Q419.562 1536.18 415.927 1536.18 M415.927 1532.47 Q421.738 1532.47 424.793 1537.08 Q427.872 1541.66 427.872 1550.41 Q427.872 1559.14 424.793 1563.75 Q421.738 1568.33 415.927 1568.33 Q410.117 1568.33 407.039 1563.75 Q403.983 1559.14 403.983 1550.41 Q403.983 1541.66 407.039 1537.08 Q410.117 1532.47 415.927 1532.47 Z" fill="#000000" fill-rule="nonzero" fill-opacity="1" /><path clip-path="url(#clip250)" d="M863.719 1533.1 L885.941 1533.1 L885.941 1535.09 L873.395 1567.66 L868.511 1567.66 L880.316 1537.04 L863.719 1537.04 L863.719 1533.1 Z" fill="#000000" fill-rule="nonzero" fill-opacity="1" /><path clip-path="url(#clip250)" d="M895.062 1561.78 L899.946 1561.78 L899.946 1567.66 L895.062 1567.66 L895.062 1561.78 Z" fill="#000000" fill-rule="nonzero" fill-opacity="1" /><path clip-path="url(#clip250)" d="M910.177 1533.1 L928.534 1533.1 L928.534 1537.04 L914.46 1537.04 L914.46 1545.51 Q915.478 1545.16 916.497 1545 Q917.515 1544.81 918.534 1544.81 Q924.321 1544.81 927.7 1547.98 Q931.08 1551.16 931.08 1556.57 Q931.08 1562.15 927.608 1565.25 Q924.136 1568.33 917.816 1568.33 Q915.64 1568.33 913.372 1567.96 Q911.126 1567.59 908.719 1566.85 L908.719 1562.15 Q910.802 1563.28 913.025 1563.84 Q915.247 1564.4 917.724 1564.4 Q921.728 1564.4 924.066 1562.29 Q926.404 1560.18 926.404 1556.57 Q926.404 1552.96 924.066 1550.85 Q921.728 1548.75 917.724 1548.75 Q915.849 1548.75 913.974 1549.16 Q912.122 1549.58 910.177 1550.46 L910.177 1533.1 Z" fill="#000000" fill-rule="nonzero" fill-opacity="1" /><path clip-path="url(#clip250)" d="M1353.29 1563.72 L1360.93 1563.72 L1360.93 1537.36 L1352.62 1539.03 L1352.62 1534.77 L1360.89 1533.1 L1365.56 1533.1 L1365.56 1563.72 L1373.2 1563.72 L1373.2 1567.66 L1353.29 1567.66 L1353.29 1563.72 Z" fill="#000000" fill-rule="nonzero" fill-opacity="1" /><path clip-path="url(#clip250)" d="M1392.65 1536.18 Q1389.03 1536.18 1387.21 1539.74 Q1385.4 1543.28 1385.4 1550.41 Q1385.4 1557.52 1387.21 1561.09 Q1389.03 1564.63 1392.65 1564.63 Q1396.28 1564.63 1398.08 1561.09 Q1399.91 1557.52 1399.91 1550.41 Q1399.91 1543.28 1398.08 1539.74 Q1396.28 1536.18 1392.65 1536.18 M1392.65 1532.47 Q1398.46 1532.47 1401.51 1537.08 Q1404.59 1541.66 1404.59 1550.41 Q1404.59 1559.14 1401.51 1563.75 Q1398.46 1568.33 1392.65 1568.33 Q1386.83 1568.33 1383.76 1563.75 Q1380.7 1559.14 1380.7 1550.41 Q1380.7 1541.66 1383.76 1537.08 Q1386.83 1532.47 1392.65 1532.47 Z" fill="#000000" fill-rule="nonzero" fill-opacity="1" /><path clip-path="url(#clip250)" d="M1412.81 1561.78 L1417.69 1561.78 L1417.69 1567.66 L1412.81 1567.66 L1412.81 1561.78 Z" fill="#000000" fill-rule="nonzero" fill-opacity="1" /><path clip-path="url(#clip250)" d="M1437.88 1536.18 Q1434.27 1536.18 1432.44 1539.74 Q1430.63 1543.28 1430.63 1550.41 Q1430.63 1557.52 1432.44 1561.09 Q1434.27 1564.63 1437.88 1564.63 Q1441.51 1564.63 1443.32 1561.09 Q1445.14 1557.52 1445.14 1550.41 Q1445.14 1543.28 1443.32 1539.74 Q1441.51 1536.18 1437.88 1536.18 M1437.88 1532.47 Q1443.69 1532.47 1446.74 1537.08 Q1449.82 1541.66 1449.82 1550.41 Q1449.82 1559.14 1446.74 1563.75 Q1443.69 1568.33 1437.88 1568.33 Q1432.07 1568.33 1428.99 1563.75 Q1425.93 1559.14 1425.93 1550.41 Q1425.93 1541.66 1428.99 1537.08 Q1432.07 1532.47 1437.88 1532.47 Z" fill="#000000" fill-rule="nonzero" fill-opacity="1" /><path clip-path="url(#clip250)" d="M1857.61 1563.72 L1865.25 1563.72 L1865.25 1537.36 L1856.94 1539.03 L1856.94 1534.77 L1865.21 1533.1 L1869.88 1533.1 L1869.88 1563.72 L1877.52 1563.72 L1877.52 1567.66 L1857.61 1567.66 L1857.61 1563.72 Z" fill="#000000" fill-rule="nonzero" fill-opacity="1" /><path clip-path="url(#clip250)" d="M1890.99 1563.72 L1907.31 1563.72 L1907.31 1567.66 L1885.37 1567.66 L1885.37 1563.72 Q1888.03 1560.97 1892.61 1556.34 Q1897.22 1551.69 1898.4 1550.35 Q1900.64 1547.82 1901.52 1546.09 Q1902.43 1544.33 1902.43 1542.64 Q1902.43 1539.88 1900.48 1538.15 Q1898.56 1536.41 1895.46 1536.41 Q1893.26 1536.41 1890.81 1537.17 Q1888.38 1537.94 1885.6 1539.49 L1885.6 1534.77 Q1888.42 1533.63 1890.88 1533.05 Q1893.33 1532.47 1895.37 1532.47 Q1900.74 1532.47 1903.93 1535.16 Q1907.13 1537.85 1907.13 1542.34 Q1907.13 1544.47 1906.32 1546.39 Q1905.53 1548.28 1903.42 1550.88 Q1902.84 1551.55 1899.74 1554.77 Q1896.64 1557.96 1890.99 1563.72 Z" fill="#000000" fill-rule="nonzero" fill-opacity="1" /><path clip-path="url(#clip250)" d="M1917.13 1561.78 L1922.01 1561.78 L1922.01 1567.66 L1917.13 1567.66 L1917.13 1561.78 Z" fill="#000000" fill-rule="nonzero" fill-opacity="1" /><path clip-path="url(#clip250)" d="M1932.24 1533.1 L1950.6 1533.1 L1950.6 1537.04 L1936.52 1537.04 L1936.52 1545.51 Q1937.54 1545.16 1938.56 1545 Q1939.58 1544.81 1940.6 1544.81 Q1946.39 1544.81 1949.77 1547.98 Q1953.14 1551.16 1953.14 1556.57 Q1953.14 1562.15 1949.67 1565.25 Q1946.2 1568.33 1939.88 1568.33 Q1937.7 1568.33 1935.44 1567.96 Q1933.19 1567.59 1930.78 1566.85 L1930.78 1562.15 Q1932.87 1563.28 1935.09 1563.84 Q1937.31 1564.4 1939.79 1564.4 Q1943.79 1564.4 1946.13 1562.29 Q1948.47 1560.18 1948.47 1556.57 Q1948.47 1552.96 1946.13 1550.85 Q1943.79 1548.75 1939.79 1548.75 Q1937.91 1548.75 1936.04 1549.16 Q1934.19 1549.58 1932.24 1550.46 L1932.24 1533.1 Z" fill="#000000" fill-rule="nonzero" fill-opacity="1" /><path clip-path="url(#clip250)" d="M1071.45 1602.6 L1101.5 1602.6 L1101.5 1608.01 L1077.88 1608.01 L1077.88 1622.08 L1100.51 1622.08 L1100.51 1627.49 L1077.88 1627.49 L1077.88 1644.71 L1102.07 1644.71 L1102.07 1650.12 L1071.45 1650.12 L1071.45 1602.6 Z" fill="#000000" fill-rule="nonzero" fill-opacity="1" /><path clip-path="url(#clip250)" d="M1135.84 1619.89 L1135.84 1600.6 L1141.7 1600.6 L1141.7 1650.12 L1135.84 1650.12 L1135.84 1644.78 Q1134 1647.96 1131.16 1649.52 Q1128.36 1651.05 1124.42 1651.05 Q1117.96 1651.05 1113.88 1645.89 Q1109.84 1640.73 1109.84 1632.33 Q1109.84 1623.93 1113.88 1618.77 Q1117.96 1613.62 1124.42 1613.62 Q1128.36 1613.62 1131.16 1615.18 Q1134 1616.7 1135.84 1619.89 M1115.89 1632.33 Q1115.89 1638.79 1118.53 1642.48 Q1121.2 1646.15 1125.85 1646.15 Q1130.5 1646.15 1133.17 1642.48 Q1135.84 1638.79 1135.84 1632.33 Q1135.84 1625.87 1133.17 1622.21 Q1130.5 1618.52 1125.85 1618.52 Q1121.2 1618.52 1118.53 1622.21 Q1115.89 1625.87 1115.89 1632.33 Z" fill="#000000" fill-rule="nonzero" fill-opacity="1" /><path clip-path="url(#clip250)" d="M1153.16 1636.06 L1153.16 1614.48 L1159.01 1614.48 L1159.01 1635.83 Q1159.01 1640.89 1160.99 1643.44 Q1162.96 1645.95 1166.91 1645.95 Q1171.65 1645.95 1174.39 1642.93 Q1177.16 1639.91 1177.16 1634.69 L1177.16 1614.48 L1183.01 1614.48 L1183.01 1650.12 L1177.16 1650.12 L1177.16 1644.65 Q1175.02 1647.9 1172.19 1649.49 Q1169.39 1651.05 1165.67 1651.05 Q1159.52 1651.05 1156.34 1647.23 Q1153.16 1643.41 1153.16 1636.06 M1167.89 1613.62 L1167.89 1613.62 Z" fill="#000000" fill-rule="nonzero" fill-opacity="1" /><path clip-path="url(#clip250)" d="M1220.73 1615.84 L1220.73 1621.32 Q1218.25 1619.95 1215.73 1619.28 Q1213.25 1618.58 1210.7 1618.58 Q1205.01 1618.58 1201.86 1622.21 Q1198.7 1625.81 1198.7 1632.33 Q1198.7 1638.86 1201.86 1642.48 Q1205.01 1646.08 1210.7 1646.08 Q1213.25 1646.08 1215.73 1645.41 Q1218.25 1644.71 1220.73 1643.34 L1220.73 1648.76 Q1218.28 1649.9 1215.64 1650.47 Q1213.03 1651.05 1210.07 1651.05 Q1202.01 1651.05 1197.27 1645.99 Q1192.53 1640.93 1192.53 1632.33 Q1192.53 1623.61 1197.3 1618.61 Q1202.11 1613.62 1210.45 1613.62 Q1213.15 1613.62 1215.73 1614.19 Q1218.31 1614.73 1220.73 1615.84 Z" fill="#000000" fill-rule="nonzero" fill-opacity="1" /><path clip-path="url(#clip250)" d="M1247.12 1632.2 Q1240.02 1632.2 1237.28 1633.83 Q1234.54 1635.45 1234.54 1639.37 Q1234.54 1642.48 1236.58 1644.33 Q1238.65 1646.15 1242.18 1646.15 Q1247.05 1646.15 1249.98 1642.71 Q1252.94 1639.24 1252.94 1633.51 L1252.94 1632.2 L1247.12 1632.2 M1258.8 1629.79 L1258.8 1650.12 L1252.94 1650.12 L1252.94 1644.71 Q1250.94 1647.96 1247.94 1649.52 Q1244.95 1651.05 1240.62 1651.05 Q1235.15 1651.05 1231.9 1647.99 Q1228.69 1644.9 1228.69 1639.75 Q1228.69 1633.73 1232.7 1630.68 Q1236.74 1627.62 1244.73 1627.62 L1252.94 1627.62 L1252.94 1627.05 Q1252.94 1623.01 1250.27 1620.81 Q1247.62 1618.58 1242.82 1618.58 Q1239.76 1618.58 1236.87 1619.31 Q1233.97 1620.05 1231.3 1621.51 L1231.3 1616.1 Q1234.51 1614.86 1237.54 1614.25 Q1240.56 1613.62 1243.42 1613.62 Q1251.16 1613.62 1254.98 1617.63 Q1258.8 1621.64 1258.8 1629.79 Z" fill="#000000" fill-rule="nonzero" fill-opacity="1" /><path clip-path="url(#clip250)" d="M1276.65 1604.35 L1276.65 1614.48 L1288.72 1614.48 L1288.72 1619.03 L1276.65 1619.03 L1276.65 1638.38 Q1276.65 1642.74 1277.83 1643.98 Q1279.04 1645.22 1282.7 1645.22 L1288.72 1645.22 L1288.72 1650.12 L1282.7 1650.12 Q1275.92 1650.12 1273.34 1647.61 Q1270.76 1645.06 1270.76 1638.38 L1270.76 1619.03 L1266.47 1619.03 L1266.47 1614.48 L1270.76 1614.48 L1270.76 1604.35 L1276.65 1604.35 Z" fill="#000000" fill-rule="nonzero" fill-opacity="1" /><path clip-path="url(#clip250)" d="M1296.42 1614.48 L1302.27 1614.48 L1302.27 1650.12 L1296.42 1650.12 L1296.42 1614.48 M1296.42 1600.6 L1302.27 1600.6 L1302.27 1608.01 L1296.42 1608.01 L1296.42 1600.6 Z" fill="#000000" fill-rule="nonzero" fill-opacity="1" /><path clip-path="url(#clip250)" d="M1328.34 1618.58 Q1323.63 1618.58 1320.89 1622.27 Q1318.16 1625.93 1318.16 1632.33 Q1318.16 1638.73 1320.86 1642.42 Q1323.6 1646.08 1328.34 1646.08 Q1333.02 1646.08 1335.76 1642.39 Q1338.5 1638.7 1338.5 1632.33 Q1338.5 1626 1335.76 1622.31 Q1333.02 1618.58 1328.34 1618.58 M1328.34 1613.62 Q1335.98 1613.62 1340.34 1618.58 Q1344.7 1623.55 1344.7 1632.33 Q1344.7 1641.08 1340.34 1646.08 Q1335.98 1651.05 1328.34 1651.05 Q1320.67 1651.05 1316.31 1646.08 Q1311.98 1641.08 1311.98 1632.33 Q1311.98 1623.55 1316.31 1618.58 Q1320.67 1613.62 1328.34 1613.62 Z" fill="#000000" fill-rule="nonzero" fill-opacity="1" /><path clip-path="url(#clip250)" d="M1384.04 1628.61 L1384.04 1650.12 L1378.19 1650.12 L1378.19 1628.8 Q1378.19 1623.74 1376.21 1621.22 Q1374.24 1618.71 1370.29 1618.71 Q1365.55 1618.71 1362.81 1621.73 Q1360.08 1624.76 1360.08 1629.98 L1360.08 1650.12 L1354.19 1650.12 L1354.19 1614.48 L1360.08 1614.48 L1360.08 1620.01 Q1362.18 1616.8 1365.01 1615.21 Q1367.87 1613.62 1371.6 1613.62 Q1377.74 1613.62 1380.89 1617.44 Q1384.04 1621.22 1384.04 1628.61 Z" fill="#000000" fill-rule="nonzero" fill-opacity="1" /><polyline clip-path="url(#clip252)" style="stroke:#000000; stroke-linecap:round; stroke-linejoin:round; stroke-width:2; stroke-opacity:0.1; fill:none" points="102.74,1302.53 2352.76,1302.53 "/>
<polyline clip-path="url(#clip252)" style="stroke:#000000; stroke-linecap:round; stroke-linejoin:round; stroke-width:2; stroke-opacity:0.1; fill:none" points="102.74,1076.41 2352.76,1076.41 "/>
<polyline clip-path="url(#clip252)" style="stroke:#000000; stroke-linecap:round; stroke-linejoin:round; stroke-width:2; stroke-opacity:0.1; fill:none" points="102.74,850.3 2352.76,850.3 "/>
<polyline clip-path="url(#clip252)" style="stroke:#000000; stroke-linecap:round; stroke-linejoin:round; stroke-width:2; stroke-opacity:0.1; fill:none" points="102.74,624.186 2352.76,624.186 "/>
<polyline clip-path="url(#clip252)" style="stroke:#000000; stroke-linecap:round; stroke-linejoin:round; stroke-width:2; stroke-opacity:0.1; fill:none" points="102.74,398.071 2352.76,398.071 "/>
<polyline clip-path="url(#clip252)" style="stroke:#000000; stroke-linecap:round; stroke-linejoin:round; stroke-width:2; stroke-opacity:0.1; fill:none" points="102.74,171.957 2352.76,171.957 "/>
<polyline clip-path="url(#clip250)" style="stroke:#000000; stroke-linecap:round; stroke-linejoin:round; stroke-width:4; stroke-opacity:1; fill:none" points="102.74,1505.26 102.74,47.2441 "/>
<polyline clip-path="url(#clip250)" style="stroke:#000000; stroke-linecap:round; stroke-linejoin:round; stroke-width:4; stroke-opacity:1; fill:none" points="102.74,1302.53 121.638,1302.53 "/>
<polyline clip-path="url(#clip250)" style="stroke:#000000; stroke-linecap:round; stroke-linejoin:round; stroke-width:4; stroke-opacity:1; fill:none" points="102.74,1076.41 121.638,1076.41 "/>
<polyline clip-path="url(#clip250)" style="stroke:#000000; stroke-linecap:round; stroke-linejoin:round; stroke-width:4; stroke-opacity:1; fill:none" points="102.74,850.3 121.638,850.3 "/>
<polyline clip-path="url(#clip250)" style="stroke:#000000; stroke-linecap:round; stroke-linejoin:round; stroke-width:4; stroke-opacity:1; fill:none" points="102.74,624.186 121.638,624.186 "/>
<polyline clip-path="url(#clip250)" style="stroke:#000000; stroke-linecap:round; stroke-linejoin:round; stroke-width:4; stroke-opacity:1; fill:none" points="102.74,398.071 121.638,398.071 "/>
<polyline clip-path="url(#clip250)" style="stroke:#000000; stroke-linecap:round; stroke-linejoin:round; stroke-width:4; stroke-opacity:1; fill:none" points="102.74,171.957 121.638,171.957 "/>
<path clip-path="url(#clip250)" d="M-31.5232 1301.17 Q-28.1667 1301.89 -26.2918 1304.16 Q-24.3936 1306.43 -24.3936 1309.76 Q-24.3936 1314.88 -27.9121 1317.68 Q-31.4306 1320.48 -37.9121 1320.48 Q-40.088 1320.48 -42.4028 1320.04 Q-44.6944 1319.62 -47.1481 1318.77 L-47.1481 1314.25 Q-45.2037 1315.39 -42.8889 1315.97 Q-40.5741 1316.54 -38.0509 1316.54 Q-33.6528 1316.54 -31.3612 1314.81 Q-29.0464 1313.07 -29.0464 1309.76 Q-29.0464 1306.71 -31.1991 1304.99 Q-33.3288 1303.26 -37.1482 1303.26 L-41.1759 1303.26 L-41.1759 1299.42 L-36.963 1299.42 Q-33.5139 1299.42 -31.6852 1298.05 Q-29.8565 1296.66 -29.8565 1294.07 Q-29.8565 1291.41 -31.7547 1289.99 Q-33.6297 1288.56 -37.1482 1288.56 Q-39.0695 1288.56 -41.2685 1288.98 Q-43.4676 1289.39 -46.1065 1290.27 L-46.1065 1286.11 Q-43.4444 1285.36 -41.1296 1284.99 Q-38.7917 1284.62 -36.7315 1284.62 Q-31.4075 1284.62 -28.3056 1287.05 Q-25.2038 1289.46 -25.2038 1293.58 Q-25.2038 1296.45 -26.8473 1298.44 Q-28.4908 1300.41 -31.5232 1301.17 Z" fill="#000000" fill-rule="nonzero" fill-opacity="1" /><path clip-path="url(#clip250)" d="M-5.52797 1288.33 Q-9.13907 1288.33 -10.9678 1291.89 Q-12.7733 1295.43 -12.7733 1302.56 Q-12.7733 1309.67 -10.9678 1313.23 Q-9.13907 1316.78 -5.52797 1316.78 Q-1.89373 1316.78 -0.0881881 1313.23 Q1.74051 1309.67 1.74051 1302.56 Q1.74051 1295.43 -0.0881881 1291.89 Q-1.89373 1288.33 -5.52797 1288.33 M-5.52797 1284.62 Q0.28218 1284.62 3.33772 1289.23 Q6.41641 1293.81 6.41641 1302.56 Q6.41641 1311.29 3.33772 1315.9 Q0.28218 1320.48 -5.52797 1320.48 Q-11.3381 1320.48 -14.4168 1315.9 Q-17.4724 1311.29 -17.4724 1302.56 Q-17.4724 1293.81 -14.4168 1289.23 Q-11.3381 1284.62 -5.52797 1284.62 Z" fill="#000000" fill-rule="nonzero" fill-opacity="1" /><path clip-path="url(#clip250)" d="M24.6339 1288.33 Q21.0228 1288.33 19.1941 1291.89 Q17.3886 1295.43 17.3886 1302.56 Q17.3886 1309.67 19.1941 1313.23 Q21.0228 1316.78 24.6339 1316.78 Q28.2681 1316.78 30.0737 1313.23 Q31.9024 1309.67 31.9024 1302.56 Q31.9024 1295.43 30.0737 1291.89 Q28.2681 1288.33 24.6339 1288.33 M24.6339 1284.62 Q30.4441 1284.62 33.4996 1289.23 Q36.5783 1293.81 36.5783 1302.56 Q36.5783 1311.29 33.4996 1315.9 Q30.4441 1320.48 24.6339 1320.48 Q18.8237 1320.48 15.7451 1315.9 Q12.6895 1311.29 12.6895 1302.56 Q12.6895 1293.81 15.7451 1289.23 Q18.8237 1284.62 24.6339 1284.62 Z" fill="#000000" fill-rule="nonzero" fill-opacity="1" /><path clip-path="url(#clip250)" d="M54.7958 1288.33 Q51.1847 1288.33 49.356 1291.89 Q47.5504 1295.43 47.5504 1302.56 Q47.5504 1309.67 49.356 1313.23 Q51.1847 1316.78 54.7958 1316.78 Q58.43 1316.78 60.2356 1313.23 Q62.0643 1309.67 62.0643 1302.56 Q62.0643 1295.43 60.2356 1291.89 Q58.43 1288.33 54.7958 1288.33 M54.7958 1284.62 Q60.6059 1284.62 63.6615 1289.23 Q66.7402 1293.81 66.7402 1302.56 Q66.7402 1311.29 63.6615 1315.9 Q60.6059 1320.48 54.7958 1320.48 Q48.9856 1320.48 45.9069 1315.9 Q42.8514 1311.29 42.8514 1302.56 Q42.8514 1293.81 45.9069 1289.23 Q48.9856 1284.62 54.7958 1284.62 Z" fill="#000000" fill-rule="nonzero" fill-opacity="1" /><path clip-path="url(#clip250)" d="M-31.5232 1075.06 Q-28.1667 1075.78 -26.2918 1078.05 Q-24.3936 1080.31 -24.3936 1083.65 Q-24.3936 1088.76 -27.9121 1091.56 Q-31.4306 1094.37 -37.9121 1094.37 Q-40.088 1094.37 -42.4028 1093.93 Q-44.6944 1093.51 -47.1481 1092.65 L-47.1481 1088.14 Q-45.2037 1089.27 -42.8889 1089.85 Q-40.5741 1090.43 -38.0509 1090.43 Q-33.6528 1090.43 -31.3612 1088.69 Q-29.0464 1086.96 -29.0464 1083.65 Q-29.0464 1080.59 -31.1991 1078.88 Q-33.3288 1077.14 -37.1482 1077.14 L-41.1759 1077.14 L-41.1759 1073.3 L-36.963 1073.3 Q-33.5139 1073.3 -31.6852 1071.94 Q-29.8565 1070.55 -29.8565 1067.95 Q-29.8565 1065.29 -31.7547 1063.88 Q-33.6297 1062.44 -37.1482 1062.44 Q-39.0695 1062.44 -41.2685 1062.86 Q-43.4676 1063.28 -46.1065 1064.16 L-46.1065 1059.99 Q-43.4444 1059.25 -41.1296 1058.88 Q-38.7917 1058.51 -36.7315 1058.51 Q-31.4075 1058.51 -28.3056 1060.94 Q-25.2038 1063.35 -25.2038 1067.47 Q-25.2038 1070.34 -26.8473 1072.33 Q-28.4908 1074.3 -31.5232 1075.06 Z" fill="#000000" fill-rule="nonzero" fill-opacity="1" /><path clip-path="url(#clip250)" d="M-15.4816 1059.13 L2.87476 1059.13 L2.87476 1063.07 L-11.1992 1063.07 L-11.1992 1071.54 Q-10.1807 1071.19 -9.16221 1071.03 Q-8.1437 1070.85 -7.12519 1070.85 Q-1.33818 1070.85 2.04143 1074.02 Q5.42104 1077.19 5.42104 1082.61 Q5.42104 1088.19 1.94884 1091.29 Q-1.52337 1094.37 -7.84278 1094.37 Q-10.0187 1094.37 -12.2872 1094 Q-14.5326 1093.62 -16.9399 1092.88 L-16.9399 1088.19 Q-14.8566 1089.32 -12.6344 1089.88 Q-10.4122 1090.43 -7.93537 1090.43 Q-3.93076 1090.43 -1.59281 1088.32 Q0.745141 1086.22 0.745141 1082.61 Q0.745141 1079 -1.59281 1076.89 Q-3.93076 1074.78 -7.93537 1074.78 Q-9.81036 1074.78 -11.6853 1075.2 Q-13.5372 1075.62 -15.4816 1076.5 L-15.4816 1059.13 Z" fill="#000000" fill-rule="nonzero" fill-opacity="1" /><path clip-path="url(#clip250)" d="M24.6339 1062.21 Q21.0228 1062.21 19.1941 1065.78 Q17.3886 1069.32 17.3886 1076.45 Q17.3886 1083.56 19.1941 1087.12 Q21.0228 1090.66 24.6339 1090.66 Q28.2681 1090.66 30.0737 1087.12 Q31.9024 1083.56 31.9024 1076.45 Q31.9024 1069.32 30.0737 1065.78 Q28.2681 1062.21 24.6339 1062.21 M24.6339 1058.51 Q30.4441 1058.51 33.4996 1063.12 Q36.5783 1067.7 36.5783 1076.45 Q36.5783 1085.18 33.4996 1089.78 Q30.4441 1094.37 24.6339 1094.37 Q18.8237 1094.37 15.7451 1089.78 Q12.6895 1085.18 12.6895 1076.45 Q12.6895 1067.7 15.7451 1063.12 Q18.8237 1058.51 24.6339 1058.51 Z" fill="#000000" fill-rule="nonzero" fill-opacity="1" /><path clip-path="url(#clip250)" d="M54.7958 1062.21 Q51.1847 1062.21 49.356 1065.78 Q47.5504 1069.32 47.5504 1076.45 Q47.5504 1083.56 49.356 1087.12 Q51.1847 1090.66 54.7958 1090.66 Q58.43 1090.66 60.2356 1087.12 Q62.0643 1083.56 62.0643 1076.45 Q62.0643 1069.32 60.2356 1065.78 Q58.43 1062.21 54.7958 1062.21 M54.7958 1058.51 Q60.6059 1058.51 63.6615 1063.12 Q66.7402 1067.7 66.7402 1076.45 Q66.7402 1085.18 63.6615 1089.78 Q60.6059 1094.37 54.7958 1094.37 Q48.9856 1094.37 45.9069 1089.78 Q42.8514 1085.18 42.8514 1076.45 Q42.8514 1067.7 45.9069 1063.12 Q48.9856 1058.51 54.7958 1058.51 Z" fill="#000000" fill-rule="nonzero" fill-opacity="1" /><path clip-path="url(#clip250)" d="M-32.8426 837.094 L-44.6481 855.543 L-32.8426 855.543 L-32.8426 837.094 M-34.0695 833.02 L-28.1899 833.02 L-28.1899 855.543 L-23.2594 855.543 L-23.2594 859.432 L-28.1899 859.432 L-28.1899 867.58 L-32.8426 867.58 L-32.8426 859.432 L-48.4444 859.432 L-48.4444 854.918 L-34.0695 833.02 Z" fill="#000000" fill-rule="nonzero" fill-opacity="1" /><path clip-path="url(#clip250)" d="M-5.52797 836.099 Q-9.13907 836.099 -10.9678 839.664 Q-12.7733 843.205 -12.7733 850.335 Q-12.7733 857.441 -10.9678 861.006 Q-9.13907 864.548 -5.52797 864.548 Q-1.89373 864.548 -0.0881881 861.006 Q1.74051 857.441 1.74051 850.335 Q1.74051 843.205 -0.0881881 839.664 Q-1.89373 836.099 -5.52797 836.099 M-5.52797 832.395 Q0.28218 832.395 3.33772 837.001 Q6.41641 841.585 6.41641 850.335 Q6.41641 859.062 3.33772 863.668 Q0.28218 868.251 -5.52797 868.251 Q-11.3381 868.251 -14.4168 863.668 Q-17.4724 859.062 -17.4724 850.335 Q-17.4724 841.585 -14.4168 837.001 Q-11.3381 832.395 -5.52797 832.395 Z" fill="#000000" fill-rule="nonzero" fill-opacity="1" /><path clip-path="url(#clip250)" d="M24.6339 836.099 Q21.0228 836.099 19.1941 839.664 Q17.3886 843.205 17.3886 850.335 Q17.3886 857.441 19.1941 861.006 Q21.0228 864.548 24.6339 864.548 Q28.2681 864.548 30.0737 861.006 Q31.9024 857.441 31.9024 850.335 Q31.9024 843.205 30.0737 839.664 Q28.2681 836.099 24.6339 836.099 M24.6339 832.395 Q30.4441 832.395 33.4996 837.001 Q36.5783 841.585 36.5783 850.335 Q36.5783 859.062 33.4996 863.668 Q30.4441 868.251 24.6339 868.251 Q18.8237 868.251 15.7451 863.668 Q12.6895 859.062 12.6895 850.335 Q12.6895 841.585 15.7451 837.001 Q18.8237 832.395 24.6339 832.395 Z" fill="#000000" fill-rule="nonzero" fill-opacity="1" /><path clip-path="url(#clip250)" d="M54.7958 836.099 Q51.1847 836.099 49.356 839.664 Q47.5504 843.205 47.5504 850.335 Q47.5504 857.441 49.356 861.006 Q51.1847 864.548 54.7958 864.548 Q58.43 864.548 60.2356 861.006 Q62.0643 857.441 62.0643 850.335 Q62.0643 843.205 60.2356 839.664 Q58.43 836.099 54.7958 836.099 M54.7958 832.395 Q60.6059 832.395 63.6615 837.001 Q66.7402 841.585 66.7402 850.335 Q66.7402 859.062 63.6615 863.668 Q60.6059 868.251 54.7958 868.251 Q48.9856 868.251 45.9069 863.668 Q42.8514 859.062 42.8514 850.335 Q42.8514 841.585 45.9069 837.001 Q48.9856 832.395 54.7958 832.395 Z" fill="#000000" fill-rule="nonzero" fill-opacity="1" /><path clip-path="url(#clip250)" d="M-32.8426 610.98 L-44.6481 629.429 L-32.8426 629.429 L-32.8426 610.98 M-34.0695 606.906 L-28.1899 606.906 L-28.1899 629.429 L-23.2594 629.429 L-23.2594 633.318 L-28.1899 633.318 L-28.1899 641.466 L-32.8426 641.466 L-32.8426 633.318 L-48.4444 633.318 L-48.4444 628.804 L-34.0695 606.906 Z" fill="#000000" fill-rule="nonzero" fill-opacity="1" /><path clip-path="url(#clip250)" d="M-15.4816 606.906 L2.87476 606.906 L2.87476 610.841 L-11.1992 610.841 L-11.1992 619.313 Q-10.1807 618.966 -9.16221 618.804 Q-8.1437 618.619 -7.12519 618.619 Q-1.33818 618.619 2.04143 621.79 Q5.42104 624.961 5.42104 630.378 Q5.42104 635.956 1.94884 639.058 Q-1.52337 642.137 -7.84278 642.137 Q-10.0187 642.137 -12.2872 641.767 Q-14.5326 641.396 -16.9399 640.655 L-16.9399 635.956 Q-14.8566 637.091 -12.6344 637.646 Q-10.4122 638.202 -7.93537 638.202 Q-3.93076 638.202 -1.59281 636.095 Q0.745141 633.989 0.745141 630.378 Q0.745141 626.767 -1.59281 624.66 Q-3.93076 622.554 -7.93537 622.554 Q-9.81036 622.554 -11.6853 622.97 Q-13.5372 623.387 -15.4816 624.267 L-15.4816 606.906 Z" fill="#000000" fill-rule="nonzero" fill-opacity="1" /><path clip-path="url(#clip250)" d="M24.6339 609.984 Q21.0228 609.984 19.1941 613.549 Q17.3886 617.091 17.3886 624.22 Q17.3886 631.327 19.1941 634.892 Q21.0228 638.433 24.6339 638.433 Q28.2681 638.433 30.0737 634.892 Q31.9024 631.327 31.9024 624.22 Q31.9024 617.091 30.0737 613.549 Q28.2681 609.984 24.6339 609.984 M24.6339 606.281 Q30.4441 606.281 33.4996 610.887 Q36.5783 615.47 36.5783 624.22 Q36.5783 632.947 33.4996 637.554 Q30.4441 642.137 24.6339 642.137 Q18.8237 642.137 15.7451 637.554 Q12.6895 632.947 12.6895 624.22 Q12.6895 615.47 15.7451 610.887 Q18.8237 606.281 24.6339 606.281 Z" fill="#000000" fill-rule="nonzero" fill-opacity="1" /><path clip-path="url(#clip250)" d="M54.7958 609.984 Q51.1847 609.984 49.356 613.549 Q47.5504 617.091 47.5504 624.22 Q47.5504 631.327 49.356 634.892 Q51.1847 638.433 54.7958 638.433 Q58.43 638.433 60.2356 634.892 Q62.0643 631.327 62.0643 624.22 Q62.0643 617.091 60.2356 613.549 Q58.43 609.984 54.7958 609.984 M54.7958 606.281 Q60.6059 606.281 63.6615 610.887 Q66.7402 615.47 66.7402 624.22 Q66.7402 632.947 63.6615 637.554 Q60.6059 642.137 54.7958 642.137 Q48.9856 642.137 45.9069 637.554 Q42.8514 632.947 42.8514 624.22 Q42.8514 615.47 45.9069 610.887 Q48.9856 606.281 54.7958 606.281 Z" fill="#000000" fill-rule="nonzero" fill-opacity="1" /><path clip-path="url(#clip250)" d="M-45.6435 380.791 L-27.2871 380.791 L-27.2871 384.726 L-41.3611 384.726 L-41.3611 393.199 Q-40.3426 392.851 -39.3241 392.689 Q-38.3056 392.504 -37.2871 392.504 Q-31.5001 392.504 -28.1204 395.675 Q-24.7408 398.847 -24.7408 404.263 Q-24.7408 409.842 -28.213 412.944 Q-31.6852 416.023 -38.0047 416.023 Q-40.1806 416.023 -42.4491 415.652 Q-44.6944 415.282 -47.1018 414.541 L-47.1018 409.842 Q-45.0185 410.976 -42.7963 411.532 Q-40.5741 412.087 -38.0972 412.087 Q-34.0926 412.087 -31.7547 409.981 Q-29.4167 407.874 -29.4167 404.263 Q-29.4167 400.652 -31.7547 398.546 Q-34.0926 396.439 -38.0972 396.439 Q-39.9722 396.439 -41.8472 396.856 Q-43.6991 397.273 -45.6435 398.152 L-45.6435 380.791 Z" fill="#000000" fill-rule="nonzero" fill-opacity="1" /><path clip-path="url(#clip250)" d="M-5.52797 383.87 Q-9.13907 383.87 -10.9678 387.435 Q-12.7733 390.976 -12.7733 398.106 Q-12.7733 405.212 -10.9678 408.777 Q-9.13907 412.319 -5.52797 412.319 Q-1.89373 412.319 -0.0881881 408.777 Q1.74051 405.212 1.74051 398.106 Q1.74051 390.976 -0.0881881 387.435 Q-1.89373 383.87 -5.52797 383.87 M-5.52797 380.166 Q0.28218 380.166 3.33772 384.773 Q6.41641 389.356 6.41641 398.106 Q6.41641 406.833 3.33772 411.439 Q0.28218 416.023 -5.52797 416.023 Q-11.3381 416.023 -14.4168 411.439 Q-17.4724 406.833 -17.4724 398.106 Q-17.4724 389.356 -14.4168 384.773 Q-11.3381 380.166 -5.52797 380.166 Z" fill="#000000" fill-rule="nonzero" fill-opacity="1" /><path clip-path="url(#clip250)" d="M24.6339 383.87 Q21.0228 383.87 19.1941 387.435 Q17.3886 390.976 17.3886 398.106 Q17.3886 405.212 19.1941 408.777 Q21.0228 412.319 24.6339 412.319 Q28.2681 412.319 30.0737 408.777 Q31.9024 405.212 31.9024 398.106 Q31.9024 390.976 30.0737 387.435 Q28.2681 383.87 24.6339 383.87 M24.6339 380.166 Q30.4441 380.166 33.4996 384.773 Q36.5783 389.356 36.5783 398.106 Q36.5783 406.833 33.4996 411.439 Q30.4441 416.023 24.6339 416.023 Q18.8237 416.023 15.7451 411.439 Q12.6895 406.833 12.6895 398.106 Q12.6895 389.356 15.7451 384.773 Q18.8237 380.166 24.6339 380.166 Z" fill="#000000" fill-rule="nonzero" fill-opacity="1" /><path clip-path="url(#clip250)" d="M54.7958 383.87 Q51.1847 383.87 49.356 387.435 Q47.5504 390.976 47.5504 398.106 Q47.5504 405.212 49.356 408.777 Q51.1847 412.319 54.7958 412.319 Q58.43 412.319 60.2356 408.777 Q62.0643 405.212 62.0643 398.106 Q62.0643 390.976 60.2356 387.435 Q58.43 383.87 54.7958 383.87 M54.7958 380.166 Q60.6059 380.166 63.6615 384.773 Q66.7402 389.356 66.7402 398.106 Q66.7402 406.833 63.6615 411.439 Q60.6059 416.023 54.7958 416.023 Q48.9856 416.023 45.9069 411.439 Q42.8514 406.833 42.8514 398.106 Q42.8514 389.356 45.9069 384.773 Q48.9856 380.166 54.7958 380.166 Z" fill="#000000" fill-rule="nonzero" fill-opacity="1" /><path clip-path="url(#clip250)" d="M-45.6435 154.677 L-27.2871 154.677 L-27.2871 158.612 L-41.3611 158.612 L-41.3611 167.084 Q-40.3426 166.737 -39.3241 166.575 Q-38.3056 166.39 -37.2871 166.39 Q-31.5001 166.39 -28.1204 169.561 Q-24.7408 172.732 -24.7408 178.149 Q-24.7408 183.728 -28.213 186.829 Q-31.6852 189.908 -38.0047 189.908 Q-40.1806 189.908 -42.4491 189.538 Q-44.6944 189.167 -47.1018 188.427 L-47.1018 183.728 Q-45.0185 184.862 -42.7963 185.417 Q-40.5741 185.973 -38.0972 185.973 Q-34.0926 185.973 -31.7547 183.867 Q-29.4167 181.76 -29.4167 178.149 Q-29.4167 174.538 -31.7547 172.431 Q-34.0926 170.325 -38.0972 170.325 Q-39.9722 170.325 -41.8472 170.742 Q-43.6991 171.158 -45.6435 172.038 L-45.6435 154.677 Z" fill="#000000" fill-rule="nonzero" fill-opacity="1" /><path clip-path="url(#clip250)" d="M-15.4816 154.677 L2.87476 154.677 L2.87476 158.612 L-11.1992 158.612 L-11.1992 167.084 Q-10.1807 166.737 -9.16221 166.575 Q-8.1437 166.39 -7.12519 166.39 Q-1.33818 166.39 2.04143 169.561 Q5.42104 172.732 5.42104 178.149 Q5.42104 183.728 1.94884 186.829 Q-1.52337 189.908 -7.84278 189.908 Q-10.0187 189.908 -12.2872 189.538 Q-14.5326 189.167 -16.9399 188.427 L-16.9399 183.728 Q-14.8566 184.862 -12.6344 185.417 Q-10.4122 185.973 -7.93537 185.973 Q-3.93076 185.973 -1.59281 183.867 Q0.745141 181.76 0.745141 178.149 Q0.745141 174.538 -1.59281 172.431 Q-3.93076 170.325 -7.93537 170.325 Q-9.81036 170.325 -11.6853 170.742 Q-13.5372 171.158 -15.4816 172.038 L-15.4816 154.677 Z" fill="#000000" fill-rule="nonzero" fill-opacity="1" /><path clip-path="url(#clip250)" d="M24.6339 157.756 Q21.0228 157.756 19.1941 161.32 Q17.3886 164.862 17.3886 171.992 Q17.3886 179.098 19.1941 182.663 Q21.0228 186.204 24.6339 186.204 Q28.2681 186.204 30.0737 182.663 Q31.9024 179.098 31.9024 171.992 Q31.9024 164.862 30.0737 161.32 Q28.2681 157.756 24.6339 157.756 M24.6339 154.052 Q30.4441 154.052 33.4996 158.658 Q36.5783 163.242 36.5783 171.992 Q36.5783 180.718 33.4996 185.325 Q30.4441 189.908 24.6339 189.908 Q18.8237 189.908 15.7451 185.325 Q12.6895 180.718 12.6895 171.992 Q12.6895 163.242 15.7451 158.658 Q18.8237 154.052 24.6339 154.052 Z" fill="#000000" fill-rule="nonzero" fill-opacity="1" /><path clip-path="url(#clip250)" d="M54.7958 157.756 Q51.1847 157.756 49.356 161.32 Q47.5504 164.862 47.5504 171.992 Q47.5504 179.098 49.356 182.663 Q51.1847 186.204 54.7958 186.204 Q58.43 186.204 60.2356 182.663 Q62.0643 179.098 62.0643 171.992 Q62.0643 164.862 60.2356 161.32 Q58.43 157.756 54.7958 157.756 M54.7958 154.052 Q60.6059 154.052 63.6615 158.658 Q66.7402 163.242 66.7402 171.992 Q66.7402 180.718 63.6615 185.325 Q60.6059 189.908 54.7958 189.908 Q48.9856 189.908 45.9069 185.325 Q42.8514 180.718 42.8514 171.992 Q42.8514 163.242 45.9069 158.658 Q48.9856 154.052 54.7958 154.052 Z" fill="#000000" fill-rule="nonzero" fill-opacity="1" /><path clip-path="url(#clip250)" d="M-146.22 891.248 L-146.22 884.819 L-98.7004 884.819 L-98.7004 891.248 L-146.22 891.248 Z" fill="#000000" fill-rule="nonzero" fill-opacity="1" /><path clip-path="url(#clip250)" d="M-120.216 842.646 L-98.7004 842.646 L-98.7004 848.503 L-120.026 848.503 Q-125.086 848.503 -127.601 850.476 Q-130.115 852.449 -130.115 856.396 Q-130.115 861.139 -127.091 863.876 Q-124.068 866.613 -118.848 866.613 L-98.7004 866.613 L-98.7004 872.501 L-134.348 872.501 L-134.348 866.613 L-128.81 866.613 Q-132.025 864.512 -133.616 861.68 Q-135.208 858.815 -135.208 855.091 Q-135.208 848.948 -131.388 845.797 Q-127.601 842.646 -120.216 842.646 Z" fill="#000000" fill-rule="nonzero" fill-opacity="1" /><path clip-path="url(#clip250)" d="M-132.98 805.311 L-127.505 805.311 Q-128.874 807.794 -129.542 810.308 Q-130.242 812.791 -130.242 815.337 Q-130.242 821.035 -126.614 824.186 Q-123.017 827.337 -116.493 827.337 Q-109.968 827.337 -106.339 824.186 Q-102.743 821.035 -102.743 815.337 Q-102.743 812.791 -103.411 810.308 Q-104.111 807.794 -105.48 805.311 L-100.069 805.311 Q-98.9232 807.762 -98.3503 810.404 Q-97.7774 813.014 -97.7774 815.974 Q-97.7774 824.027 -102.838 828.769 Q-107.899 833.511 -116.493 833.511 Q-125.214 833.511 -130.211 828.737 Q-135.208 823.931 -135.208 815.592 Q-135.208 812.887 -134.635 810.308 Q-134.094 807.73 -132.98 805.311 Z" fill="#000000" fill-rule="nonzero" fill-opacity="1" /><path clip-path="url(#clip250)" d="M-130.242 781.313 Q-130.242 786.023 -126.55 788.761 Q-122.89 791.498 -116.493 791.498 Q-110.095 791.498 -106.403 788.792 Q-102.743 786.055 -102.743 781.313 Q-102.743 776.634 -106.435 773.897 Q-110.127 771.159 -116.493 771.159 Q-122.826 771.159 -126.519 773.897 Q-130.242 776.634 -130.242 781.313 M-135.208 781.313 Q-135.208 773.674 -130.242 769.313 Q-125.277 764.953 -116.493 764.953 Q-107.74 764.953 -102.743 769.313 Q-97.7774 773.674 -97.7774 781.313 Q-97.7774 788.983 -102.743 793.344 Q-107.74 797.673 -116.493 797.673 Q-125.277 797.673 -130.242 793.344 Q-135.208 788.983 -135.208 781.313 Z" fill="#000000" fill-rule="nonzero" fill-opacity="1" /><path clip-path="url(#clip250)" d="M-127.505 727.491 Q-131.452 725.294 -133.33 722.239 Q-135.208 719.183 -135.208 715.046 Q-135.208 709.476 -131.293 706.452 Q-127.41 703.428 -120.216 703.428 L-98.7004 703.428 L-98.7004 709.317 L-120.026 709.317 Q-125.15 709.317 -127.633 711.131 Q-130.115 712.945 -130.115 716.669 Q-130.115 721.22 -127.091 723.862 Q-124.068 726.504 -118.848 726.504 L-98.7004 726.504 L-98.7004 732.392 L-120.026 732.392 Q-125.182 732.392 -127.633 734.206 Q-130.115 736.021 -130.115 739.808 Q-130.115 744.296 -127.06 746.938 Q-124.036 749.58 -118.848 749.58 L-98.7004 749.58 L-98.7004 755.468 L-134.348 755.468 L-134.348 749.58 L-128.81 749.58 Q-132.089 747.574 -133.648 744.774 Q-135.208 741.973 -135.208 738.121 Q-135.208 734.238 -133.234 731.533 Q-131.261 728.796 -127.505 727.491 Z" fill="#000000" fill-rule="nonzero" fill-opacity="1" /><path clip-path="url(#clip250)" d="M-117.989 661.255 L-115.124 661.255 L-115.124 688.182 Q-109.077 687.8 -105.894 684.554 Q-102.743 681.276 -102.743 675.451 Q-102.743 672.077 -103.57 668.926 Q-104.398 665.743 -106.053 662.624 L-100.515 662.624 Q-99.1778 665.775 -98.4776 669.085 Q-97.7774 672.395 -97.7774 675.801 Q-97.7774 684.331 -102.743 689.328 Q-107.708 694.293 -116.174 694.293 Q-124.927 694.293 -130.052 689.583 Q-135.208 684.84 -135.208 676.82 Q-135.208 669.626 -130.561 665.457 Q-125.946 661.255 -117.989 661.255 M-119.707 667.112 Q-124.513 667.176 -127.378 669.817 Q-130.242 672.427 -130.242 676.756 Q-130.242 681.658 -127.473 684.618 Q-124.704 687.546 -119.675 687.991 L-119.707 667.112 Z" fill="#000000" fill-rule="nonzero" fill-opacity="1" /><circle clip-path="url(#clip252)" cx="1387.66" cy="856.805" r="14.4" fill="#009af9" fill-rule="evenodd" fill-opacity="1" stroke="#000000" stroke-opacity="1" stroke-width="3.2"/>
<circle clip-path="url(#clip252)" cx="2209.71" cy="88.5087" r="14.4" fill="#009af9" fill-rule="evenodd" fill-opacity="1" stroke="#000000" stroke-opacity="1" stroke-width="3.2"/>
<circle clip-path="url(#clip252)" cx="1994.53" cy="435.258" r="14.4" fill="#009af9" fill-rule="evenodd" fill-opacity="1" stroke="#000000" stroke-opacity="1" stroke-width="3.2"/>
<circle clip-path="url(#clip252)" cx="1276.41" cy="950.003" r="14.4" fill="#009af9" fill-rule="evenodd" fill-opacity="1" stroke="#000000" stroke-opacity="1" stroke-width="3.2"/>
<circle clip-path="url(#clip252)" cx="1303.55" cy="1105.08" r="14.4" fill="#009af9" fill-rule="evenodd" fill-opacity="1" stroke="#000000" stroke-opacity="1" stroke-width="3.2"/>
<circle clip-path="url(#clip252)" cx="166.42" cy="1293.66" r="14.4" fill="#009af9" fill-rule="evenodd" fill-opacity="1" stroke="#000000" stroke-opacity="1" stroke-width="3.2"/>
<circle clip-path="url(#clip252)" cx="863.085" cy="1400.44" r="14.4" fill="#009af9" fill-rule="evenodd" fill-opacity="1" stroke="#000000" stroke-opacity="1" stroke-width="3.2"/>
<circle clip-path="url(#clip252)" cx="1733.44" cy="371.016" r="14.4" fill="#009af9" fill-rule="evenodd" fill-opacity="1" stroke="#000000" stroke-opacity="1" stroke-width="3.2"/>
<circle clip-path="url(#clip252)" cx="1110.42" cy="1298.89" r="14.4" fill="#009af9" fill-rule="evenodd" fill-opacity="1" stroke="#000000" stroke-opacity="1" stroke-width="3.2"/>
<circle clip-path="url(#clip252)" cx="1323.06" cy="598.7" r="14.4" fill="#009af9" fill-rule="evenodd" fill-opacity="1" stroke="#000000" stroke-opacity="1" stroke-width="3.2"/>
<circle clip-path="url(#clip252)" cx="2279.1" cy="260.602" r="14.4" fill="#009af9" fill-rule="evenodd" fill-opacity="1" stroke="#000000" stroke-opacity="1" stroke-width="3.2"/>
<circle clip-path="url(#clip252)" cx="1967.69" cy="798.851" r="14.4" fill="#009af9" fill-rule="evenodd" fill-opacity="1" stroke="#000000" stroke-opacity="1" stroke-width="3.2"/>
<circle clip-path="url(#clip252)" cx="1909.77" cy="690.525" r="14.4" fill="#009af9" fill-rule="evenodd" fill-opacity="1" stroke="#000000" stroke-opacity="1" stroke-width="3.2"/>
<circle clip-path="url(#clip252)" cx="366.384" cy="1464" r="14.4" fill="#009af9" fill-rule="evenodd" fill-opacity="1" stroke="#000000" stroke-opacity="1" stroke-width="3.2"/>
<circle clip-path="url(#clip252)" cx="1272.34" cy="750.143" r="14.4" fill="#009af9" fill-rule="evenodd" fill-opacity="1" stroke="#000000" stroke-opacity="1" stroke-width="3.2"/>
<circle clip-path="url(#clip252)" cx="1702.1" cy="632.632" r="14.4" fill="#009af9" fill-rule="evenodd" fill-opacity="1" stroke="#000000" stroke-opacity="1" stroke-width="3.2"/>
<circle clip-path="url(#clip252)" cx="542.077" cy="1414.99" r="14.4" fill="#009af9" fill-rule="evenodd" fill-opacity="1" stroke="#000000" stroke-opacity="1" stroke-width="3.2"/>
<circle clip-path="url(#clip252)" cx="2289.08" cy="505.651" r="14.4" fill="#009af9" fill-rule="evenodd" fill-opacity="1" stroke="#000000" stroke-opacity="1" stroke-width="3.2"/>
<circle clip-path="url(#clip252)" cx="1532.94" cy="558.148" r="14.4" fill="#009af9" fill-rule="evenodd" fill-opacity="1" stroke="#000000" stroke-opacity="1" stroke-width="3.2"/>
<circle clip-path="url(#clip252)" cx="1060.02" cy="1294.64" r="14.4" fill="#009af9" fill-rule="evenodd" fill-opacity="1" stroke="#000000" stroke-opacity="1" stroke-width="3.2"/>
<polyline clip-path="url(#clip252)" style="stroke:#e26f46; stroke-linecap:round; stroke-linejoin:round; stroke-width:4; stroke-opacity:1; fill:none" points="-1496.13,2800.79 4277.2,-1085.8 "/>
</svg>
