<?xml version="1.0" encoding="utf-8"?>
<svg xmlns="http://www.w3.org/2000/svg" xmlns:xlink="http://www.w3.org/1999/xlink" width="800" height="600" viewBox="0 0 3200 2400">
<defs>
  <clipPath id="clip700">
    <rect x="0" y="0" width="3200" height="2400"/>
  </clipPath>
</defs>
<path clip-path="url(#clip700)" d="M0 2400 L3200 2400 L3200 0 L0 0  Z" fill="#ffffff" fill-rule="evenodd" fill-opacity="1"/>
<defs>
  <clipPath id="clip701">
    <rect x="640" y="0" width="2241" height="2241"/>
  </clipPath>
</defs>
<path clip-path="url(#clip700)" d="M252.472 2155.53 L3011.02 2155.53 L3011.02 188.976 L252.472 188.976  Z" fill="#ffffff" fill-rule="evenodd" fill-opacity="1"/>
<defs>
  <clipPath id="clip702">
    <rect x="252" y="188" width="2760" height="1968"/>
  </clipPath>
</defs>
<polyline clip-path="url(#clip702)" style="stroke:#000000; stroke-linecap:round; stroke-linejoin:round; stroke-width:2; stroke-opacity:0.1; fill:none" points="609.044,2155.53 609.044,188.976 "/>
<polyline clip-path="url(#clip702)" style="stroke:#000000; stroke-linecap:round; stroke-linejoin:round; stroke-width:2; stroke-opacity:0.1; fill:none" points="1226.74,2155.53 1226.74,188.976 "/>
<polyline clip-path="url(#clip702)" style="stroke:#000000; stroke-linecap:round; stroke-linejoin:round; stroke-width:2; stroke-opacity:0.1; fill:none" points="1844.43,2155.53 1844.43,188.976 "/>
<polyline clip-path="url(#clip702)" style="stroke:#000000; stroke-linecap:round; stroke-linejoin:round; stroke-width:2; stroke-opacity:0.1; fill:none" points="2462.12,2155.53 2462.12,188.976 "/>
<polyline clip-path="url(#clip700)" style="stroke:#000000; stroke-linecap:round; stroke-linejoin:round; stroke-width:4; stroke-opacity:1; fill:none" points="252.472,2155.53 3011.02,2155.53 "/>
<polyline clip-path="url(#clip700)" style="stroke:#000000; stroke-linecap:round; stroke-linejoin:round; stroke-width:4; stroke-opacity:1; fill:none" points="609.044,2155.53 609.044,2136.63 "/>
<polyline clip-path="url(#clip700)" style="stroke:#000000; stroke-linecap:round; stroke-linejoin:round; stroke-width:4; stroke-opacity:1; fill:none" points="1226.74,2155.53 1226.74,2136.63 "/>
<polyline clip-path="url(#clip700)" style="stroke:#000000; stroke-linecap:round; stroke-linejoin:round; stroke-width:4; stroke-opacity:1; fill:none" points="1844.43,2155.53 1844.43,2136.63 "/>
<polyline clip-path="url(#clip700)" style="stroke:#000000; stroke-linecap:round; stroke-linejoin:round; stroke-width:4; stroke-opacity:1; fill:none" points="2462.12,2155.53 2462.12,2136.63 "/>
<path clip-path="url(#clip700)" d="M576.208 2189.77 L594.565 2189.77 L594.565 2193.7 L580.491 2193.7 L580.491 2202.17 Q581.509 2201.83 582.528 2201.67 Q583.546 2201.48 584.565 2201.48 Q590.352 2201.48 593.731 2204.65 Q597.111 2207.82 597.111 2213.24 Q597.111 2218.82 593.639 2221.92 Q590.167 2225 583.847 2225 Q581.671 2225 579.403 2224.63 Q577.157 2224.26 574.75 2223.52 L574.75 2218.82 Q576.833 2219.95 579.055 2220.51 Q581.278 2221.06 583.755 2221.06 Q587.759 2221.06 590.097 2218.96 Q592.435 2216.85 592.435 2213.24 Q592.435 2209.63 590.097 2207.52 Q587.759 2205.42 583.755 2205.42 Q581.88 2205.42 580.005 2205.83 Q578.153 2206.25 576.208 2207.13 L576.208 2189.77 Z" fill="#000000" fill-rule="nonzero" fill-opacity="1" /><path clip-path="url(#clip700)" d="M606.324 2218.45 L611.208 2218.45 L611.208 2224.33 L606.324 2224.33 L606.324 2218.45 Z" fill="#000000" fill-rule="nonzero" fill-opacity="1" /><path clip-path="url(#clip700)" d="M631.393 2192.85 Q627.782 2192.85 625.953 2196.41 Q624.148 2199.95 624.148 2207.08 Q624.148 2214.19 625.953 2217.75 Q627.782 2221.3 631.393 2221.3 Q635.027 2221.3 636.833 2217.75 Q638.662 2214.19 638.662 2207.08 Q638.662 2199.95 636.833 2196.41 Q635.027 2192.85 631.393 2192.85 M631.393 2189.14 Q637.203 2189.14 640.259 2193.75 Q643.338 2198.33 643.338 2207.08 Q643.338 2215.81 640.259 2220.42 Q637.203 2225 631.393 2225 Q625.583 2225 622.504 2220.42 Q619.449 2215.81 619.449 2207.08 Q619.449 2198.33 622.504 2193.75 Q625.583 2189.14 631.393 2189.14 Z" fill="#000000" fill-rule="nonzero" fill-opacity="1" /><path clip-path="url(#clip700)" d="M1193.06 2189.77 L1215.28 2189.77 L1215.28 2191.76 L1202.73 2224.33 L1197.85 2224.33 L1209.65 2193.7 L1193.06 2193.7 L1193.06 2189.77 Z" fill="#000000" fill-rule="nonzero" fill-opacity="1" /><path clip-path="url(#clip700)" d="M1224.4 2218.45 L1229.28 2218.45 L1229.28 2224.33 L1224.4 2224.33 L1224.4 2218.45 Z" fill="#000000" fill-rule="nonzero" fill-opacity="1" /><path clip-path="url(#clip700)" d="M1239.51 2189.77 L1257.87 2189.77 L1257.87 2193.7 L1243.8 2193.7 L1243.8 2202.17 Q1244.81 2201.83 1245.83 2201.67 Q1246.85 2201.48 1247.87 2201.48 Q1253.66 2201.48 1257.04 2204.65 Q1260.42 2207.82 1260.42 2213.24 Q1260.42 2218.82 1256.94 2221.92 Q1253.47 2225 1247.15 2225 Q1244.98 2225 1242.71 2224.63 Q1240.46 2224.26 1238.06 2223.52 L1238.06 2218.82 Q1240.14 2219.95 1242.36 2220.51 Q1244.58 2221.06 1247.06 2221.06 Q1251.06 2221.06 1253.4 2218.96 Q1255.74 2216.85 1255.74 2213.24 Q1255.74 2209.63 1253.4 2207.52 Q1251.06 2205.42 1247.06 2205.42 Q1245.19 2205.42 1243.31 2205.83 Q1241.46 2206.25 1239.51 2207.13 L1239.51 2189.77 Z" fill="#000000" fill-rule="nonzero" fill-opacity="1" /><path clip-path="url(#clip700)" d="M1796.5 2220.39 L1804.14 2220.39 L1804.14 2194.03 L1795.83 2195.69 L1795.83 2191.43 L1804.09 2189.77 L1808.77 2189.77 L1808.77 2220.39 L1816.41 2220.39 L1816.41 2224.33 L1796.5 2224.33 L1796.5 2220.39 Z" fill="#000000" fill-rule="nonzero" fill-opacity="1" /><path clip-path="url(#clip700)" d="M1835.85 2192.85 Q1832.24 2192.85 1830.41 2196.41 Q1828.61 2199.95 1828.61 2207.08 Q1828.61 2214.19 1830.41 2217.75 Q1832.24 2221.3 1835.85 2221.3 Q1839.49 2221.3 1841.29 2217.75 Q1843.12 2214.19 1843.12 2207.08 Q1843.12 2199.95 1841.29 2196.41 Q1839.49 2192.85 1835.85 2192.85 M1835.85 2189.14 Q1841.66 2189.14 1844.72 2193.75 Q1847.8 2198.33 1847.8 2207.08 Q1847.8 2215.81 1844.72 2220.42 Q1841.66 2225 1835.85 2225 Q1830.04 2225 1826.96 2220.42 Q1823.91 2215.81 1823.91 2207.08 Q1823.91 2198.33 1826.96 2193.75 Q1830.04 2189.14 1835.85 2189.14 Z" fill="#000000" fill-rule="nonzero" fill-opacity="1" /><path clip-path="url(#clip700)" d="M1856.01 2218.45 L1860.9 2218.45 L1860.9 2224.33 L1856.01 2224.33 L1856.01 2218.45 Z" fill="#000000" fill-rule="nonzero" fill-opacity="1" /><path clip-path="url(#clip700)" d="M1881.08 2192.85 Q1877.47 2192.85 1875.64 2196.41 Q1873.84 2199.95 1873.84 2207.08 Q1873.84 2214.19 1875.64 2217.75 Q1877.47 2221.3 1881.08 2221.3 Q1884.72 2221.3 1886.52 2217.75 Q1888.35 2214.19 1888.35 2207.08 Q1888.35 2199.95 1886.52 2196.41 Q1884.72 2192.85 1881.08 2192.85 M1881.08 2189.14 Q1886.89 2189.14 1889.95 2193.75 Q1893.03 2198.33 1893.03 2207.08 Q1893.03 2215.81 1889.95 2220.42 Q1886.89 2225 1881.08 2225 Q1875.27 2225 1872.19 2220.42 Q1869.14 2215.81 1869.14 2207.08 Q1869.14 2198.33 1872.19 2193.75 Q1875.27 2189.14 1881.08 2189.14 Z" fill="#000000" fill-rule="nonzero" fill-opacity="1" /><path clip-path="url(#clip700)" d="M2414.69 2220.39 L2422.33 2220.39 L2422.33 2194.03 L2414.02 2195.69 L2414.02 2191.43 L2422.28 2189.77 L2426.96 2189.77 L2426.96 2220.39 L2434.6 2220.39 L2434.6 2224.33 L2414.69 2224.33 L2414.69 2220.39 Z" fill="#000000" fill-rule="nonzero" fill-opacity="1" /><path clip-path="url(#clip700)" d="M2448.07 2220.39 L2464.39 2220.39 L2464.39 2224.33 L2442.45 2224.33 L2442.45 2220.39 Q2445.11 2217.64 2449.69 2213.01 Q2454.3 2208.36 2455.48 2207.01 Q2457.72 2204.49 2458.6 2202.75 Q2459.51 2200.99 2459.51 2199.3 Q2459.51 2196.55 2457.56 2194.81 Q2455.64 2193.08 2452.54 2193.08 Q2450.34 2193.08 2447.89 2193.84 Q2445.45 2194.61 2442.68 2196.16 L2442.68 2191.43 Q2445.5 2190.3 2447.95 2189.72 Q2450.41 2189.14 2452.45 2189.14 Q2457.82 2189.14 2461.01 2191.83 Q2464.2 2194.51 2464.2 2199 Q2464.2 2201.13 2463.39 2203.05 Q2462.61 2204.95 2460.5 2207.55 Q2459.92 2208.22 2456.82 2211.43 Q2453.72 2214.63 2448.07 2220.39 Z" fill="#000000" fill-rule="nonzero" fill-opacity="1" /><path clip-path="url(#clip700)" d="M2474.2 2218.45 L2479.09 2218.45 L2479.09 2224.33 L2474.2 2224.33 L2474.2 2218.45 Z" fill="#000000" fill-rule="nonzero" fill-opacity="1" /><path clip-path="url(#clip700)" d="M2489.32 2189.77 L2507.68 2189.77 L2507.68 2193.7 L2493.6 2193.7 L2493.6 2202.17 Q2494.62 2201.83 2495.64 2201.67 Q2496.66 2201.48 2497.68 2201.48 Q2503.46 2201.48 2506.84 2204.65 Q2510.22 2207.82 2510.22 2213.24 Q2510.22 2218.82 2506.75 2221.92 Q2503.28 2225 2496.96 2225 Q2494.78 2225 2492.51 2224.63 Q2490.27 2224.26 2487.86 2223.52 L2487.86 2218.82 Q2489.95 2219.95 2492.17 2220.51 Q2494.39 2221.06 2496.87 2221.06 Q2500.87 2221.06 2503.21 2218.96 Q2505.55 2216.85 2505.55 2213.24 Q2505.55 2209.63 2503.21 2207.52 Q2500.87 2205.42 2496.87 2205.42 Q2494.99 2205.42 2493.12 2205.83 Q2491.26 2206.25 2489.32 2207.13 L2489.32 2189.77 Z" fill="#000000" fill-rule="nonzero" fill-opacity="1" /><path clip-path="url(#clip700)" d="M1475.45 2264.87 L1505.5 2264.87 L1505.5 2270.28 L1481.88 2270.28 L1481.88 2284.35 L1504.51 2284.35 L1504.51 2289.76 L1481.88 2289.76 L1481.88 2306.98 L1506.07 2306.98 L1506.07 2312.39 L1475.45 2312.39 L1475.45 2264.87 Z" fill="#000000" fill-rule="nonzero" fill-opacity="1" /><path clip-path="url(#clip700)" d="M1539.84 2282.15 L1539.84 2262.87 L1545.7 2262.87 L1545.7 2312.39 L1539.84 2312.39 L1539.84 2307.04 Q1538 2310.23 1535.16 2311.79 Q1532.36 2313.31 1528.42 2313.31 Q1521.96 2313.31 1517.88 2308.16 Q1513.84 2303 1513.84 2294.6 Q1513.84 2286.2 1517.88 2281.04 Q1521.96 2275.88 1528.42 2275.88 Q1532.36 2275.88 1535.16 2277.44 Q1538 2278.97 1539.84 2282.15 M1519.89 2294.6 Q1519.89 2301.06 1522.53 2304.75 Q1525.2 2308.41 1529.85 2308.41 Q1534.5 2308.41 1537.17 2304.75 Q1539.84 2301.06 1539.84 2294.6 Q1539.84 2288.14 1537.17 2284.48 Q1534.5 2280.79 1529.85 2280.79 Q1525.2 2280.79 1522.53 2284.48 Q1519.89 2288.14 1519.89 2294.6 Z" fill="#000000" fill-rule="nonzero" fill-opacity="1" /><path clip-path="url(#clip700)" d="M1557.16 2298.32 L1557.16 2276.74 L1563.01 2276.74 L1563.01 2298.1 Q1563.01 2303.16 1564.99 2305.71 Q1566.96 2308.22 1570.91 2308.22 Q1575.65 2308.22 1578.39 2305.2 Q1581.16 2302.17 1581.16 2296.95 L1581.16 2276.74 L1587.01 2276.74 L1587.01 2312.39 L1581.16 2312.39 L1581.16 2306.92 Q1579.02 2310.16 1576.19 2311.75 Q1573.39 2313.31 1569.67 2313.31 Q1563.52 2313.31 1560.34 2309.5 Q1557.16 2305.68 1557.16 2298.32 M1571.89 2275.88 L1571.89 2275.88 Z" fill="#000000" fill-rule="nonzero" fill-opacity="1" /><path clip-path="url(#clip700)" d="M1624.73 2278.11 L1624.73 2283.59 Q1622.25 2282.22 1619.73 2281.55 Q1617.25 2280.85 1614.7 2280.85 Q1609.01 2280.85 1605.86 2284.48 Q1602.7 2288.07 1602.7 2294.6 Q1602.7 2301.12 1605.86 2304.75 Q1609.01 2308.35 1614.7 2308.35 Q1617.25 2308.35 1619.73 2307.68 Q1622.25 2306.98 1624.73 2305.61 L1624.73 2311.02 Q1622.28 2312.17 1619.64 2312.74 Q1617.03 2313.31 1614.07 2313.31 Q1606.01 2313.31 1601.27 2308.25 Q1596.53 2303.19 1596.53 2294.6 Q1596.53 2285.88 1601.3 2280.88 Q1606.11 2275.88 1614.45 2275.88 Q1617.15 2275.88 1619.73 2276.46 Q1622.31 2277 1624.73 2278.11 Z" fill="#000000" fill-rule="nonzero" fill-opacity="1" /><path clip-path="url(#clip700)" d="M1651.12 2294.47 Q1644.02 2294.47 1641.28 2296.1 Q1638.54 2297.72 1638.54 2301.63 Q1638.54 2304.75 1640.58 2306.6 Q1642.65 2308.41 1646.18 2308.41 Q1651.05 2308.41 1653.98 2304.98 Q1656.94 2301.51 1656.94 2295.78 L1656.94 2294.47 L1651.12 2294.47 M1662.8 2292.05 L1662.8 2312.39 L1656.94 2312.39 L1656.94 2306.98 Q1654.94 2310.23 1651.94 2311.79 Q1648.95 2313.31 1644.62 2313.31 Q1639.15 2313.31 1635.9 2310.26 Q1632.69 2307.17 1632.69 2302.02 Q1632.69 2296 1636.7 2292.94 Q1640.74 2289.89 1648.73 2289.89 L1656.94 2289.89 L1656.94 2289.32 Q1656.94 2285.27 1654.27 2283.08 Q1651.62 2280.85 1646.82 2280.85 Q1643.76 2280.85 1640.87 2281.58 Q1637.97 2282.31 1635.3 2283.78 L1635.3 2278.37 Q1638.51 2277.13 1641.54 2276.52 Q1644.56 2275.88 1647.42 2275.88 Q1655.16 2275.88 1658.98 2279.89 Q1662.8 2283.91 1662.8 2292.05 Z" fill="#000000" fill-rule="nonzero" fill-opacity="1" /><path clip-path="url(#clip700)" d="M1680.65 2266.62 L1680.65 2276.74 L1692.72 2276.74 L1692.72 2281.3 L1680.65 2281.3 L1680.65 2300.65 Q1680.65 2305.01 1681.83 2306.25 Q1683.04 2307.49 1686.7 2307.49 L1692.72 2307.49 L1692.72 2312.39 L1686.7 2312.39 Q1679.92 2312.39 1677.34 2309.88 Q1674.76 2307.33 1674.76 2300.65 L1674.76 2281.3 L1670.47 2281.3 L1670.47 2276.74 L1674.76 2276.74 L1674.76 2266.62 L1680.65 2266.62 Z" fill="#000000" fill-rule="nonzero" fill-opacity="1" /><path clip-path="url(#clip700)" d="M1700.42 2276.74 L1706.27 2276.74 L1706.27 2312.39 L1700.42 2312.39 L1700.42 2276.74 M1700.42 2262.87 L1706.27 2262.87 L1706.27 2270.28 L1700.42 2270.28 L1700.42 2262.87 Z" fill="#000000" fill-rule="nonzero" fill-opacity="1" /><path clip-path="url(#clip700)" d="M1732.34 2280.85 Q1727.63 2280.85 1724.89 2284.54 Q1722.16 2288.2 1722.16 2294.6 Q1722.16 2301 1724.86 2304.69 Q1727.6 2308.35 1732.34 2308.35 Q1737.02 2308.35 1739.76 2304.66 Q1742.5 2300.97 1742.5 2294.6 Q1742.5 2288.27 1739.76 2284.57 Q1737.02 2280.85 1732.34 2280.85 M1732.34 2275.88 Q1739.98 2275.88 1744.34 2280.85 Q1748.7 2285.81 1748.7 2294.6 Q1748.7 2303.35 1744.34 2308.35 Q1739.98 2313.31 1732.34 2313.31 Q1724.67 2313.31 1720.31 2308.35 Q1715.98 2303.35 1715.98 2294.6 Q1715.98 2285.81 1720.31 2280.85 Q1724.67 2275.88 1732.34 2275.88 Z" fill="#000000" fill-rule="nonzero" fill-opacity="1" /><path clip-path="url(#clip700)" d="M1788.04 2290.88 L1788.04 2312.39 L1782.19 2312.39 L1782.19 2291.07 Q1782.19 2286.01 1780.21 2283.49 Q1778.24 2280.98 1774.29 2280.98 Q1769.55 2280.98 1766.81 2284 Q1764.08 2287.02 1764.08 2292.24 L1764.08 2312.39 L1758.19 2312.39 L1758.19 2276.74 L1764.08 2276.74 L1764.08 2282.28 Q1766.18 2279.07 1769.01 2277.48 Q1771.87 2275.88 1775.6 2275.88 Q1781.74 2275.88 1784.89 2279.7 Q1788.04 2283.49 1788.04 2290.88 Z" fill="#000000" fill-rule="nonzero" fill-opacity="1" /><polyline clip-path="url(#clip702)" style="stroke:#000000; stroke-linecap:round; stroke-linejoin:round; stroke-width:2; stroke-opacity:0.1; fill:none" points="252.472,1882.09 3011.02,1882.09 "/>
<polyline clip-path="url(#clip702)" style="stroke:#000000; stroke-linecap:round; stroke-linejoin:round; stroke-width:2; stroke-opacity:0.1; fill:none" points="252.472,1577.11 3011.02,1577.11 "/>
<polyline clip-path="url(#clip702)" style="stroke:#000000; stroke-linecap:round; stroke-linejoin:round; stroke-width:2; stroke-opacity:0.1; fill:none" points="252.472,1272.13 3011.02,1272.13 "/>
<polyline clip-path="url(#clip702)" style="stroke:#000000; stroke-linecap:round; stroke-linejoin:round; stroke-width:2; stroke-opacity:0.1; fill:none" points="252.472,967.147 3011.02,967.147 "/>
<polyline clip-path="url(#clip702)" style="stroke:#000000; stroke-linecap:round; stroke-linejoin:round; stroke-width:2; stroke-opacity:0.1; fill:none" points="252.472,662.167 3011.02,662.167 "/>
<polyline clip-path="url(#clip702)" style="stroke:#000000; stroke-linecap:round; stroke-linejoin:round; stroke-width:2; stroke-opacity:0.1; fill:none" points="252.472,357.187 3011.02,357.187 "/>
<polyline clip-path="url(#clip700)" style="stroke:#000000; stroke-linecap:round; stroke-linejoin:round; stroke-width:4; stroke-opacity:1; fill:none" points="252.472,2155.53 252.472,188.976 "/>
<polyline clip-path="url(#clip700)" style="stroke:#000000; stroke-linecap:round; stroke-linejoin:round; stroke-width:4; stroke-opacity:1; fill:none" points="252.472,1882.09 271.37,1882.09 "/>
<polyline clip-path="url(#clip700)" style="stroke:#000000; stroke-linecap:round; stroke-linejoin:round; stroke-width:4; stroke-opacity:1; fill:none" points="252.472,1577.11 271.37,1577.11 "/>
<polyline clip-path="url(#clip700)" style="stroke:#000000; stroke-linecap:round; stroke-linejoin:round; stroke-width:4; stroke-opacity:1; fill:none" points="252.472,1272.13 271.37,1272.13 "/>
<polyline clip-path="url(#clip700)" style="stroke:#000000; stroke-linecap:round; stroke-linejoin:round; stroke-width:4; stroke-opacity:1; fill:none" points="252.472,967.147 271.37,967.147 "/>
<polyline clip-path="url(#clip700)" style="stroke:#000000; stroke-linecap:round; stroke-linejoin:round; stroke-width:4; stroke-opacity:1; fill:none" points="252.472,662.167 271.37,662.167 "/>
<polyline clip-path="url(#clip700)" style="stroke:#000000; stroke-linecap:round; stroke-linejoin:round; stroke-width:4; stroke-opacity:1; fill:none" points="252.472,357.187 271.37,357.187 "/>
<path clip-path="url(#clip700)" d="M106.209 1880.73 Q109.566 1881.45 111.441 1883.72 Q113.339 1885.99 113.339 1889.32 Q113.339 1894.44 109.82 1897.24 Q106.302 1900.04 99.8202 1900.04 Q97.6443 1900.04 95.3295 1899.6 Q93.0379 1899.18 90.5842 1898.33 L90.5842 1893.81 Q92.5286 1894.95 94.8434 1895.52 Q97.1582 1896.1 99.6813 1896.1 Q104.079 1896.1 106.371 1894.37 Q108.686 1892.63 108.686 1889.32 Q108.686 1886.27 106.533 1884.55 Q104.404 1882.82 100.584 1882.82 L96.5564 1882.82 L96.5564 1878.97 L100.769 1878.97 Q104.218 1878.97 106.047 1877.61 Q107.876 1876.22 107.876 1873.63 Q107.876 1870.96 105.978 1869.55 Q104.103 1868.12 100.584 1868.12 Q98.6628 1868.12 96.4638 1868.53 Q94.2647 1868.95 91.6258 1869.83 L91.6258 1865.66 Q94.2878 1864.92 96.6026 1864.55 Q98.9406 1864.18 101.001 1864.18 Q106.325 1864.18 109.427 1866.61 Q112.528 1869.02 112.528 1873.14 Q112.528 1876.01 110.885 1878 Q109.241 1879.97 106.209 1880.73 Z" fill="#000000" fill-rule="nonzero" fill-opacity="1" /><path clip-path="url(#clip700)" d="M132.204 1867.89 Q128.593 1867.89 126.765 1871.45 Q124.959 1874.99 124.959 1882.12 Q124.959 1889.23 126.765 1892.79 Q128.593 1896.33 132.204 1896.33 Q135.839 1896.33 137.644 1892.79 Q139.473 1889.23 139.473 1882.12 Q139.473 1874.99 137.644 1871.45 Q135.839 1867.89 132.204 1867.89 M132.204 1864.18 Q138.014 1864.18 141.07 1868.79 Q144.149 1873.37 144.149 1882.12 Q144.149 1890.85 141.07 1895.45 Q138.014 1900.04 132.204 1900.04 Q126.394 1900.04 123.315 1895.45 Q120.26 1890.85 120.26 1882.12 Q120.26 1873.37 123.315 1868.79 Q126.394 1864.18 132.204 1864.18 Z" fill="#000000" fill-rule="nonzero" fill-opacity="1" /><path clip-path="url(#clip700)" d="M162.366 1867.89 Q158.755 1867.89 156.926 1871.45 Q155.121 1874.99 155.121 1882.12 Q155.121 1889.23 156.926 1892.79 Q158.755 1896.33 162.366 1896.33 Q166 1896.33 167.806 1892.79 Q169.635 1889.23 169.635 1882.12 Q169.635 1874.99 167.806 1871.45 Q166 1867.89 162.366 1867.89 M162.366 1864.18 Q168.176 1864.18 171.232 1868.79 Q174.311 1873.37 174.311 1882.12 Q174.311 1890.85 171.232 1895.45 Q168.176 1900.04 162.366 1900.04 Q156.556 1900.04 153.477 1895.45 Q150.422 1890.85 150.422 1882.12 Q150.422 1873.37 153.477 1868.79 Q156.556 1864.18 162.366 1864.18 Z" fill="#000000" fill-rule="nonzero" fill-opacity="1" /><path clip-path="url(#clip700)" d="M192.528 1867.89 Q188.917 1867.89 187.088 1871.45 Q185.283 1874.99 185.283 1882.12 Q185.283 1889.23 187.088 1892.79 Q188.917 1896.33 192.528 1896.33 Q196.162 1896.33 197.968 1892.79 Q199.797 1889.23 199.797 1882.12 Q199.797 1874.99 197.968 1871.45 Q196.162 1867.89 192.528 1867.89 M192.528 1864.18 Q198.338 1864.18 201.394 1868.79 Q204.472 1873.37 204.472 1882.12 Q204.472 1890.85 201.394 1895.45 Q198.338 1900.04 192.528 1900.04 Q186.718 1900.04 183.639 1895.45 Q180.584 1890.85 180.584 1882.12 Q180.584 1873.37 183.639 1868.79 Q186.718 1864.18 192.528 1864.18 Z" fill="#000000" fill-rule="nonzero" fill-opacity="1" /><path clip-path="url(#clip700)" d="M106.209 1575.75 Q109.566 1576.47 111.441 1578.74 Q113.339 1581.01 113.339 1584.34 Q113.339 1589.46 109.82 1592.26 Q106.302 1595.06 99.8202 1595.06 Q97.6443 1595.06 95.3295 1594.62 Q93.0379 1594.2 90.5842 1593.35 L90.5842 1588.83 Q92.5286 1589.97 94.8434 1590.54 Q97.1582 1591.12 99.6813 1591.12 Q104.079 1591.12 106.371 1589.39 Q108.686 1587.65 108.686 1584.34 Q108.686 1581.29 106.533 1579.57 Q104.404 1577.84 100.584 1577.84 L96.5564 1577.84 L96.5564 1573.99 L100.769 1573.99 Q104.218 1573.99 106.047 1572.63 Q107.876 1571.24 107.876 1568.65 Q107.876 1565.98 105.978 1564.57 Q104.103 1563.14 100.584 1563.14 Q98.6628 1563.14 96.4638 1563.55 Q94.2647 1563.97 91.6258 1564.85 L91.6258 1560.68 Q94.2878 1559.94 96.6026 1559.57 Q98.9406 1559.2 101.001 1559.2 Q106.325 1559.2 109.427 1561.63 Q112.528 1564.04 112.528 1568.16 Q112.528 1571.03 110.885 1573.02 Q109.241 1574.99 106.209 1575.75 Z" fill="#000000" fill-rule="nonzero" fill-opacity="1" /><path clip-path="url(#clip700)" d="M122.251 1559.83 L140.607 1559.83 L140.607 1563.76 L126.533 1563.76 L126.533 1572.23 Q127.552 1571.89 128.57 1571.72 Q129.589 1571.54 130.607 1571.54 Q136.394 1571.54 139.774 1574.71 Q143.153 1577.88 143.153 1583.3 Q143.153 1588.88 139.681 1591.98 Q136.209 1595.06 129.89 1595.06 Q127.714 1595.06 125.445 1594.69 Q123.2 1594.32 120.792 1593.58 L120.792 1588.88 Q122.876 1590.01 125.098 1590.57 Q127.32 1591.12 129.797 1591.12 Q133.802 1591.12 136.139 1589.02 Q138.477 1586.91 138.477 1583.3 Q138.477 1579.69 136.139 1577.58 Q133.802 1575.47 129.797 1575.47 Q127.922 1575.47 126.047 1575.89 Q124.195 1576.31 122.251 1577.19 L122.251 1559.83 Z" fill="#000000" fill-rule="nonzero" fill-opacity="1" /><path clip-path="url(#clip700)" d="M162.366 1562.91 Q158.755 1562.91 156.926 1566.47 Q155.121 1570.01 155.121 1577.14 Q155.121 1584.25 156.926 1587.81 Q158.755 1591.35 162.366 1591.35 Q166 1591.35 167.806 1587.81 Q169.635 1584.25 169.635 1577.14 Q169.635 1570.01 167.806 1566.47 Q166 1562.91 162.366 1562.91 M162.366 1559.2 Q168.176 1559.2 171.232 1563.81 Q174.311 1568.39 174.311 1577.14 Q174.311 1585.87 171.232 1590.47 Q168.176 1595.06 162.366 1595.06 Q156.556 1595.06 153.477 1590.47 Q150.422 1585.87 150.422 1577.14 Q150.422 1568.39 153.477 1563.81 Q156.556 1559.2 162.366 1559.2 Z" fill="#000000" fill-rule="nonzero" fill-opacity="1" /><path clip-path="url(#clip700)" d="M192.528 1562.91 Q188.917 1562.91 187.088 1566.47 Q185.283 1570.01 185.283 1577.14 Q185.283 1584.25 187.088 1587.81 Q188.917 1591.35 192.528 1591.35 Q196.162 1591.35 197.968 1587.81 Q199.797 1584.25 199.797 1577.14 Q199.797 1570.01 197.968 1566.47 Q196.162 1562.91 192.528 1562.91 M192.528 1559.2 Q198.338 1559.2 201.394 1563.81 Q204.472 1568.39 204.472 1577.14 Q204.472 1585.87 201.394 1590.47 Q198.338 1595.06 192.528 1595.06 Q186.718 1595.06 183.639 1590.47 Q180.584 1585.87 180.584 1577.14 Q180.584 1568.39 183.639 1563.81 Q186.718 1559.2 192.528 1559.2 Z" fill="#000000" fill-rule="nonzero" fill-opacity="1" /><path clip-path="url(#clip700)" d="M104.89 1258.92 L93.0841 1277.37 L104.89 1277.37 L104.89 1258.92 M103.663 1254.85 L109.542 1254.85 L109.542 1277.37 L114.473 1277.37 L114.473 1281.26 L109.542 1281.26 L109.542 1289.41 L104.89 1289.41 L104.89 1281.26 L89.2879 1281.26 L89.2879 1276.74 L103.663 1254.85 Z" fill="#000000" fill-rule="nonzero" fill-opacity="1" /><path clip-path="url(#clip700)" d="M132.204 1257.93 Q128.593 1257.93 126.765 1261.49 Q124.959 1265.03 124.959 1272.16 Q124.959 1279.27 126.765 1282.83 Q128.593 1286.37 132.204 1286.37 Q135.839 1286.37 137.644 1282.83 Q139.473 1279.27 139.473 1272.16 Q139.473 1265.03 137.644 1261.49 Q135.839 1257.93 132.204 1257.93 M132.204 1254.22 Q138.014 1254.22 141.07 1258.83 Q144.149 1263.41 144.149 1272.16 Q144.149 1280.89 141.07 1285.49 Q138.014 1290.08 132.204 1290.08 Q126.394 1290.08 123.315 1285.49 Q120.26 1280.89 120.26 1272.16 Q120.26 1263.41 123.315 1258.83 Q126.394 1254.22 132.204 1254.22 Z" fill="#000000" fill-rule="nonzero" fill-opacity="1" /><path clip-path="url(#clip700)" d="M162.366 1257.93 Q158.755 1257.93 156.926 1261.49 Q155.121 1265.03 155.121 1272.16 Q155.121 1279.27 156.926 1282.83 Q158.755 1286.37 162.366 1286.37 Q166 1286.37 167.806 1282.83 Q169.635 1279.27 169.635 1272.16 Q169.635 1265.03 167.806 1261.49 Q166 1257.93 162.366 1257.93 M162.366 1254.22 Q168.176 1254.22 171.232 1258.83 Q174.311 1263.41 174.311 1272.16 Q174.311 1280.89 171.232 1285.49 Q168.176 1290.08 162.366 1290.08 Q156.556 1290.08 153.477 1285.49 Q150.422 1280.89 150.422 1272.16 Q150.422 1263.41 153.477 1258.83 Q156.556 1254.22 162.366 1254.22 Z" fill="#000000" fill-rule="nonzero" fill-opacity="1" /><path clip-path="url(#clip700)" d="M192.528 1257.93 Q188.917 1257.93 187.088 1261.49 Q185.283 1265.03 185.283 1272.16 Q185.283 1279.27 187.088 1282.83 Q188.917 1286.37 192.528 1286.37 Q196.162 1286.37 197.968 1282.83 Q199.797 1279.27 199.797 1272.16 Q199.797 1265.03 197.968 1261.49 Q196.162 1257.93 192.528 1257.93 M192.528 1254.22 Q198.338 1254.22 201.394 1258.83 Q204.472 1263.41 204.472 1272.16 Q204.472 1280.89 201.394 1285.49 Q198.338 1290.08 192.528 1290.08 Q186.718 1290.08 183.639 1285.49 Q180.584 1280.89 180.584 1272.16 Q180.584 1263.41 183.639 1258.83 Q186.718 1254.22 192.528 1254.22 Z" fill="#000000" fill-rule="nonzero" fill-opacity="1" /><path clip-path="url(#clip700)" d="M104.89 953.941 L93.0841 972.39 L104.89 972.39 L104.89 953.941 M103.663 949.867 L109.542 949.867 L109.542 972.39 L114.473 972.39 L114.473 976.279 L109.542 976.279 L109.542 984.427 L104.89 984.427 L104.89 976.279 L89.2879 976.279 L89.2879 971.765 L103.663 949.867 Z" fill="#000000" fill-rule="nonzero" fill-opacity="1" /><path clip-path="url(#clip700)" d="M122.251 949.867 L140.607 949.867 L140.607 953.802 L126.533 953.802 L126.533 962.274 Q127.552 961.927 128.57 961.765 Q129.589 961.58 130.607 961.58 Q136.394 961.58 139.774 964.751 Q143.153 967.922 143.153 973.339 Q143.153 978.918 139.681 982.02 Q136.209 985.098 129.89 985.098 Q127.714 985.098 125.445 984.728 Q123.2 984.358 120.792 983.617 L120.792 978.918 Q122.876 980.052 125.098 980.608 Q127.32 981.163 129.797 981.163 Q133.802 981.163 136.139 979.057 Q138.477 976.95 138.477 973.339 Q138.477 969.728 136.139 967.622 Q133.802 965.515 129.797 965.515 Q127.922 965.515 126.047 965.932 Q124.195 966.348 122.251 967.228 L122.251 949.867 Z" fill="#000000" fill-rule="nonzero" fill-opacity="1" /><path clip-path="url(#clip700)" d="M162.366 952.946 Q158.755 952.946 156.926 956.511 Q155.121 960.052 155.121 967.182 Q155.121 974.288 156.926 977.853 Q158.755 981.395 162.366 981.395 Q166 981.395 167.806 977.853 Q169.635 974.288 169.635 967.182 Q169.635 960.052 167.806 956.511 Q166 952.946 162.366 952.946 M162.366 949.242 Q168.176 949.242 171.232 953.849 Q174.311 958.432 174.311 967.182 Q174.311 975.909 171.232 980.515 Q168.176 985.098 162.366 985.098 Q156.556 985.098 153.477 980.515 Q150.422 975.909 150.422 967.182 Q150.422 958.432 153.477 953.849 Q156.556 949.242 162.366 949.242 Z" fill="#000000" fill-rule="nonzero" fill-opacity="1" /><path clip-path="url(#clip700)" d="M192.528 952.946 Q188.917 952.946 187.088 956.511 Q185.283 960.052 185.283 967.182 Q185.283 974.288 187.088 977.853 Q188.917 981.395 192.528 981.395 Q196.162 981.395 197.968 977.853 Q199.797 974.288 199.797 967.182 Q199.797 960.052 197.968 956.511 Q196.162 952.946 192.528 952.946 M192.528 949.242 Q198.338 949.242 201.394 953.849 Q204.472 958.432 204.472 967.182 Q204.472 975.909 201.394 980.515 Q198.338 985.098 192.528 985.098 Q186.718 985.098 183.639 980.515 Q180.584 975.909 180.584 967.182 Q180.584 958.432 183.639 953.849 Q186.718 949.242 192.528 949.242 Z" fill="#000000" fill-rule="nonzero" fill-opacity="1" /><path clip-path="url(#clip700)" d="M92.0888 644.887 L110.445 644.887 L110.445 648.822 L96.3712 648.822 L96.3712 657.294 Q97.3897 656.947 98.4082 656.785 Q99.4267 656.6 100.445 656.6 Q106.232 656.6 109.612 659.771 Q112.991 662.943 112.991 668.359 Q112.991 673.938 109.519 677.04 Q106.047 680.118 99.7276 680.118 Q97.5517 680.118 95.2832 679.748 Q93.0379 679.378 90.6305 678.637 L90.6305 673.938 Q92.7138 675.072 94.936 675.628 Q97.1582 676.183 99.635 676.183 Q103.64 676.183 105.978 674.077 Q108.316 671.97 108.316 668.359 Q108.316 664.748 105.978 662.642 Q103.64 660.535 99.635 660.535 Q97.76 660.535 95.8851 660.952 Q94.0332 661.369 92.0888 662.248 L92.0888 644.887 Z" fill="#000000" fill-rule="nonzero" fill-opacity="1" /><path clip-path="url(#clip700)" d="M132.204 647.966 Q128.593 647.966 126.765 651.531 Q124.959 655.072 124.959 662.202 Q124.959 669.308 126.765 672.873 Q128.593 676.415 132.204 676.415 Q135.839 676.415 137.644 672.873 Q139.473 669.308 139.473 662.202 Q139.473 655.072 137.644 651.531 Q135.839 647.966 132.204 647.966 M132.204 644.262 Q138.014 644.262 141.07 648.869 Q144.149 653.452 144.149 662.202 Q144.149 670.929 141.07 675.535 Q138.014 680.118 132.204 680.118 Q126.394 680.118 123.315 675.535 Q120.26 670.929 120.26 662.202 Q120.26 653.452 123.315 648.869 Q126.394 644.262 132.204 644.262 Z" fill="#000000" fill-rule="nonzero" fill-opacity="1" /><path clip-path="url(#clip700)" d="M162.366 647.966 Q158.755 647.966 156.926 651.531 Q155.121 655.072 155.121 662.202 Q155.121 669.308 156.926 672.873 Q158.755 676.415 162.366 676.415 Q166 676.415 167.806 672.873 Q169.635 669.308 169.635 662.202 Q169.635 655.072 167.806 651.531 Q166 647.966 162.366 647.966 M162.366 644.262 Q168.176 644.262 171.232 648.869 Q174.311 653.452 174.311 662.202 Q174.311 670.929 171.232 675.535 Q168.176 680.118 162.366 680.118 Q156.556 680.118 153.477 675.535 Q150.422 670.929 150.422 662.202 Q150.422 653.452 153.477 648.869 Q156.556 644.262 162.366 644.262 Z" fill="#000000" fill-rule="nonzero" fill-opacity="1" /><path clip-path="url(#clip700)" d="M192.528 647.966 Q188.917 647.966 187.088 651.531 Q185.283 655.072 185.283 662.202 Q185.283 669.308 187.088 672.873 Q188.917 676.415 192.528 676.415 Q196.162 676.415 197.968 672.873 Q199.797 669.308 199.797 662.202 Q199.797 655.072 197.968 651.531 Q196.162 647.966 192.528 647.966 M192.528 644.262 Q198.338 644.262 201.394 648.869 Q204.472 653.452 204.472 662.202 Q204.472 670.929 201.394 675.535 Q198.338 680.118 192.528 680.118 Q186.718 680.118 183.639 675.535 Q180.584 670.929 180.584 662.202 Q180.584 653.452 183.639 648.869 Q186.718 644.262 192.528 644.262 Z" fill="#000000" fill-rule="nonzero" fill-opacity="1" /><path clip-path="url(#clip700)" d="M92.0888 339.907 L110.445 339.907 L110.445 343.842 L96.3712 343.842 L96.3712 352.315 Q97.3897 351.967 98.4082 351.805 Q99.4267 351.62 100.445 351.62 Q106.232 351.62 109.612 354.791 Q112.991 357.963 112.991 363.379 Q112.991 368.958 109.519 372.06 Q106.047 375.138 99.7276 375.138 Q97.5517 375.138 95.2832 374.768 Q93.0379 374.398 90.6305 373.657 L90.6305 368.958 Q92.7138 370.092 94.936 370.648 Q97.1582 371.203 99.635 371.203 Q103.64 371.203 105.978 369.097 Q108.316 366.99 108.316 363.379 Q108.316 359.768 105.978 357.662 Q103.64 355.555 99.635 355.555 Q97.76 355.555 95.8851 355.972 Q94.0332 356.389 92.0888 357.268 L92.0888 339.907 Z" fill="#000000" fill-rule="nonzero" fill-opacity="1" /><path clip-path="url(#clip700)" d="M122.251 339.907 L140.607 339.907 L140.607 343.842 L126.533 343.842 L126.533 352.315 Q127.552 351.967 128.57 351.805 Q129.589 351.62 130.607 351.62 Q136.394 351.62 139.774 354.791 Q143.153 357.963 143.153 363.379 Q143.153 368.958 139.681 372.06 Q136.209 375.138 129.89 375.138 Q127.714 375.138 125.445 374.768 Q123.2 374.398 120.792 373.657 L120.792 368.958 Q122.876 370.092 125.098 370.648 Q127.32 371.203 129.797 371.203 Q133.802 371.203 136.139 369.097 Q138.477 366.99 138.477 363.379 Q138.477 359.768 136.139 357.662 Q133.802 355.555 129.797 355.555 Q127.922 355.555 126.047 355.972 Q124.195 356.389 122.251 357.268 L122.251 339.907 Z" fill="#000000" fill-rule="nonzero" fill-opacity="1" /><path clip-path="url(#clip700)" d="M162.366 342.986 Q158.755 342.986 156.926 346.551 Q155.121 350.092 155.121 357.222 Q155.121 364.328 156.926 367.893 Q158.755 371.435 162.366 371.435 Q166 371.435 167.806 367.893 Q169.635 364.328 169.635 357.222 Q169.635 350.092 167.806 346.551 Q166 342.986 162.366 342.986 M162.366 339.282 Q168.176 339.282 171.232 343.889 Q174.311 348.472 174.311 357.222 Q174.311 365.949 171.232 370.555 Q168.176 375.138 162.366 375.138 Q156.556 375.138 153.477 370.555 Q150.422 365.949 150.422 357.222 Q150.422 348.472 153.477 343.889 Q156.556 339.282 162.366 339.282 Z" fill="#000000" fill-rule="nonzero" fill-opacity="1" /><path clip-path="url(#clip700)" d="M192.528 342.986 Q188.917 342.986 187.088 346.551 Q185.283 350.092 185.283 357.222 Q185.283 364.328 187.088 367.893 Q188.917 371.435 192.528 371.435 Q196.162 371.435 197.968 367.893 Q199.797 364.328 199.797 357.222 Q199.797 350.092 197.968 346.551 Q196.162 342.986 192.528 342.986 M192.528 339.282 Q198.338 339.282 201.394 343.889 Q204.472 348.472 204.472 357.222 Q204.472 365.949 201.394 370.555 Q198.338 375.138 192.528 375.138 Q186.718 375.138 183.639 370.555 Q180.584 365.949 180.584 357.222 Q180.584 348.472 183.639 343.889 Q186.718 339.282 192.528 339.282 Z" fill="#000000" fill-rule="nonzero" fill-opacity="1" /><path clip-path="url(#clip700)" d="M-20.4881 1287.25 L-20.4881 1280.82 L27.0319 1280.82 L27.0319 1287.25 L-20.4881 1287.25 Z" fill="#000000" fill-rule="nonzero" fill-opacity="1" /><path clip-path="url(#clip700)" d="M5.51578 1238.65 L27.0319 1238.65 L27.0319 1244.5 L5.70676 1244.5 Q0.646019 1244.5 -1.86844 1246.48 Q-4.38289 1248.45 -4.38289 1252.4 Q-4.38289 1257.14 -1.35918 1259.88 Q1.66453 1262.61 6.88441 1262.61 L27.0319 1262.61 L27.0319 1268.5 L-8.61608 1268.5 L-8.61608 1262.61 L-3.07792 1262.61 Q-6.2926 1260.51 -7.88403 1257.68 Q-9.47545 1254.82 -9.47545 1251.09 Q-9.47545 1244.95 -5.65603 1241.8 Q-1.86844 1238.65 5.51578 1238.65 Z" fill="#000000" fill-rule="nonzero" fill-opacity="1" /><path clip-path="url(#clip700)" d="M-7.24746 1201.31 L-1.77295 1201.31 Q-3.14158 1203.79 -3.80998 1206.31 Q-4.5102 1208.79 -4.5102 1211.34 Q-4.5102 1217.03 -0.881751 1220.19 Q2.71487 1223.34 9.23972 1223.34 Q15.7646 1223.34 19.393 1220.19 Q22.9896 1217.03 22.9896 1211.34 Q22.9896 1208.79 22.3213 1206.31 Q21.621 1203.79 20.2524 1201.31 L25.6632 1201.31 Q26.8091 1203.76 27.382 1206.4 Q27.9549 1209.01 27.9549 1211.97 Q27.9549 1220.03 22.8942 1224.77 Q17.8334 1229.51 9.23972 1229.51 Q0.518705 1229.51 -4.47837 1224.74 Q-9.47545 1219.93 -9.47545 1211.59 Q-9.47545 1208.89 -8.90254 1206.31 Q-8.36146 1203.73 -7.24746 1201.31 Z" fill="#000000" fill-rule="nonzero" fill-opacity="1" /><path clip-path="url(#clip700)" d="M-4.5102 1177.31 Q-4.5102 1182.02 -0.818094 1184.76 Q2.84219 1187.5 9.23972 1187.5 Q15.6373 1187.5 19.3294 1184.79 Q22.9896 1182.06 22.9896 1177.31 Q22.9896 1172.63 19.2975 1169.9 Q15.6054 1167.16 9.23972 1167.16 Q2.90584 1167.16 -0.786265 1169.9 Q-4.5102 1172.63 -4.5102 1177.31 M-9.47545 1177.31 Q-9.47545 1169.67 -4.5102 1165.31 Q0.455048 1160.95 9.23972 1160.95 Q17.9926 1160.95 22.9896 1165.31 Q27.9549 1169.67 27.9549 1177.31 Q27.9549 1184.98 22.9896 1189.34 Q17.9926 1193.67 9.23972 1193.67 Q0.455048 1193.67 -4.5102 1189.34 Q-9.47545 1184.98 -9.47545 1177.31 Z" fill="#000000" fill-rule="nonzero" fill-opacity="1" /><path clip-path="url(#clip700)" d="M-1.77295 1123.49 Q-5.71969 1121.29 -7.59757 1118.24 Q-9.47545 1115.18 -9.47545 1111.05 Q-9.47545 1105.48 -5.56054 1102.45 Q-1.67746 1099.43 5.51578 1099.43 L27.0319 1099.43 L27.0319 1105.32 L5.70676 1105.32 Q0.582362 1105.32 -1.90026 1107.13 Q-4.38289 1108.95 -4.38289 1112.67 Q-4.38289 1117.22 -1.35918 1119.86 Q1.66453 1122.5 6.88441 1122.5 L27.0319 1122.5 L27.0319 1128.39 L5.70676 1128.39 Q0.550533 1128.39 -1.90026 1130.21 Q-4.38289 1132.02 -4.38289 1135.81 Q-4.38289 1140.3 -1.32735 1142.94 Q1.69636 1145.58 6.88441 1145.58 L27.0319 1145.58 L27.0319 1151.47 L-8.61608 1151.47 L-8.61608 1145.58 L-3.07792 1145.58 Q-6.35626 1143.57 -7.91586 1140.77 Q-9.47545 1137.97 -9.47545 1134.12 Q-9.47545 1130.24 -7.50209 1127.53 Q-5.52872 1124.8 -1.77295 1123.49 Z" fill="#000000" fill-rule="nonzero" fill-opacity="1" /><path clip-path="url(#clip700)" d="M7.74378 1057.26 L10.6083 1057.26 L10.6083 1084.18 Q16.6558 1083.8 19.8386 1080.55 Q22.9896 1077.28 22.9896 1071.45 Q22.9896 1068.08 22.1621 1064.93 Q21.3346 1061.74 19.6795 1058.62 L25.2176 1058.62 Q26.5544 1061.78 27.2547 1065.09 Q27.9549 1068.4 27.9549 1071.8 Q27.9549 1080.33 22.9896 1085.33 Q18.0244 1090.29 9.55801 1090.29 Q0.805162 1090.29 -4.31923 1085.58 Q-9.47545 1080.84 -9.47545 1072.82 Q-9.47545 1065.63 -4.82849 1061.46 Q-0.213351 1057.26 7.74378 1057.26 M6.02504 1063.11 Q1.21893 1063.18 -1.64564 1065.82 Q-4.5102 1068.43 -4.5102 1072.76 Q-4.5102 1077.66 -1.74112 1080.62 Q1.02796 1083.55 6.05687 1083.99 L6.02504 1063.11 Z" fill="#000000" fill-rule="nonzero" fill-opacity="1" /><circle clip-path="url(#clip702)" cx="1827.8" cy="1280.9" r="14.4" fill="#009af9" fill-rule="evenodd" fill-opacity="1" stroke="#000000" stroke-opacity="1" stroke-width="4.8"/>
<circle clip-path="url(#clip702)" cx="2835.64" cy="244.633" r="14.4" fill="#009af9" fill-rule="evenodd" fill-opacity="1" stroke="#000000" stroke-opacity="1" stroke-width="4.8"/>
<circle clip-path="url(#clip702)" cx="2571.83" cy="712.324" r="14.4" fill="#009af9" fill-rule="evenodd" fill-opacity="1" stroke="#000000" stroke-opacity="1" stroke-width="4.8"/>
<circle clip-path="url(#clip702)" cx="1691.41" cy="1406.6" r="14.4" fill="#009af9" fill-rule="evenodd" fill-opacity="1" stroke="#000000" stroke-opacity="1" stroke-width="4.8"/>
<circle clip-path="url(#clip702)" cx="1724.69" cy="1615.77" r="14.4" fill="#009af9" fill-rule="evenodd" fill-opacity="1" stroke="#000000" stroke-opacity="1" stroke-width="4.8"/>
<circle clip-path="url(#clip702)" cx="330.545" cy="1870.12" r="14.4" fill="#009af9" fill-rule="evenodd" fill-opacity="1" stroke="#000000" stroke-opacity="1" stroke-width="4.8"/>
<circle clip-path="url(#clip702)" cx="1184.67" cy="2014.14" r="14.4" fill="#009af9" fill-rule="evenodd" fill-opacity="1" stroke="#000000" stroke-opacity="1" stroke-width="4.8"/>
<circle clip-path="url(#clip702)" cx="2251.73" cy="625.676" r="14.4" fill="#009af9" fill-rule="evenodd" fill-opacity="1" stroke="#000000" stroke-opacity="1" stroke-width="4.8"/>
<circle clip-path="url(#clip702)" cx="1487.9" cy="1877.18" r="14.4" fill="#009af9" fill-rule="evenodd" fill-opacity="1" stroke="#000000" stroke-opacity="1" stroke-width="4.8"/>
<circle clip-path="url(#clip702)" cx="1748.61" cy="932.772" r="14.4" fill="#009af9" fill-rule="evenodd" fill-opacity="1" stroke="#000000" stroke-opacity="1" stroke-width="4.8"/>
<circle clip-path="url(#clip702)" cx="2920.72" cy="476.751" r="14.4" fill="#009af9" fill-rule="evenodd" fill-opacity="1" stroke="#000000" stroke-opacity="1" stroke-width="4.8"/>
<circle clip-path="url(#clip702)" cx="2538.93" cy="1202.73" r="14.4" fill="#009af9" fill-rule="evenodd" fill-opacity="1" stroke="#000000" stroke-opacity="1" stroke-width="4.8"/>
<circle clip-path="url(#clip702)" cx="2467.91" cy="1056.62" r="14.4" fill="#009af9" fill-rule="evenodd" fill-opacity="1" stroke="#000000" stroke-opacity="1" stroke-width="4.8"/>
<circle clip-path="url(#clip702)" cx="575.704" cy="2099.87" r="14.4" fill="#009af9" fill-rule="evenodd" fill-opacity="1" stroke="#000000" stroke-opacity="1" stroke-width="4.8"/>
<circle clip-path="url(#clip702)" cx="1686.41" cy="1137.04" r="14.4" fill="#009af9" fill-rule="evenodd" fill-opacity="1" stroke="#000000" stroke-opacity="1" stroke-width="4.8"/>
<circle clip-path="url(#clip702)" cx="2213.31" cy="978.54" r="14.4" fill="#009af9" fill-rule="evenodd" fill-opacity="1" stroke="#000000" stroke-opacity="1" stroke-width="4.8"/>
<circle clip-path="url(#clip702)" cx="791.105" cy="2033.78" r="14.4" fill="#009af9" fill-rule="evenodd" fill-opacity="1" stroke="#000000" stroke-opacity="1" stroke-width="4.8"/>
<circle clip-path="url(#clip702)" cx="2932.95" cy="807.269" r="14.4" fill="#009af9" fill-rule="evenodd" fill-opacity="1" stroke="#000000" stroke-opacity="1" stroke-width="4.8"/>
<circle clip-path="url(#clip702)" cx="2005.92" cy="878.077" r="14.4" fill="#009af9" fill-rule="evenodd" fill-opacity="1" stroke="#000000" stroke-opacity="1" stroke-width="4.8"/>
<circle clip-path="url(#clip702)" cx="1426.11" cy="1871.45" r="14.4" fill="#009af9" fill-rule="evenodd" fill-opacity="1" stroke="#000000" stroke-opacity="1" stroke-width="4.8"/>
<polyline clip-path="url(#clip702)" style="stroke:#e26f46; stroke-linecap:round; stroke-linejoin:round; stroke-width:4; stroke-opacity:1; fill:none" points="-1707.77,3902.92 5370.42,-1339.26 "/>
</svg>
